<svg xmlns="http://www.w3.org/2000/svg" xmlns:xlink="http://www.w3.org/1999/xlink" xmlns:inkscape="http://www.inkscape.org/namespaces/inkscape" version="1.1" width="224" height="154" viewBox="0 0 224 154">
<defs>
<path id="font_1_3" d="M.45999146 .31976319C.45999146 .39982606 .45498658 .47988893 .41999818 .5539398 .37399293 .65000918 .2919922 .6660156 .25 .6660156 .18998719 .6660156 .116989139 .64001467 .07598877 .54693606 .04399109 .47789 .038986207 .39982606 .038986207 .31976319 .038986207 .24472046 .042999269 .15464783 .083999637 .07859802 .1269989-.0024719239 .19999695-.022460938 .24899292-.022460938 .30299378-.022460938 .3789978-.0014648438 .4229889 .09359741 .45498658 .16265869 .45999146 .2407074 .45999146 .31976319M.24899292-.00047302247C.20999146-.00047302247 .15098572 .024551392 .1329956 .12062073 .12199402 .18066406 .12199402 .2727356 .12199402 .3317871 .12199402 .39582826 .12199402 .46188355 .12998963 .5159149 .14898682 .63500979 .22399903 .64401248 .24899292 .64401248 .28199769 .64401248 .34799195 .6259918 .36698915 .52693179 .3769989 .47088624 .3769989 .39482118 .3769989 .3317871 .3769989 .25672914 .3769989 .18867493 .3659973 .12461853 .35099793 .029556275 .2939911-.00047302247 .24899292-.00047302247Z"/>
<path id="font_2_2" d="M.04499817-.122177127C.036987306-.15631104 .034988405-.16334534-.009002686-.16334534-.021011353-.16334534-.03201294-.16334534-.03201294-.18234253-.03201294-.19033814-.027008057-.19433594-.019012452-.19433594 .0079956059-.19433594 .036987306-.19134522 .06498718-.19134522 .09799194-.19134522 .13198853-.19433594 .1639862-.19433594 .16899109-.19433594 .18199158-.19433594 .18199158-.17434693 .18199158-.16334534 .17199707-.16334534 .1579895-.16334534 .10798645-.16334534 .10798645-.15631104 .10798645-.14727783 .10798645-.13523865 .1499939 .028259278 .15699768 .053268434 .16999817 .024261475 .19799805-.0107421879 .24899292-.0107421879 .36499024-.0107421879 .48999024 .13528443 .48999024 .28233338 .48999024 .37635804 .43299867 .4423828 .35699464 .4423828 .30699159 .4423828 .25898744 .40637208 .22599793 .36735536 .21598816 .42137147 .17298889 .4423828 .13598633 .4423828 .08999634 .4423828 .070999149 .4033661 .06199646 .38536073 .04399109 .35134889 .0309906 .29133607 .0309906 .28833009 .0309906 .27833558 .040985109 .27833558 .042999269 .27833558 .052993776 .27833558 .053985597 .2793274 .05999756 .30133058 .07699585 .37236024 .09700012 .42037965 .1329956 .42037965 .1499939 .42037965 .1639862 .41236878 .1639862 .37435914 .1639862 .35134889 .16099549 .3403473 .15699768 .323349L.04499817-.122177127M.22099304 .3123474C.22799683 .33935548 .25498963 .36735536 .272995 .38235475 .30799867 .41337586 .33699037 .42037965 .35398866 .42037965 .3939972 .42037965 .41799928 .38536073 .41799928 .32633973 .41799928 .26733399 .3849945 .15229798 .36698915 .11428833 .33299256 .044265748 .2849884 .011245728 .24798584 .011245728 .18199158 .011245728 .16899109 .0942688 .16899109 .10028076 .16899109 .10227966 .16899109 .104278568 .17199707 .11628723L.22099304 .3123474Z"/>
<path id="font_3_1" d="M.5159912 .31925965C.5159912 .42918397 .5029907 .50813296 .45700074 .5780945 .42599488 .62405398 .3639984 .6640625 .28399659 .6640625 .051986696 .6640625 .051986696 .39120484 .051986696 .31925965 .051986696 .2472992 .051986696-.01953125 .28399659-.01953125 .5159912-.01953125 .5159912 .2472992 .5159912 .31925965M.28399659 .008468628C.23799134 .008468628 .1769867 .035446168 .15699768 .117385867 .14299011 .17634583 .14299011 .25830079 .14299011 .33224488 .14299011 .40519715 .14299011 .4811554 .1579895 .53611758 .1789856 .6150665 .24299622 .63604739 .28399659 .63604739 .33799745 .63604739 .3899994 .6030731 .4079895 .545105 .42399598 .4911499 .4249878 .41918946 .4249878 .33224488 .4249878 .25830079 .4249878 .18434143 .4119873 .12138367 .3919983 .030441285 .32398988 .008468628 .28399659 .008468628Z"/>
<clipPath id="clip_4">
<path transform="matrix(1.00006,0,0,-1.00002,41.06955,127.04022)" d="M0 0H181.9403V125.24074H0Z"/>
</clipPath>
<path id="font_2_1" d="M.18699646 .23144531C.21598816 .23144531 .2899933 .23344422 .33999635 .2544403 .4099884 .28442384 .4149933 .34339906 .4149933 .35740663 .4149933 .40138246 .3769989 .4423828 .30799867 .4423828 .19699097 .4423828 .04598999 .34539796 .04598999 .17037964 .04598999 .06829834 .10499573-.0107421879 .20298767-.0107421879 .34599305-.0107421879 .42999269 .095321658 .42999269 .10733032 .42999269 .113342288 .42399598 .12034607 .41799928 .12034607 .41299439 .12034607 .41099549 .11834717 .40499879 .1103363 .32598878 .011245728 .21699524 .011245728 .20498657 .011245728 .1269989 .011245728 .117996219 .095321658 .117996219 .12734986 .117996219 .13935852 .11898804 .17037964 .13398743 .23144531H.18699646M.13999939 .25343324C.1789856 .40538026 .28199769 .42037965 .30799867 .42037965 .35499574 .42037965 .38198854 .39138795 .38198854 .35740663 .38198854 .25343324 .22200012 .25343324 .18099976 .25343324H.13999939Z"/>
<path id="font_5_1" d="M.31298829 .66430667C.31399537 .66630557 .31698609 .67930606 .31698609 .68029788 .31698609 .68530276 .31298829 .6943054 .30099488 .6943054 .2809906 .6943054 .19799805 .6863098 .17298889 .6843109 .16499329 .68330386 .15098572 .682312 .15098572 .66130068 .15098572 .64730837 .16499329 .64730837 .1769867 .64730837 .22499085 .64730837 .22499085 .64030459 .22499085 .63230898 .22499085 .62532046 .22299195 .61932376 .22099304 .61032107L.07998657 .04425049C.07499695 .026229859 .07499695 .024230957 .07499695 .022232056 .07499695 .007232666 .08699036-.009765625 .10899353-.009765625 .13598633-.009765625 .14898682 .010223389 .15499878 .03224182 .15699768 .036239625 .19999695 .21234131 .20399475 .22636414 .2749939 .21936035 .33198548 .19633484 .33198548 .14430237 .33198548 .13929749 .33198548 .1342926 .32998658 .124298099 .32598878 .10928345 .32598878 .104278568 .32598878 .09327698 .32598878 .022232056 .38398744-.009765625 .43199159-.009765625 .5289917-.009765625 .5589905 .14230347 .5589905 .14331055 .5589905 .15631104 .54599 .15631104 .54299929 .15631104 .5289917 .15631104 .5279999 .15130615 .522995 .1322937 .5109863 .089263919 .48399354 .018234253 .43499757 .018234253 .4079895 .018234253 .3999939 .04324341 .3999939 .07026672 .3999939 .087265018 .3999939 .089263919 .4059906 .11528015 .40699769 .11828613 .41099549 .13529969 .41099549 .14630127 .41099549 .23536682 .29100038 .24937439 .24899292 .25238038 .27799989 .27038575 .31498719 .30340577 .33198548 .31840516 .3829956 .3664093 .43299867 .4133911 .4889984 .4133911 .5009918 .4133911 .5139923 .4104004 .5219879 .40040589 .47898866 .3934021 .46998597 .35940553 .46998597 .34440614 .46998597 .32240296 .4869995 .30740357 .5099945 .30740357 .5369873 .30740357 .5669861 .32940675 .5669861 .37139894 .5669861 .4044037 .54299929 .44140626 .48999024 .44140626 .43299867 .44140626 .3809967 .40040589 .32998658 .3534088 .28799439 .31340028 .25498963 .2823944 .21398926 .26538087L.31298829 .66430667Z"/>
<path id="font_5_2" d="M.24598694 .39465333H.34799195C.36698915 .39465333 .37998963 .39465333 .37998963 .4166565 .37998963 .43066407 .36698915 .43066407 .34999085 .43066407H.25498963L.2919922 .57850649C.29299928 .58351138 .29499818 .588501 .29499818 .5924988 .29499818 .6104889 .2809906 .6244812 .26098634 .6244812 .23599243 .6244812 .22099304 .6074829 .21398926 .58151248 .20698548 .5565338 .21998596 .6044922 .17599488 .43066407H.07398987C.054992677 .43066407 .041992189 .43066407 .041992189 .4086609 .041992189 .39465333 .053985597 .39465333 .07199097 .39465333H.16699219L.10798645 .15901184C.101989749 .13404846 .09298706 .098098758 .09298706 .085128787 .09298706 .0262146 .14299011-.009765625 .19999695-.009765625 .31098939-.009765625 .37399293 .13005066 .37399293 .14303589 .37399293 .15602112 .36099244 .15602112 .35798646 .15602112 .34599305 .15602112 .34498597 .15402222 .33699037 .13703919 .30899049 .074142459 .2579956 .018234253 .20298767 .018234253 .18199158 .018234253 .16799927 .031204224 .16799927 .06715393 .16799927 .07713318 .17199707 .098098758 .17399597 .10809326L.24598694 .39465333Z"/>
<path id="font_2_3" d="M.20599365 .3996582H.2999878C.31999208 .3996582 .32998658 .3996582 .32998658 .41966249 .32998658 .43066407 .31999208 .43066407 .3019867 .43066407H.21398926C.25 .5724945 .25498963 .59246829 .25498963 .59846499 .25498963 .61546328 .24299622 .62545779 .22599793 .62545779 .22299195 .62545779 .19499207 .62446597 .18598938 .58947756L.14698792 .43066407H.052993776C.032989503 .43066407 .022994996 .43066407 .022994996 .4116516 .022994996 .3996582 .0309906 .3996582 .050994874 .3996582H.13899231C.066986087 .11608887 .06298828 .099121097 .06298828 .08114624 .06298828 .02722168 .100997928-.0107421879 .15499878-.0107421879 .25698854-.0107421879 .31399537 .13505554 .31399537 .14305115 .31399537 .1530304 .30599977 .1530304 .3019867 .1530304 .29299928 .1530304 .2919922 .15003968 .2869873 .13905335 .24398804 .035217287 .19099427 .011245728 .15699768 .011245728 .13598633 .011245728 .12599182 .024230957 .12599182 .057174684 .12599182 .08114624 .12799073 .088134769 .13198853 .10510254L.20599365 .3996582Z"/>
<path id="font_1_1" d="M.33099366-.2400055C.33099366-.23701477 .33099366-.23500061 .31399537-.21800232 .18899536-.0920105 .15699768 .09700012 .15699768 .25 .15699768 .42399598 .19499207 .59799197 .31799317 .72299197 .33099366 .73498538 .33099366 .7369995 .33099366 .73999026 .33099366 .746994 .32699586 .75 .32099916 .75 .31098939 .75 .22099304 .6819916 .1619873 .5549927 .11099243 .44499208 .09899902 .33399964 .09899902 .25 .09899902 .17199707 .10998535 .050994874 .16499329-.06201172 .22499085-.18501282 .31098939-.25 .32099916-.25 .32699586-.25 .33099366-.24700928 .33099366-.2400055Z"/>
<path id="font_1_2" d="M.2889862 .25C.2889862 .32798768 .27799989 .44898988 .22299195 .56199648 .16299439 .68499758 .07699585 .75 .066986087 .75 .06098938 .75 .056991579 .74598696 .056991579 .73999026 .056991579 .7369995 .056991579 .73498538 .07598877 .71699526 .17399597 .6179962 .23098755 .45899964 .23098755 .25 .23098755 .07899475 .19400025-.09700012 .069992069-.2230072 .056991579-.23500061 .056991579-.23701477 .056991579-.2400055 .056991579-.2460022 .06098938-.25 .066986087-.25 .07699585-.25 .16699219-.18200684 .22599793-.055007936 .2769928 .054992677 .2889862 .16600037 .2889862 .25Z"/>
</defs>
<path transform="matrix(1.00006,0,0,-1.00002,41.06955,127.04022)" stroke-width=".19925" stroke-linecap="butt" stroke-miterlimit="10" stroke-linejoin="miter" fill="none" stroke="#7f807f" d="M0-2.12596V2.12596"/>
<path transform="matrix(1.00006,0,0,-1.00002,41.06955,127.04022)" stroke-width=".19925" stroke-linecap="butt" stroke-miterlimit="10" stroke-linejoin="miter" fill="none" stroke="#7f807f" d="M-2.12604 22.77104H2.12604"/>
<path transform="matrix(1.00006,0,0,-1.00002,41.06955,127.04022)" stroke-width=".3985" stroke-linecap="butt" stroke-miterlimit="10" stroke-linejoin="miter" fill="none" stroke="#000000" d="M0 0H179.94779"/>
<path transform="matrix(1.00006,0,0,-1.00002,221.02812,127.04022)" d="M1.99252 0-1.19551 1.59401 0 0-1.19551-1.59401"/>
<path transform="matrix(1.00006,0,0,-1.00002,41.06955,127.04022)" stroke-width=".3985" stroke-linecap="butt" stroke-miterlimit="10" stroke-linejoin="miter" fill="none" stroke="#000000" d="M0 0V123.24821"/>
<path transform="matrix(0,-1.00002,-1.00006,-0,41.06955,3.7895432)" d="M1.99252 0-1.19551 1.59401 0 0-1.19551-1.59401"/>
<use data-text="0" xlink:href="#font_1_3" transform="matrix(9.963197,0,0,-9.962799,38.5784,139.10646)"/>
<use data-text="p" xlink:href="#font_2_2" transform="matrix(9.963197,0,0,-9.962799,25.940644,105.44479)"/>
<use data-text="0" xlink:href="#font_3_1" transform="matrix(6.9742186,0,0,-6.97394,30.952942,106.93883)"/>
<g clip-path="url(#clip_4)">
<path transform="matrix(1.00006,0,0,-1.00002,41.06955,127.04022)" stroke-width=".79701" stroke-linecap="butt" stroke-miterlimit="10" stroke-linejoin="miter" fill="none" stroke="#0000ff" d="M0 22.77104C0 22.77104 1.10463 23.06293 1.52888 23.17635 1.95314 23.28978 2.63354 23.47304 3.0578 23.5885 3.48206 23.70398 4.16245 23.89104 4.5867 24.00864 5.01096 24.12622 5.69136 24.31635 6.11562 24.43605 6.53987 24.55576 7.22025 24.74968 7.6445 24.87143 8.06876 24.99318 8.74916 25.1897 9.17342 25.31364 9.59767 25.43759 10.27806 25.63855 10.70232 25.76472 11.12657 25.89091 11.80698 26.09476 12.23123 26.22311 12.65549 26.35149 13.33586 26.55927 13.76012 26.68993 14.18439 26.82059 14.86478 27.03192 15.28903 27.16492 15.71329 27.29793 16.39368 27.51318 16.81795 27.64859 17.2422 27.784 17.92259 28.00305 18.34685 28.14088 18.7711 28.27873 19.45149 28.50185 19.87575 28.64209 20.3 28.78232 20.9804 29.00894 21.40465 29.1517 21.8289 29.29446 22.50931 29.5258 22.93356 29.67111 23.35782 29.8164 24.0382 30.05109 24.46245 30.19893 24.8867 30.34679 25.56711 30.58623 25.99136 30.7368 26.41562 30.88737 27.09601 31.13098 27.52026 31.28421 27.94453 31.43742 28.62492 31.6854 29.04918 31.84119 29.47343 31.99698 30.15381 32.24835 30.57808 32.40706 31.00233 32.56575 31.68272 32.82338 32.10698 32.98497 32.53123 33.14658 33.21164 33.40742 33.6359 33.5718 34.06015 33.73618 34.74054 34.00244 35.1648 34.16975 35.58905 34.33707 36.26944 34.60748 36.6937 34.77774 37.11795 34.948 37.79834 35.22357 38.2226 35.39688 38.64685 35.5702 39.32726 35.85045 39.75151 36.02696 40.17577 36.20348 40.85616 36.48953 41.28041 36.66911 41.70468 36.8487 42.38506 37.13864 42.80931 37.32127 43.23357 37.5039 43.91396 37.79947 44.33823 37.98549 44.76248 38.17152 45.44287 38.47266 45.86713 38.66203 46.29138 38.8514 46.97177 39.15765 47.39603 39.3504 47.82028 39.54315 48.50069 39.8551 48.92494 40.05128 49.3492 40.24748 50.02959 40.56503 50.45384 40.76448 50.8781 40.96393 51.55849 41.28568 51.98274 41.48882 52.407 41.69197 53.08739 42.02179 53.51164 42.22865 53.9359 42.43553 54.61629 42.76941 55.04054 42.97987 55.46481 43.19035 56.1452 43.53133 56.56946 43.74567 56.99371 43.95999 57.6741 44.30666 58.09837 44.52466 58.52263 44.74265 59.203 45.09494 59.62726 45.31686 60.05151 45.53879 60.73192 45.89824 61.15617 46.1241 61.58043 46.34996 62.26082 46.71483 62.68507 46.94476 63.10933 47.1747 63.78972 47.54727 64.21397 47.78137 64.63823 48.01549 65.31862 48.39401 65.74287 48.63211 66.16713 48.87021 66.84753 49.25508 67.27179 49.4974 67.69604 49.73973 68.37642 50.13185 68.80067 50.37865 69.22493 50.62546 69.90533 51.0252 70.32959 51.27628 70.75385 51.52736 71.43422 51.93268 71.85849 52.18826 72.28275 52.44385 72.96313 52.85835 73.38739 53.11845 73.81165 53.37856 74.49205 53.79836 74.9163 54.063 75.34056 54.32765 76.02094 54.75653 76.44519 55.02599 76.86945 55.29544 77.54985 55.73088 77.9741 56.00514 78.39836 56.2794 79.07875 56.72368 79.503 57.00275 79.92726 57.28181 80.60765 57.73248 81.0319 58.01651 81.45616 58.30052 82.13655 58.76065 82.5608 59.04985 82.98506 59.33907 83.66545 59.80655 84.0897 60.10097 84.51396 60.39539 85.19435 60.87231 85.6186 61.17189 86.04288 61.47145 86.72327 61.95522 87.14752 62.26012 87.57178 62.56503 88.25215 63.05917 88.67642 63.36952 89.10068 63.67987 89.78107 64.181 90.20532 64.4969 90.62958 64.81282 91.30997 65.3249 91.73422 65.6464 92.15848 65.96788 92.83887 66.48691 93.26312 66.8141 93.68738 67.1413 94.36778 67.67148 94.79204 68.00456 95.2163 68.33766 95.89667 68.8761 96.32092 69.21484 96.74518 69.55359 97.42558 70.1013 97.84984 70.44608 98.2741 70.79086 98.95448 71.34868 99.37874 71.69984 99.80301 72.05101 100.48338 72.61952 100.90764 72.97708 101.3319 73.33463 102.01228 73.91309 102.43655 74.27686 102.86081 74.64063 103.54118 75.22879 103.96544 75.59894 104.3897 75.9691 105.0701 76.56776 105.49435 76.94472 105.91861 77.32167 106.599 77.93236 107.02325 78.31575 107.44751 78.69914 108.1279 79.31764 108.55215 79.70798 108.97641 80.09831 109.6568 80.73174 110.08105 81.12912 110.50531 81.5265 111.1857 82.1679 111.60995 82.57213 112.03421 82.97636 112.7146 83.63116 113.13885 84.04266 113.56313 84.45418 114.24352 85.11925 114.66777 85.53804 115.09203 85.95685 115.7724 86.63484 116.19667 87.06119 116.62093 87.48755 117.30132 88.17686 117.72557 88.61101 118.14983 89.04514 118.83023 89.74846 119.25449 90.19017 119.67874 90.63188 120.35912 91.34532 120.78337 91.79462 121.20763 92.24391 121.88803 92.97096 122.31229 93.42844 122.73654 93.88591 123.41692 94.626 123.84117 95.09186 124.26543 95.55771 124.94583 96.31187 125.37009 96.78603 125.79434 97.2602 126.47473 98.02698 126.89899 98.50934 127.32326 98.99171 128.00363 99.77136 128.42789 100.26271 128.85214 100.75406 129.53253 101.55103 129.9568 102.05069 130.38106 102.55035 131.06145 103.3556 131.4857 103.86395 131.90996 104.37228 132.59035 105.19664 133.0146 105.71455 133.43886 106.23247 134.11925 107.06982 134.5435 107.59682 134.96776 108.12381 135.64815 108.97649 136.0724 109.51277 136.49666 110.04904 137.17705 110.91634 137.6013 111.46196 138.02556 112.0076 138.70597 112.8901 139.13022 113.44531 139.55448 114.00052 140.23485 114.89806 140.6591 115.46352 141.08338 116.02899 141.76377 116.94534 142.18802 117.52089 142.61228 118.09644 143.29265 119.02579 143.71692 119.61172 144.14118 120.19768 144.82157 121.14738 145.24582 121.744 145.67008 122.34062 146.35048 123.30508 146.77474 123.9118 147.19899 124.51852 147.87937 125.49957 148.30362 126.11696 148.72788 126.73434 149.40828 127.73294 149.83254 128.3615 150.25679 128.99005 150.93718 130.0075 151.36144 130.64725 151.78569 131.287 152.46608 132.3211 152.89034 132.9724 153.31459 133.62368 153.99498 134.67847 154.41924 135.34128 154.84349 136.00408 155.52388 137.07514 155.94814 137.74954 156.37239 138.42395 157.05278 139.5153 157.47705 140.20198 157.9013 140.88867 158.5817 142.00006 159.00595 142.69882 159.4302 143.39759 160.1106 144.52701 160.53485 145.23825 160.9591 145.9495 161.6395 147.10079 162.06375 147.82505 162.488 148.54932 163.16841 149.72165 163.59267 150.45829 164.01692 151.19493 164.6973 152.38455 165.12155 153.13434 165.5458 153.88413 166.22621 155.09893 166.65047 155.8623 167.07472 156.62569 167.7551 157.85951 168.17935 158.63629 168.6036 159.41306 169.28401 160.6703 169.70827 161.4608 170.13253 162.25128 170.81291 163.5288 171.23717 164.33359 171.66144 165.13838 172.34181 166.44174 172.76607 167.26126 173.19033 168.0808 173.87071 169.40633 174.29499 170.24019 174.71924 171.07404 175.39962 172.42302 175.82387 173.27123 176.24813 174.11945 176.92853 175.48975 177.35279 176.35352 177.77704 177.2173 178.45743 178.6173 178.88169 179.49684 179.30594 180.37638 179.98633 181.79836 180.41059 182.69275 180.83484 183.58715 181.93949 185.94309 181.93949 185.94309"/>
<path transform="matrix(1.00006,0,0,-1.00002,41.06955,127.04022)" stroke-width=".3985" stroke-linecap="butt" stroke-dasharray="2.98883,2.98883" stroke-miterlimit="10" stroke-linejoin="miter" fill="none" stroke="#7f807f" d="M0 22.77104H.60646"/>
<use data-text="p" xlink:href="#font_2_2" transform="matrix(9.963197,0,0,-9.962799,190.1505,27.829239)"/>
<use data-text="0" xlink:href="#font_3_1" transform="matrix(6.9742186,0,0,-6.97394,195.1628,29.323273)"/>
<use data-text="e" xlink:href="#font_2_1" transform="matrix(9.963197,0,0,-9.962799,199.63306,27.829239)"/>
<use data-text="k" xlink:href="#font_5_1" transform="matrix(6.9742186,0,0,-6.97394,204.27234,24.213173)"/>
<use data-text="t" xlink:href="#font_5_2" transform="matrix(6.9742186,0,0,-6.97394,208.67307,24.213173)"/>
</g>
<use data-text="t" xlink:href="#font_2_3" transform="matrix(9.963197,0,0,-9.962799,130.2459,151.63272)"/>
<use data-text="p" xlink:href="#font_2_2" transform="matrix(0,-9.962799,-9.963197,-0,8.688606,72.598148)"/>
<use data-text="(" xlink:href="#font_1_1" transform="matrix(0,-9.962799,-9.963197,-0,8.688606,67.586048)"/>
<use data-text="t" xlink:href="#font_2_3" transform="matrix(0,-9.962799,-9.963197,-0,8.688606,63.710969)"/>
<use data-text=")" xlink:href="#font_1_2" transform="matrix(0,-9.962799,-9.963197,-0,8.688606,60.11389)"/>
</svg>
