<svg xmlns="http://www.w3.org/2000/svg" xmlns:xlink="http://www.w3.org/1999/xlink" xmlns:inkscape="http://www.inkscape.org/namespaces/inkscape" version="1.1" width="220" height="95" viewBox="0 0 220 95">
<defs>
<path id="font_1_1" d="M.37298585 .37835694C.35499574 .41537477 .32598878 .4423828 .2809906 .4423828 .1639862 .4423828 .039993287 .29533387 .039993287 .14929199 .039993287 .055267335 .09498596-.0107421879 .17298889-.0107421879 .19299317-.0107421879 .24299622-.0067443849 .30299378 .06427002 .31098939 .022247315 .34599305-.0107421879 .3939972-.0107421879 .42900086-.0107421879 .45199586 .012252808 .46798707 .044265748 .4850006 .08027649 .49798585 .14129639 .49798585 .14329529 .49798585 .1532898 .4889984 .1532898 .48599244 .1532898 .47599793 .1532898 .47499085 .14929199 .47200013 .13528443 .45498658 .07026672 .43699647 .011245728 .3959961 .011245728 .36898805 .011245728 .3659973 .037261964 .3659973 .057266237 .3659973 .07926941 .36799623 .08728027 .3789978 .13128662 .3899994 .17329407 .3919983 .18330384 .40098573 .22131348L.43699647 .36135865C.44400025 .38935853 .44400025 .39135743 .44400025 .39537049 .44400025 .41236878 .43199159 .42237855 .4149933 .42237855 .3909912 .42237855 .37599183 .4003601 .37298585 .37835694M.30799867 .119277957C.30299378 .10127258 .30299378 .09927368 .28799439 .08227539 .24398804 .027252198 .20298767 .011245728 .1749878 .011245728 .125 .011245728 .11099243 .06626892 .11099243 .105285648 .11099243 .1552887 .14299011 .27833558 .1659851 .32434083 .19699097 .38336183 .24198914 .42037965 .28199769 .42037965 .34700013 .42037965 .36099244 .3383484 .36099244 .33235169 .36099244 .32633973 .35899354 .32034303 .35798646 .31533814L.30799867 .119277957Z"/>
<path id="font_2_1" d="M.33499146 .63612368C.33499146 .6630554 .33299256 .6640625 .30499269 .6640625 .24099732 .6014404 .1499939 .6004486 .10899353 .6004486V.5644531C.1329956 .5644531 .19898987 .5644531 .2539978 .592453V.08203125C.2539978 .04899597 .2539978 .035995485 .1539917 .035995485H.115997318V0C.13398743 .0009918213 .25698854 .0039978029 .2939911 .0039978029 .32499696 .0039978029 .45098878 .0009918213 .47299195 0V.035995485H.43499757C.33499146 .035995485 .33499146 .04899597 .33499146 .08203125V.63612368Z"/>
<path id="font_2_2" d="M.5049896 .18203736H.47099305C.46798707 .16001892 .45799256 .100997928 .44499208 .09098816 .43699647 .084991458 .3600006 .084991458 .34599305 .084991458H.1619873C.2669983 .17803955 .3019867 .20603943 .3619995 .25306703 .43598939 .312088 .5049896 .374115 .5049896 .46914674 .5049896 .5900879 .39898683 .6640625 .2709961 .6640625 .14698792 .6640625 .06298828 .57710269 .06298828 .4851532 .06298828 .43414308 .10598755 .42915345 .115997318 .42915345 .13999939 .42915345 .16899109 .44615174 .16899109 .48214723 .16899109 .5001526 .1619873 .53515627 .10998535 .53515627 .14099121 .6060791 .20899964 .62805178 .2559967 .62805178 .35598756 .62805178 .4079895 .5501404 .4079895 .46914674 .4079895 .38212586 .34599305 .3130951 .31399537 .27708436L.07299805 .038986207C.06298828 .02999878 .06298828 .027999878 .06298828 0H.47499085L.5049896 .18203736Z"/>
<path id="font_2_3" d="M.272995 .33428956C.35099793 .33428956 .40699769 .2803192 .40699769 .1733551 .40699769 .04940796 .33499146 .012466431 .2769928 .012466431 .23699951 .012466431 .14898682 .0234375 .10699463 .082351688 .1539917 .084350589 .16499329 .11735535 .16499329 .13835144 .16499329 .17034912 .14099121 .19335938 .10998535 .19335938 .08198547 .19335938 .053985597 .17634583 .053985597 .13534546 .053985597 .041412355 .1579895-.01953125 .2789917-.01953125 .41799928-.01953125 .5139923 .07336426 .5139923 .1733551 .5139923 .2513275 .44999696 .32929994 .33999635 .35229493 .44499208 .39024354 .48298646 .4650879 .48298646 .5260773 .48298646 .60505679 .3919983 .6640625 .2809906 .6640625 .16999817 .6640625 .084991458 .61006167 .084991458 .5300751 .084991458 .49606324 .10699463 .47706605 .13699341 .47706605 .16799927 .47706605 .18798828 .5000763 .18798828 .5280762 .18798828 .5570679 .16799927 .57806399 .13699341 .5800781 .17199707 .62405398 .24099732 .63505557 .27799989 .63505557 .32299806 .63505557 .38598634 .6130676 .38598634 .5260773 .38598634 .48406983 .37199403 .43814088 .34599305 .4072113 .31298829 .36927796 .2849884 .3672943 .23498535 .36428834 .20999146 .3623047 .20799256 .3623047 .20298767 .3612976 .20098877 .3612976 .19299317 .3592987 .19299317 .34829713 .19299317 .33428956 .20199585 .33428956 .21899414 .33428956H.272995Z"/>
</defs>
<use data-text="a" xlink:href="#font_1_1" transform="matrix(9.962799,0,0,-9.9626,23.991166,15.100998)"/>
<use data-text="1" xlink:href="#font_2_1" transform="matrix(6.97394,0,0,-6.9738,29.25727,16.596)"/>
<use data-text="1" xlink:href="#font_2_1" transform="matrix(6.97394,0,0,-6.9738,33.22545,16.596)"/>
<use data-text="a" xlink:href="#font_1_1" transform="matrix(9.962799,0,0,-9.9626,69.34707,15.100998)"/>
<use data-text="1" xlink:href="#font_2_1" transform="matrix(6.97394,0,0,-6.9738,74.613178,16.596)"/>
<use data-text="2" xlink:href="#font_2_2" transform="matrix(6.97394,0,0,-6.9738,78.58135,16.596)"/>
<use data-text="a" xlink:href="#font_1_1" transform="matrix(9.962799,0,0,-9.9626,114.70298,15.100998)"/>
<use data-text="1" xlink:href="#font_2_1" transform="matrix(6.97394,0,0,-6.9738,119.969089,16.596)"/>
<use data-text="3" xlink:href="#font_2_3" transform="matrix(6.97394,0,0,-6.9738,123.93726,16.596)"/>
<use data-text="a" xlink:href="#font_1_1" transform="matrix(9.962799,0,0,-9.9626,160.0589,15.100998)"/>
<use data-text="1" xlink:href="#font_2_1" transform="matrix(6.97394,0,0,-6.9738,165.32501,16.596)"/>
<use data-text="1" xlink:href="#font_2_1" transform="matrix(6.97394,0,0,-6.9738,169.29319,16.596)"/>
<use data-text="a" xlink:href="#font_1_1" transform="matrix(9.962799,0,0,-9.9626,205.4148,15.100998)"/>
<use data-text="1" xlink:href="#font_2_1" transform="matrix(6.97394,0,0,-6.9738,210.68091,16.596)"/>
<use data-text="2" xlink:href="#font_2_2" transform="matrix(6.97394,0,0,-6.9738,214.64908,16.596)"/>
<use data-text="a" xlink:href="#font_1_1" transform="matrix(9.962799,0,0,-9.9626,23.991166,49.117)"/>
<use data-text="2" xlink:href="#font_2_2" transform="matrix(6.97394,0,0,-6.9738,29.25727,50.612005)"/>
<use data-text="1" xlink:href="#font_2_1" transform="matrix(6.97394,0,0,-6.9738,33.22545,50.612005)"/>
<use data-text="a" xlink:href="#font_1_1" transform="matrix(9.962799,0,0,-9.9626,69.34707,49.117)"/>
<use data-text="2" xlink:href="#font_2_2" transform="matrix(6.97394,0,0,-6.9738,74.613178,50.612005)"/>
<use data-text="2" xlink:href="#font_2_2" transform="matrix(6.97394,0,0,-6.9738,78.58135,50.612005)"/>
<use data-text="a" xlink:href="#font_1_1" transform="matrix(9.962799,0,0,-9.9626,114.70298,49.117)"/>
<use data-text="2" xlink:href="#font_2_2" transform="matrix(6.97394,0,0,-6.9738,119.969089,50.612005)"/>
<use data-text="3" xlink:href="#font_2_3" transform="matrix(6.97394,0,0,-6.9738,123.93726,50.612005)"/>
<use data-text="a" xlink:href="#font_1_1" transform="matrix(9.962799,0,0,-9.9626,160.0589,49.117)"/>
<use data-text="2" xlink:href="#font_2_2" transform="matrix(6.97394,0,0,-6.9738,165.32501,50.612005)"/>
<use data-text="1" xlink:href="#font_2_1" transform="matrix(6.97394,0,0,-6.9738,169.29319,50.612005)"/>
<use data-text="a" xlink:href="#font_1_1" transform="matrix(9.962799,0,0,-9.9626,205.4148,49.117)"/>
<use data-text="2" xlink:href="#font_2_2" transform="matrix(6.97394,0,0,-6.9738,210.68091,50.612005)"/>
<use data-text="2" xlink:href="#font_2_2" transform="matrix(6.97394,0,0,-6.9738,214.64908,50.612005)"/>
<use data-text="a" xlink:href="#font_1_1" transform="matrix(9.962799,0,0,-9.9626,23.991166,83.134)"/>
<use data-text="3" xlink:href="#font_2_3" transform="matrix(6.97394,0,0,-6.9738,29.25727,84.629009)"/>
<use data-text="1" xlink:href="#font_2_1" transform="matrix(6.97394,0,0,-6.9738,33.22545,84.629009)"/>
<use data-text="a" xlink:href="#font_1_1" transform="matrix(9.962799,0,0,-9.9626,69.34707,83.134)"/>
<use data-text="3" xlink:href="#font_2_3" transform="matrix(6.97394,0,0,-6.9738,74.613178,84.629009)"/>
<use data-text="2" xlink:href="#font_2_2" transform="matrix(6.97394,0,0,-6.9738,78.58135,84.629009)"/>
<use data-text="a" xlink:href="#font_1_1" transform="matrix(9.962799,0,0,-9.9626,114.70298,83.134)"/>
<use data-text="3" xlink:href="#font_2_3" transform="matrix(6.97394,0,0,-6.9738,119.969089,84.629009)"/>
<use data-text="3" xlink:href="#font_2_3" transform="matrix(6.97394,0,0,-6.9738,123.93726,84.629009)"/>
<use data-text="a" xlink:href="#font_1_1" transform="matrix(9.962799,0,0,-9.9626,160.0589,83.134)"/>
<use data-text="3" xlink:href="#font_2_3" transform="matrix(6.97394,0,0,-6.9738,165.32501,84.629009)"/>
<use data-text="1" xlink:href="#font_2_1" transform="matrix(6.97394,0,0,-6.9738,169.29319,84.629009)"/>
<use data-text="a" xlink:href="#font_1_1" transform="matrix(9.962799,0,0,-9.9626,205.4148,83.134)"/>
<use data-text="3" xlink:href="#font_2_3" transform="matrix(6.97394,0,0,-6.9738,210.68091,84.629009)"/>
<use data-text="2" xlink:href="#font_2_2" transform="matrix(6.97394,0,0,-6.9738,214.64908,84.629009)"/>
<path transform="matrix(1.00002,0,0,-1,30.8443,81.736)" stroke-width=".3985" stroke-linecap="round" stroke-linejoin="round" fill="none" stroke="#000000" d="M-20.40964 79.93803C-31.74841 57.82726-31.74841 10.20491-20.40964-11.90584"/>
<path transform="matrix(1.00002,0,0,-1,30.8443,81.736)" stroke-width=".3985" stroke-linecap="round" stroke-linejoin="round" fill="none" stroke="#000000" d="M111.11981 79.93803C122.45859 57.82726 122.45859 10.20491 111.11981-11.90584"/>
<path transform="matrix(1.00002,0,0,-1,30.8443,81.736)" stroke-width="1.19553" stroke-linecap="round" stroke-linejoin="round" fill="none" stroke="#0000ff" d="M8.54497 61.62042 81.40239 6.98553"/>
<path transform="matrix(.800036,.59993,.599942,-.80002,112.2483,74.75045)" stroke-width=".9564" stroke-linecap="round" stroke-linejoin="round" fill="none" stroke="#0000ff" d="M-1.91284 2.55046C-1.75343 1.59402 0 .15938 .4782 0 0-.15938-1.75343-1.59402-1.91284-2.55046"/>
<path transform="matrix(1.00002,0,0,-1,30.8443,81.736)" stroke-width="1.19553" stroke-linecap="round" stroke-linejoin="round" fill="none" stroke="#0000ff" d="M53.90005 61.62042 126.75748 6.98553"/>
<path transform="matrix(.800036,.59993,.599942,-.80002,157.60431,74.75045)" stroke-width=".9564" stroke-linecap="round" stroke-linejoin="round" fill="none" stroke="#0000ff" d="M-1.91284 2.55046C-1.75343 1.59402 0 .15938 .4782 0 0-.15938-1.75343-1.59402-1.91284-2.55046"/>
<path transform="matrix(1.00002,0,0,-1,30.8443,81.736)" stroke-width="1.19553" stroke-linecap="round" stroke-linejoin="round" fill="none" stroke="#0000ff" d="M99.25514 61.62042 172.11257 6.98553"/>
<path transform="matrix(.800036,.59993,.599942,-.80002,202.9603,74.75045)" stroke-width=".9564" stroke-linecap="round" stroke-linejoin="round" fill="none" stroke="#0000ff" d="M-1.91284 2.55046C-1.75343 1.59402 0 .15938 .4782 0 0-.15938-1.75343-1.59402-1.91284-2.55046"/>
<path transform="matrix(1.00002,0,0,-1,30.8443,81.736)" stroke-width="1.19553" stroke-linecap="round" stroke-linejoin="round" fill="none" stroke="#ff0000" d="M8.54497 6.41176 81.40239 61.04665"/>
<path transform="matrix(.800036,-.59993,-.599942,-.80002,112.2483,20.68937)" stroke-width=".9564" stroke-linecap="round" stroke-linejoin="round" fill="none" stroke="#ff0000" d="M-1.91284 2.55046C-1.75343 1.59402 0 .15938 .4782 0 0-.15938-1.75343-1.59402-1.91284-2.55046"/>
<path transform="matrix(1.00002,0,0,-1,30.8443,81.736)" stroke-width="1.19553" stroke-linecap="round" stroke-linejoin="round" fill="none" stroke="#ff0000" d="M53.90005 6.41176 126.75748 61.04665"/>
<path transform="matrix(.800036,-.59993,-.599942,-.80002,157.60431,20.68937)" stroke-width=".9564" stroke-linecap="round" stroke-linejoin="round" fill="none" stroke="#ff0000" d="M-1.91284 2.55046C-1.75343 1.59402 0 .15938 .4782 0 0-.15938-1.75343-1.59402-1.91284-2.55046"/>
<path transform="matrix(1.00002,0,0,-1,30.8443,81.736)" stroke-width="1.19553" stroke-linecap="round" stroke-linejoin="round" fill="none" stroke="#ff0000" d="M99.25514 6.41176 172.11257 61.04665"/>
<path transform="matrix(.800036,-.59993,-.599942,-.80002,202.9603,20.68937)" stroke-width=".9564" stroke-linecap="round" stroke-linejoin="round" fill="none" stroke="#ff0000" d="M-1.91284 2.55046C-1.75343 1.59402 0 .15938 .4782 0 0-.15938-1.75343-1.59402-1.91284-2.55046"/>
</svg>
