<svg xmlns="http://www.w3.org/2000/svg" xmlns:xlink="http://www.w3.org/1999/xlink" xmlns:inkscape="http://www.inkscape.org/namespaces/inkscape" version="1.1" width="283" height="297" viewBox="0 0 283 297">
<defs>
<path id="font_1_2" d="M.33399964 .30233766C.33999635 .32835389 .36299134 .42037965 .43299867 .42037965 .43798829 .42037965 .46199037 .42037965 .48298646 .40734864 .45498658 .402359 .43499757 .37734986 .43499757 .35334779 .43499757 .33735658 .44599916 .31835938 .47299195 .31835938 .49499513 .31835938 .5269928 .3363495 .5269928 .37635804 .5269928 .42837525 .46798707 .4423828 .43399049 .4423828 .37599183 .4423828 .34098817 .38935853 .32899476 .36634828 .3039856 .43237306 .25 .4423828 .22099304 .4423828 .116989139 .4423828 .05999756 .3133545 .05999756 .28834535 .05999756 .27833558 .069992069 .27833558 .07199097 .27833558 .07998657 .27833558 .08299255 .28033448 .084991458 .28933717 .11898804 .39535523 .18499756 .42037965 .21899414 .42037965 .23799134 .42037965 .272995 .4113617 .272995 .35334779 .272995 .32235719 .2559967 .25532533 .21899414 .11528015 .20298767 .053268434 .16799927 .011245728 .12399292 .011245728 .117996219 .011245728 .09498596 .011245728 .07398987 .024276734 .09899902 .029266358 .12098694 .05027771 .12098694 .07827759 .12098694 .105270389 .09899902 .11328125 .083999637 .11328125 .053985597 .11328125 .0289917 .08728027 .0289917 .055267335 .0289917 .009246826 .07899475-.0107421879 .12298584-.0107421879 .18899536-.0107421879 .22499085 .059280397 .22799683 .0652771 .23999024 .028274537 .27598573-.0107421879 .33599855-.0107421879 .43899537-.0107421879 .49598695 .118270877 .49598695 .14328003 .49598695 .1532898 .4869995 .1532898 .48399354 .1532898 .47499085 .1532898 .47299195 .14929199 .47099305 .14228821 .43798829 .03527832 .36999513 .011245728 .33799745 .011245728 .29899598 .011245728 .2829895 .043273927 .2829895 .07727051 .2829895 .09927368 .2889862 .121276859 .2999878 .16529846L.33399964 .30233766Z"/>
<path id="font_1_3" d="M.48599244 .38136292C.48999024 .39537049 .48999024 .39736939 .48999024 .40437318 .48999024 .42237855 .47599793 .43138124 .46099855 .43138124 .45098878 .43138124 .43499757 .42536927 .42599488 .41036988 .42399598 .405365 .41600038 .37435914 .4119873 .35635377 .40499879 .33035279 .397995 .30334474 .3919983 .27633668L.34700013 .09628296C.34298707 .08126831 .2999878 .011245728 .23399353 .011245728 .18299866 .011245728 .17199707 .055267335 .17199707 .0922699 .17199707 .1382904 .18899536 .20030213 .22299195 .28833009 .23899842 .3293457 .24299622 .3403473 .24299622 .36035157 .24299622 .405365 .21099854 .4423828 .16099549 .4423828 .06599426 .4423828 .0289917 .29733277 .0289917 .28833009 .0289917 .27833558 .038986207 .27833558 .040985109 .27833558 .050994874 .27833558 .051986696 .28033448 .056991579 .29634095 .083999637 .3903656 .12399292 .42037965 .1579895 .42037965 .1659851 .42037965 .18299866 .42037965 .18299866 .3883667 .18299866 .36335755 .17298889 .3373413 .1659851 .31834413 .12599182 .21231079 .10798645 .1552887 .10798645 .10827637 .10798645 .019256592 .17098999-.0107421879 .22999573-.0107421879 .2689972-.0107421879 .30299378 .0062561037 .33099366 .03425598 .31799317-.017745972 .30599977-.06674194 .2659912-.11973572 .23999024-.15385437 .20199585-.18309021 .1559906-.18309021 .14199829-.18309021 .09700012-.18005371 .07998657-.14074707 .09599304-.14074707 .10899353-.14074707 .12298584-.1287384 .1329956-.11973572 .14299011-.10673523 .14299011-.08773804 .14299011-.056747438 .115997318-.052734376 .10598755-.052734376 .08299255-.052734376 .049987794-.068740848 .049987794-.11773682 .049987794-.16796875 .09399414-.20507813 .1559906-.20507813 .25898744-.20507813 .3619995-.11373901 .3899994-.00074768069L.48599244 .38136292Z"/>
<path id="font_2_27" d="M.70199587 0V.0289917C.6369934 .0289917 .61898806 .0289917 .6049957 .06993103L.3869934 .6958618C.3829956 .7078552 .3809967 .7138672 .36698915 .7138672 .35299684 .7138672 .35099793 .7108612 .34599305 .69485476L.13699341 .09689331C.12298584 .05595398 .09498596 .02998352 .0309906 .0289917V0L.1269989 .0019989014C.15499878 .0019989014 .20298767 .0019989014 .22898865 0V.0289917C.18699646 .02998352 .1619873 .050964357 .1619873 .07891846 .1619873 .08491516 .1619873 .08691406 .16699219 .09989929L.21299744 .23271179H.46499635L.519989 .075927738C.5249939 .063949588 .5249939 .061950685 .5249939 .058944704 .5249939 .0289917 .47399903 .0289917 .44898988 .0289917V0C.47200013 .0019989014 .5509949 .0019989014 .57899478 .0019989014 .6069946 .0019989014 .67900088 .0019989014 .70199587 0M.45498658 .26171876H.22299195L.33898927 .5948181 .45498658 .26171876Z"/>
<path id="font_2_96" d="M.35299684 .38339234C.35299684 .4133911 .32598878 .44140626 .2829895 .44140626 .19799805 .44140626 .16899109 .34939576 .16299439 .33039857H.1619873V.44140626L.027999878 .4303589V.4013672C.09599304 .4013672 .10398865 .39434815 .10398865 .3453064V.074035648C.10398865 .0289917 .09298706 .0289917 .027999878 .0289917V0C.055999757 .0019989014 .11099243 .0019989014 .14099121 .0019989014 .16799927 .0019989014 .23899842 .0019989014 .2619934 0V.0289917H.24198914C.16899109 .02973938 .16699219 .040740968 .16699219 .07673645V.23374939C.16699219 .3307495 .20698548 .42173768 .28399659 .42173768 .2919922 .42173768 .2939911 .42173768 .2979889 .42074586 .2899933 .41674806 .27398683 .41073609 .27398683 .3837433 .27398683 .35473634 .29699708 .34375 .31298829 .34375 .33299256 .34375 .35299684 .35673524 .35299684 .3837433V.38339234Z"/>
<path id="font_2_50" d="M.40699769 .11932373C.40699769 .1253357 .4019928 .1293335 .3959961 .1293335 .3880005 .1293335 .38598634 .12432861 .38398744 .11932373 .35798646 .035247804 .29100038 .01222229 .24899292 .01222229 .20698548 .01222229 .10598755 .040252687 .10598755 .21340943V.23242188H.3829956C.40499879 .23242188 .40699769 .23242188 .40699769 .25141908 .40699769 .3523407 .35299684 .44628907 .23199463 .44628907 .117996219 .44628907 .02999878 .34335328 .02999878 .21940613 .02999878 .08729553 .13198853-.009765625 .24299622-.009765625 .3619995-.009765625 .40699769 .09829712 .40699769 .11932373M.34498597 .25141908H.10699463C.114990238 .40830995 .20298767 .42630006 .23098755 .42630006 .33799745 .42630006 .34399415 .28538514 .34498597 .25141908Z"/>
<path id="font_2_28" d="M.47399903 .08912659V.14515686H.45199586V.08912659C.45199586 .03211975 .42799378 .024108887 .4139862 .024108887 .37599183 .024108887 .37599183 .07713318 .37599183 .09213257V.26719667C.37599183 .3211975 .37599183 .36120606 .33198548 .40023805 .29699708 .43226625 .2519989 .44628907 .20799256 .44628907 .12599182 .44628907 .06298828 .39222718 .06298828 .32720948 .06298828 .2982025 .08198547 .2842102 .10499573 .2842102 .1289978 .2842102 .1459961 .3012085 .1459961 .32521058 .1459961 .36621095 .10998535 .36621095 .09498596 .36621095 .117996219 .4082489 .1659851 .42625428 .20599365 .42625428 .2519989 .42625428 .31098939 .38822938 .31098939 .2982025V.25819398C.10998535 .255188 .033996583 .17115784 .033996583 .09413147 .033996583 .0152282719 .12599182-.009765625 .18699646-.009765625 .25299073-.009765625 .2979889 .030227662 .31698609 .07823181 .32099916 .03111267 .35198976-.0048828127 .394989-.0048828127 .41600038-.0048828127 .47399903 .009109497 .47399903 .089141849V.08912659M.31098939 .14117432C.31098939 .043121339 .23799134 .010116577 .19499207 .010116577 .1459961 .010116577 .10499573 .04612732 .10499573 .09414673 .10499573 .22621155 .2749939 .23822022 .31098939 .24023438V.14117432Z"/>
<path id="font_3_2" d="M.6749878 .32421876C.68899539 .32421876 .70700076 .32421876 .70700076 .34220887 .70700076 .36120606 .6899872 .36120606 .6749878 .36120606H.085998538C.07199097 .36120606 .053985597 .36120606 .053985597 .34321595 .053985597 .32421876 .070999149 .32421876 .085998538 .32421876H.6749878M.6749878 .13780213C.68899539 .13780213 .70700076 .13780213 .70700076 .15579224 .70700076 .17480469 .6899872 .17480469 .6749878 .17480469H.085998538C.07199097 .17480469 .053985597 .17480469 .053985597 .15679932 .053985597 .13780213 .070999149 .13780213 .085998538 .13780213H.6749878Z"/>
<path id="font_4_1" d="M.45700074 .3743744C.45700074 .4373932 .4249878 .44140626 .4169922 .44140626 .3929901 .44140626 .37098695 .41740418 .37098695 .39738465 .37098695 .38539125 .37799073 .37838746 .38198854 .3743744 .3919983 .3653717 .41799928 .33836366 .41799928 .28634645 .41799928 .24432373 .35798646 .010223389 .23799134 .010223389 .1769867 .010223389 .16499329 .06124878 .16499329 .0982666 .16499329 .14828491 .18798828 .2183075 .21499634 .29034425 .23098755 .33135987 .23498535 .34136964 .23498535 .3613739 .23498535 .4033966 .20498657 .44140626 .1559906 .44140626 .06399536 .44140626 .026992798 .29634095 .026992798 .28834535 .026992798 .28434754 .0309906 .27934266 .037994386 .27934266 .04699707 .27934266 .04798889 .28334046 .051986696 .29734803 .07598877 .38337709 .114990238 .42140199 .15299988 .42140199 .1619873 .42140199 .1789856 .42140199 .1789856 .38838197 .1789856 .36238099 .16799927 .33335877 .15299988 .29534913 .10499573 .16729737 .10499573 .13627625 .10499573 .11227417 .10499573 .09025574 .10798645 .049240114 .13899231 .021224976 .1749878-.009765625 .22499085-.009765625 .23399353-.009765625 .3999939-.009765625 .45700074 .3173523 .45700074 .3743744Z"/>
<path id="font_5_2" d="M.28199769 .20405579C.2979889 .21907044 .33999635 .2520752 .35598756 .26608277 .41799928 .32312013 .47698976 .3781433 .47698976 .46917726 .47698976 .588089 .3769989 .66503909 .2519989 .66503909 .13198853 .66503909 .052993776 .57411196 .052993776 .48516847 .052993776 .4361725 .09199524 .4291687 .10598755 .4291687 .1269989 .4291687 .1579895 .4441681 .1579895 .48217774 .1579895 .5341797 .10798645 .5341797 .09599304 .5341797 .125 .6070709 .19198609 .6320343 .24099732 .6320343 .33399964 .6320343 .38198854 .55314639 .38198854 .46917726 .38198854 .36514283 .30899049 .28910829 .19099427 .16804505L.06498718 .037994386C.052993776 .026992798 .052993776 .024993897 .052993776 0H.44799806L.47698976 .17904663H.44599916C.44299317 .1590271 .43499757 .10900879 .4229889 .08999634 .4169922 .08198547 .34098817 .08198547 .32499696 .08198547H.14698792L.28199769 .20405579Z"/>
<path id="font_5_1" d="M.31399537 .63708499C.31399537 .664032 .31199647 .66503909 .2849884 .66503909 .24398804 .6251831 .19099427 .6013489 .09599304 .6013489V.5683594C.12298584 .5683594 .1769867 .5683594 .23498535 .5953522V.08203125C.23498535 .04499817 .23199463 .032989503 .13699341 .032989503H.101989749V0C.14299011 .0029907227 .22898865 .0029907227 .27398683 .0029907227 .31900025 .0029907227 .4059906 .0029907227 .44699098 0V.032989503H.4119873C.31698609 .032989503 .31399537 .04499817 .31399537 .08203125V.63708499Z"/>
<path id="font_6_1" d="M.17199707 .71598818C.17199707 .7319946 .17199707 .75 .1519928 .75 .13198853 .75 .13198853 .7279968 .13198853 .71299746V-.2130127C.13198853-.2290039 .13198853-.25 .1519928-.25 .17199707-.25 .17199707-.23200989 .17199707-.21600342V.71598818M.36698915 .71299746C.36698915 .72898867 .36698915 .75 .34700013 .75 .32699586 .75 .32699586 .7319946 .32699586 .71598818V-.21600342C.32699586-.23200989 .32699586-.25 .34700013-.25 .36698915-.25 .36698915-.22801209 .36698915-.2130127V.71299746Z"/>
<path id="font_7_1" d="M.49499513 .37831117C.5019989 .3933258 .5059967 .4013214 .56900027 .4013214V.44433595C.5329895 .44232179 .5309906 .44232179 .48999024 .44232179 .46299745 .44232179 .46099855 .44232179 .4039917 .44433595V.4013214C.43099977 .4013214 .45298768 .3963318 .45298768 .389328 .45298768 .38832093 .45298768 .38731385 .44799806 .37731935L.33099366 .120162967 .20199585 .4013214H.25698854V.44433595C.23399353 .44232179 .1639862 .44232179 .13699341 .44232179 .10798645 .44232179 .049987794 .44232179 .023986817 .44433595V.4013214H.08699036L.2630005 .019104004C.27198792 .00010681152 .27398683-.0048828127 .29699708-.0048828127 .31298829-.0048828127 .32099916-.0028839112 .32998658 .017105103L.49499513 .37831117Z"/>
<path id="font_3_1" d="M.39898683 .23057556H.6749878C.68899539 .23057556 .70700076 .23057556 .70700076 .24856568 .70700076 .26757813 .6899872 .26757813 .6749878 .26757813H.39898683V.5441437C.39898683 .5581665 .39898683 .5761719 .3809967 .5761719 .3619995 .5761719 .3619995 .5591583 .3619995 .5441437V.26757813H.085998538C.07199097 .26757813 .053985597 .26757813 .053985597 .24957276 .053985597 .23057556 .070999149 .23057556 .085998538 .23057556H.3619995V-.045166017C.3619995-.059158327 .3619995-.07714844 .37998963-.07714844 .39898683-.07714844 .39898683-.060150148 .39898683-.045166017V.23057556Z"/>
<path id="font_1_1" d="M.46798707 .37236024C.46798707 .42637635 .44198609 .4423828 .42399598 .4423828 .39898683 .4423828 .375 .41636659 .375 .3943634 .375 .38136292 .37998963 .3753662 .3909912 .36434938 .4119873 .3443451 .4249878 .31834413 .4249878 .28233338 .4249878 .24032593 .3639984 .011245728 .24699402 .011245728 .19599915 .011245728 .17298889 .04626465 .17298889 .09828186 .17298889 .15429688 .19999695 .22731018 .23098755 .31033326 .23799134 .3273468 .24299622 .34135438 .24299622 .36035157 .24299622 .405365 .21099854 .4423828 .16099549 .4423828 .066986087 .4423828 .0289917 .29733277 .0289917 .28833009 .0289917 .27833558 .038986207 .27833558 .040985109 .27833558 .050994874 .27833558 .051986696 .28033448 .056991579 .29634095 .085998538 .39736939 .1289978 .42037965 .1579895 .42037965 .1659851 .42037965 .18299866 .42037965 .18299866 .3883667 .18299866 .36335755 .17298889 .3363495 .1659851 .31834413 .12199402 .20230103 .10899353 .15629578 .10899353 .11328125 .10899353 .0052490236 .19699097-.0107421879 .24299622-.0107421879 .41099549-.0107421879 .46798707 .32034303 .46798707 .37236024Z"/>
<path id="font_8_1" d="M.33499146 .63612368C.33499146 .6630554 .33299256 .6640625 .30499269 .6640625 .24099732 .6014404 .1499939 .6004486 .10899353 .6004486V.5644531C.1329956 .5644531 .19898987 .5644531 .2539978 .592453V.08203125C.2539978 .04899597 .2539978 .035995485 .1539917 .035995485H.115997318V0C.13398743 .0009918213 .25698854 .0039978029 .2939911 .0039978029 .32499696 .0039978029 .45098878 .0009918213 .47299195 0V.035995485H.43499757C.33499146 .035995485 .33499146 .04899597 .33499146 .08203125V.63612368Z"/>
<path id="font_8_2" d="M.5049896 .18203736H.47099305C.46798707 .16001892 .45799256 .100997928 .44499208 .09098816 .43699647 .084991458 .3600006 .084991458 .34599305 .084991458H.1619873C.2669983 .17803955 .3019867 .20603943 .3619995 .25306703 .43598939 .312088 .5049896 .374115 .5049896 .46914674 .5049896 .5900879 .39898683 .6640625 .2709961 .6640625 .14698792 .6640625 .06298828 .57710269 .06298828 .4851532 .06298828 .43414308 .10598755 .42915345 .115997318 .42915345 .13999939 .42915345 .16899109 .44615174 .16899109 .48214723 .16899109 .5001526 .1619873 .53515627 .10998535 .53515627 .14099121 .6060791 .20899964 .62805178 .2559967 .62805178 .35598756 .62805178 .4079895 .5501404 .4079895 .46914674 .4079895 .38212586 .34599305 .3130951 .31399537 .27708436L.07299805 .038986207C.06298828 .02999878 .06298828 .027999878 .06298828 0H.47499085L.5049896 .18203736Z"/>
<path id="font_9_1" d="M.5059967 .37631227C.5119934 .39031983 .5159912 .3973236 .5799866 .3973236V.44433595C.5549927 .44232179 .526001 .44132997 .5009918 .44132997 .47599793 .44132997 .43099977 .44332887 .4099884 .44433595V.3973236C.42900086 .3973236 .45799256 .3943329 .45799256 .38632203 .45799256 .3853302 .45700074 .38331605 .45298768 .37431336L.33699037 .12416077 .20999146 .3973236H.2639923V.44433595C.23098755 .44232179 .14099121 .44132997 .13999939 .44132997 .11199951 .44132997 .066986087 .44332887 .025985718 .44433595V.3973236H.08999634L.2649994 .021087647C.2769928-.00390625 .2899933-.00390625 .30299378-.00390625 .31999208-.00390625 .32998658-.00091552737 .33999635 .020080567L.5059967 .37631227Z"/>
<path id="font_10_2" d="M.68699648 .32714845C.70199587 .32714845 .72099307 .32714845 .72099307 .34713746 .72099307 .36714173 .70199587 .36714173 .6879883 .36714173H.08898926C.07499695 .36714173 .055999757 .36714173 .055999757 .34713746 .055999757 .32714845 .07499695 .32714845 .08999634 .32714845H.68699648M.6879883 .13284302C.70199587 .13284302 .72099307 .13284302 .72099307 .15284729 .72099307 .17285156 .70199587 .17285156 .68699648 .17285156H.08999634C.07499695 .17285156 .055999757 .17285156 .055999757 .15284729 .055999757 .13284302 .07499695 .13284302 .08898926 .13284302H.6879883Z"/>
<path id="font_11_3" d="M.42399598-1.1601563C.45498658-1.1601563 .45599366-1.1591644 .46598817-1.1401672L1.0130005 .002029419C1.019989 .015029907 1.019989 .017028809 1.019989 .02003479 1.019989 .031036377 1.0119934 .040039064 1 .040039064 .9869995 .040039064 .9830017 .031036377 .9779968 .02003479L.46199037-1.0561524 .24899292-.56007388 .10998535-.66708377 .125-.6830902 .19599915-.6290741 .42399598-1.1601563Z"/>
<path id="font_10_1" d="M.40899659 .23046875H.6879883C.70199587 .23046875 .72099307 .23046875 .72099307 .25045777 .72099307 .27046205 .70199587 .27046205 .6879883 .27046205H.40899659V.5500183C.40899659 .56399539 .40899659 .5830078 .3889923 .5830078 .36898805 .5830078 .36898805 .56399539 .36898805 .5500183V.27046205H.08898926C.07499695 .27046205 .055999757 .27046205 .055999757 .25045777 .055999757 .23046875 .07499695 .23046875 .08898926 .23046875H.36898805V-.05000305C.36898805-.06401062 .36898805-.08300781 .3889923-.08300781 .40899659-.08300781 .40899659-.06401062 .40899659-.05000305V.23046875Z"/>
<path id="font_11_1" d="M.69999697-2.3488923C.69999697-2.3448945 .69799807-2.3428956 .69599917-2.3399049 .6589966-2.3029023 .59199526-2.2359009 .5249939-2.1278992 .3639984-1.8699188 .29100038-1.5449219 .29100038-1.1599274 .29100038-.89094546 .32699586-.5439453 .49198915-.24595642 .57099917-.10395813 .6529999-.021957398 .69699099 .022033692 .69999697 .025024414 .69999697 .027038575 .69999697 .030029297 .69999697 .040039064 .69299319 .040039064 .67900088 .040039064 .6649933 .040039064 .6629944 .040039064 .647995 .025024414 .31298829-.279953 .20799256-.73794558 .20799256-1.1589356 .20799256-1.5519257 .2979889-1.9479065 .5519867-2.2469025 .57199099-2.2698975 .6100006-2.3108979 .651001-2.3468934 .6629944-2.358902 .6649933-2.358902 .67900088-2.358902 .69299319-2.358902 .69999697-2.358902 .69999697-2.3488923Z"/>
<path id="font_11_2" d="M.5269928-1.1599274C.5269928-.76693728 .43699647-.37095643 .18299866-.07196045 .16299439-.048965455 .125-.007965088 .083999637 .028030396 .07199097 .040039064 .069992069 .040039064 .055999757 .040039064 .04399109 .040039064 .034988405 .040039064 .034988405 .030029297 .034988405 .026031495 .038986207 .022033692 .040985109 .02003479 .07598877-.015960694 .14299011-.082962039 .20999146-.19096375 .37098695-.4489441 .44400025-.77394106 .44400025-1.1589356 .44400025-1.4279175 .4079895-1.7749176 .24299622-2.0729066 .1639862-2.2149049 .08099365-2.2978974 .038986207-2.3399049 .036987306-2.3428956 .034988405-2.3459016 .034988405-2.3488923 .034988405-2.358902 .04399109-2.358902 .055999757-2.358902 .069992069-2.358902 .07199097-2.358902 .08699036-2.3439027 .42199708-2.03891 .5269928-1.5809174 .5269928-1.1599274Z"/>
</defs>
<path transform="matrix(1.00002,0,0,-1,91.80647,193.085)" stroke-width=".3985" stroke-linecap="butt" stroke-miterlimit="10" stroke-linejoin="miter" fill="none" stroke="#bfbfbf" d="M-90.71013 0H180.96199"/>
<path transform="matrix(1.00002,0,0,-1,272.7721,193.085)" stroke-width=".31879" stroke-linecap="round" stroke-linejoin="round" fill="none" stroke="#bfbfbf" d="M-1.19551 1.59401C-1.09587 .99626 0 .09961 .29886 0 0-.09961-1.09587-.99626-1.19551-1.59401"/>
<use data-text="x" xlink:href="#font_1_2" transform="matrix(9.962799,0,0,-9.9626,276.75019,195.23001)" fill="#bfbfbf"/>
<path transform="matrix(1.00002,0,0,-1,91.80647,193.085)" stroke-width=".3985" stroke-linecap="butt" stroke-miterlimit="10" stroke-linejoin="miter" fill="none" stroke="#bfbfbf" d="M0-102.04889V180.96199"/>
<path transform="matrix(0,-1,-1.00002,-0,91.80647,12.123016)" stroke-width=".31879" stroke-linecap="round" stroke-linejoin="round" fill="none" stroke="#bfbfbf" d="M-1.19551 1.59401C-1.09587 .99626 0 .09961 .29886 0 0-.09961-1.09587-.99626-1.19551-1.59401"/>
<use data-text="y" xlink:href="#font_1_3" transform="matrix(9.962799,0,0,-9.9626,89.18542,6.208008)" fill="#bfbfbf"/>
<path transform="matrix(1.00002,0,0,-1,91.80647,193.085)" d="M0 0H90.71013V-90.71013H0Z" fill="#e6e6ff"/>
<path transform="matrix(1.00002,0,0,-1,91.80647,193.085)" stroke-width=".79701" stroke-linecap="butt" stroke-miterlimit="10" stroke-linejoin="miter" fill="none" stroke="#0000ff" d="M0 0H90.71013V-90.71013H0Z"/>
<use data-text="A" xlink:href="#font_2_27" transform="matrix(11.95544,0,0,-11.9552,111.39587,241.70001)" fill="#0000ff"/>
<use data-text="r" xlink:href="#font_2_96" transform="matrix(11.95544,0,0,-11.9552,120.171169,241.70001)" fill="#0000ff"/>
<use data-text="e" xlink:href="#font_2_50" transform="matrix(11.95544,0,0,-11.9552,124.72619,241.70001)" fill="#0000ff"/>
<use data-text="a" xlink:href="#font_2_28" transform="matrix(11.95544,0,0,-11.9552,129.92679,241.70001)" fill="#0000ff"/>
<use data-text="=" xlink:href="#font_3_2" transform="matrix(11.95544,0,0,-11.9552,139.68244,241.70001)" fill="#0000ff"/>
<use data-text="v" xlink:href="#font_4_1" transform="matrix(11.95544,0,0,-11.9552,152.1077,241.70001)" fill="#0000ff"/>
<use data-text="2" xlink:href="#font_5_2" transform="matrix(7.9702599,0,0,-7.9701,158.1958,237.36101)" fill="#0000ff"/>
<use data-text="1" xlink:href="#font_5_1" transform="matrix(7.9702599,0,0,-7.9701,157.76779,244.65502)" fill="#0000ff"/>
<path transform="matrix(1.00002,0,0,-1,91.80647,193.085)" d="M90.71013 0V68.0326H158.74274V0Z" fill="#ffe6e6"/>
<path transform="matrix(1.00002,0,0,-1,91.80647,193.085)" stroke-width=".79701" stroke-linecap="butt" stroke-miterlimit="10" stroke-linejoin="miter" fill="none" stroke="#ff0000" d="M90.71013 0V68.0326H158.74274V0Z"/>
<use data-text="A" xlink:href="#font_2_27" transform="matrix(11.95544,0,0,-11.9552,190.76847,162.328)" fill="#ff0000"/>
<use data-text="r" xlink:href="#font_2_96" transform="matrix(11.95544,0,0,-11.9552,199.54376,162.328)" fill="#ff0000"/>
<use data-text="e" xlink:href="#font_2_50" transform="matrix(11.95544,0,0,-11.9552,204.09879,162.328)" fill="#ff0000"/>
<use data-text="a" xlink:href="#font_2_28" transform="matrix(11.95544,0,0,-11.9552,209.29938,162.328)" fill="#ff0000"/>
<use data-text="=" xlink:href="#font_3_2" transform="matrix(11.95544,0,0,-11.9552,219.05503,162.328)" fill="#ff0000"/>
<use data-text="v" xlink:href="#font_4_1" transform="matrix(11.95544,0,0,-11.9552,231.48029,162.328)" fill="#ff0000"/>
<use data-text="2" xlink:href="#font_5_2" transform="matrix(7.9702599,0,0,-7.9701,237.56839,157.989)" fill="#ff0000"/>
<use data-text="2" xlink:href="#font_5_2" transform="matrix(7.9702599,0,0,-7.9701,237.14038,165.283)" fill="#ff0000"/>
<path transform="matrix(1.00002,0,0,-1,91.80647,193.085)" d="M0 0 90.71013 68.0326 22.67752 158.74274-68.0326 90.71013Z" fill="#ececec"/>
<path transform="matrix(1.00002,0,0,-1,91.80647,193.085)" stroke-width=".79701" stroke-linecap="butt" stroke-miterlimit="10" stroke-linejoin="miter" fill="none" stroke="#000000" d="M0 0 90.71013 68.0326 22.67752 158.74274-68.0326 90.71013Z"/>
<use data-text="A" xlink:href="#font_2_27" transform="matrix(11.95544,0,0,-11.9552,70.80205,109.99899)"/>
<use data-text="r" xlink:href="#font_2_96" transform="matrix(11.95544,0,0,-11.9552,79.57735,109.99899)"/>
<use data-text="e" xlink:href="#font_2_50" transform="matrix(11.95544,0,0,-11.9552,84.13237,109.99899)"/>
<use data-text="a" xlink:href="#font_2_28" transform="matrix(11.95544,0,0,-11.9552,89.33298,109.99899)"/>
<use data-text="=" xlink:href="#font_3_2" transform="matrix(11.95544,0,0,-11.9552,99.08861,109.99899)"/>
<use data-text="&#x2225;" xlink:href="#font_6_1" transform="matrix(11.95544,0,0,-11.9552,111.51387,109.99899)"/>
<use data-text="v" xlink:href="#font_7_1" transform="matrix(11.95544,0,0,-11.9552,117.491977,109.99899)"/>
<use data-text="&#x2225;" xlink:href="#font_6_1" transform="matrix(11.95544,0,0,-11.9552,124.77713,109.99899)"/>
<use data-text="2" xlink:href="#font_5_2" transform="matrix(7.9702599,0,0,-7.9701,130.75525,105.660999)"/>
<use data-text="=" xlink:href="#font_3_2" transform="matrix(11.95544,0,0,-11.9552,78.90221,123.94699)"/>
<use data-text="v" xlink:href="#font_4_1" transform="matrix(11.95544,0,0,-11.9552,91.32745,123.94699)"/>
<use data-text="2" xlink:href="#font_5_2" transform="matrix(7.9702599,0,0,-7.9701,97.41557,119.60799)"/>
<use data-text="1" xlink:href="#font_5_1" transform="matrix(7.9702599,0,0,-7.9701,96.98656,126.90199)"/>
<use data-text="+" xlink:href="#font_3_1" transform="matrix(11.95544,0,0,-11.9552,104.80472,123.94699)"/>
<use data-text="v" xlink:href="#font_4_1" transform="matrix(11.95544,0,0,-11.9552,116.56694,123.94699)"/>
<use data-text="2" xlink:href="#font_5_2" transform="matrix(7.9702599,0,0,-7.9701,122.65506,119.60799)"/>
<use data-text="2" xlink:href="#font_5_2" transform="matrix(7.9702599,0,0,-7.9701,122.22606,126.90199)"/>
<path transform="matrix(1.00002,0,0,-1,91.80647,193.085)" stroke-width=".79701" stroke-linecap="butt" stroke-miterlimit="10" stroke-linejoin="miter" fill="none" stroke="#000000" d="M81.63924 0V9.07086H90.71013"/>
<path transform="matrix(1.00002,0,0,-1,91.80647,193.085)" stroke-width="1.59404" stroke-linecap="butt" stroke-miterlimit="10" stroke-linejoin="miter" fill="none" stroke="#0000ff" d="M0 0H90.71013"/>
<path transform="matrix(1.00002,0,0,-1,91.80647,193.085)" d="M39.70947 .79701H51.00061V8.57345H39.70947Z" fill="#ffffff"/>
<use data-text="v" xlink:href="#font_1_1" transform="matrix(9.962799,0,0,-9.9626,132.51329,189.79701)" fill="#0000ff"/>
<use data-text="1" xlink:href="#font_8_1" transform="matrix(6.97394,0,0,-6.9738,137.34238,191.29102)" fill="#0000ff"/>
<path transform="matrix(1.00002,0,0,-1,91.80647,193.085)" stroke-width="1.59404" stroke-linecap="butt" stroke-miterlimit="10" stroke-linejoin="miter" fill="none" stroke="#ff0000" d="M90.71013 0V68.0326"/>
<path transform="matrix(1.00002,0,0,-1,91.80647,193.085)" d="M78.62195 30.12805H89.913089V37.90449H78.62195Z" fill="#ffffff"/>
<use data-text="v" xlink:href="#font_1_1" transform="matrix(9.962799,0,0,-9.9626,171.42606,160.466)" fill="#ff0000"/>
<use data-text="2" xlink:href="#font_8_2" transform="matrix(6.97394,0,0,-6.9738,176.25516,161.96)" fill="#ff0000"/>
<path transform="matrix(1.00002,0,0,-1,91.80647,193.085)" stroke-width="1.59404" stroke-linecap="butt" stroke-miterlimit="10" stroke-linejoin="miter" fill="none" stroke="#000000" d="M0 0 89.74576 67.30931"/>
<path transform="matrix(.799986,-.59999,-.60000208,-.79997,181.55403,125.775699)" stroke-width="1.27522" stroke-linecap="round" stroke-linejoin="round" fill="none" stroke="#000000" d="M-2.27148 3.02866C-2.0822 1.8929 0 .18927 .56786 0 0-.18927-2.0822-1.8929-2.27148-3.02866"/>
<use data-text="&#x2225;" xlink:href="#font_6_1" transform="matrix(9.962799,0,0,-9.9626,63.467905,153.384)"/>
<use data-text="v" xlink:href="#font_9_1" transform="matrix(9.962799,0,0,-9.9626,68.44901,153.384)"/>
<use data-text="&#x2225;" xlink:href="#font_6_1" transform="matrix(9.962799,0,0,-9.9626,74.65513,153.384)"/>
<use data-text="=" xlink:href="#font_10_2" transform="matrix(9.962799,0,0,-9.9626,82.404277,153.384)"/>
<use data-text="&#x221a;" xlink:href="#font_11_3" transform="matrix(9.962799,0,0,-9.9626,92.920497,144.722)"/>
<path transform="matrix(1.00002,0,0,-1,-110.34057,-26.701)" stroke-width=".3985" stroke-linecap="butt" stroke-miterlimit="10" stroke-linejoin="miter" fill="none" stroke="#000000" d="M213.219-171.224H244.708"/>
<use data-text="v" xlink:href="#font_1_1" transform="matrix(9.962799,0,0,-9.9626,102.8827,153.384)"/>
<use data-text="2" xlink:href="#font_8_2" transform="matrix(6.97394,0,0,-6.9738,108.0698,149.952)"/>
<use data-text="1" xlink:href="#font_8_1" transform="matrix(6.97394,0,0,-6.9738,107.71279,156.04)"/>
<use data-text="+" xlink:href="#font_10_1" transform="matrix(9.962799,0,0,-9.9626,114.75292,153.38399)"/>
<use data-text="v" xlink:href="#font_1_1" transform="matrix(9.962799,0,0,-9.9626,124.71613,153.38399)"/>
<use data-text="2" xlink:href="#font_8_2" transform="matrix(6.97394,0,0,-6.9738,129.90222,149.95198)"/>
<use data-text="2" xlink:href="#font_8_2" transform="matrix(6.97394,0,0,-6.9738,129.54523,156.03998)"/>
<path transform="matrix(1.00002,0,0,-1,91.80647,193.085)" d="M92.30417 68.0326C92.30417 68.91296 91.5905 69.62663 90.71013 69.62663 89.82974 69.62663 89.11607 68.91296 89.11607 68.0326 89.11607 67.1522 89.82974 66.43854 90.71013 66.43854 91.5905 66.43854 92.30417 67.1522 92.30417 68.0326ZM90.71013 68.0326"/>
<path transform="matrix(1.00002,0,0,-1,91.80647,193.085)" stroke-width=".3985" stroke-linecap="butt" stroke-miterlimit="10" stroke-linejoin="miter" fill="none" stroke="#000000" d="M92.30417 68.0326C92.30417 68.91296 91.5905 69.62663 90.71013 69.62663 89.82974 69.62663 89.11607 68.91296 89.11607 68.0326 89.11607 67.1522 89.82974 66.43854 90.71013 66.43854 91.5905 66.43854 92.30417 67.1522 92.30417 68.0326ZM90.71013 68.0326"/>
<use data-text="v" xlink:href="#font_9_1" transform="matrix(9.962799,0,0,-9.9626,186.03836,112.06801)"/>
<use data-text="=" xlink:href="#font_10_2" transform="matrix(9.962799,0,0,-9.9626,195.01154,112.06801)"/>
<use data-text="(" xlink:href="#font_11_1" transform="matrix(9.962799,0,0,-9.9626,205.52776,98.020008)"/>
<use data-text="v" xlink:href="#font_1_1" transform="matrix(9.962799,0,0,-9.9626,212.8619,105.991)"/>
<use data-text="1" xlink:href="#font_8_1" transform="matrix(6.97394,0,0,-6.9738,217.691,107.485)"/>
<use data-text="v" xlink:href="#font_1_1" transform="matrix(9.962799,0,0,-9.9626,212.8619,117.946)"/>
<use data-text="2" xlink:href="#font_8_2" transform="matrix(6.97394,0,0,-6.9738,217.691,119.44)"/>
<use data-text=")" xlink:href="#font_11_2" transform="matrix(9.962799,0,0,-9.9626,222.16008,98.020008)"/>
</svg>
