<svg xmlns="http://www.w3.org/2000/svg" xmlns:xlink="http://www.w3.org/1999/xlink" xmlns:inkscape="http://www.inkscape.org/namespaces/inkscape" version="1.1" width="430" height="185" viewBox="0 0 430 185">
<defs>
<path id="font_1_1" d="M.33399964 .30233766C.33999635 .32835389 .36299134 .42037965 .43299867 .42037965 .43798829 .42037965 .46199037 .42037965 .48298646 .40734864 .45498658 .402359 .43499757 .37734986 .43499757 .35334779 .43499757 .33735658 .44599916 .31835938 .47299195 .31835938 .49499513 .31835938 .5269928 .3363495 .5269928 .37635804 .5269928 .42837525 .46798707 .4423828 .43399049 .4423828 .37599183 .4423828 .34098817 .38935853 .32899476 .36634828 .3039856 .43237306 .25 .4423828 .22099304 .4423828 .116989139 .4423828 .05999756 .3133545 .05999756 .28834535 .05999756 .27833558 .069992069 .27833558 .07199097 .27833558 .07998657 .27833558 .08299255 .28033448 .084991458 .28933717 .11898804 .39535523 .18499756 .42037965 .21899414 .42037965 .23799134 .42037965 .272995 .4113617 .272995 .35334779 .272995 .32235719 .2559967 .25532533 .21899414 .11528015 .20298767 .053268434 .16799927 .011245728 .12399292 .011245728 .117996219 .011245728 .09498596 .011245728 .07398987 .024276734 .09899902 .029266358 .12098694 .05027771 .12098694 .07827759 .12098694 .105270389 .09899902 .11328125 .083999637 .11328125 .053985597 .11328125 .0289917 .08728027 .0289917 .055267335 .0289917 .009246826 .07899475-.0107421879 .12298584-.0107421879 .18899536-.0107421879 .22499085 .059280397 .22799683 .0652771 .23999024 .028274537 .27598573-.0107421879 .33599855-.0107421879 .43899537-.0107421879 .49598695 .118270877 .49598695 .14328003 .49598695 .1532898 .4869995 .1532898 .48399354 .1532898 .47499085 .1532898 .47299195 .14929199 .47099305 .14228821 .43798829 .03527832 .36999513 .011245728 .33799745 .011245728 .29899598 .011245728 .2829895 .043273927 .2829895 .07727051 .2829895 .09927368 .2889862 .121276859 .2999878 .16529846L.33399964 .30233766Z"/>
<path id="font_2_1" d="M.33499146 .63612368C.33499146 .6630554 .33299256 .6640625 .30499269 .6640625 .24099732 .6014404 .1499939 .6004486 .10899353 .6004486V.5644531C.1329956 .5644531 .19898987 .5644531 .2539978 .592453V.08203125C.2539978 .04899597 .2539978 .035995485 .1539917 .035995485H.115997318V0C.13398743 .0009918213 .25698854 .0039978029 .2939911 .0039978029 .32499696 .0039978029 .45098878 .0009918213 .47299195 0V.035995485H.43499757C.33499146 .035995485 .33499146 .04899597 .33499146 .08203125V.63612368Z"/>
<path id="font_2_2" d="M.5049896 .18203736H.47099305C.46798707 .16001892 .45799256 .100997928 .44499208 .09098816 .43699647 .084991458 .3600006 .084991458 .34599305 .084991458H.1619873C.2669983 .17803955 .3019867 .20603943 .3619995 .25306703 .43598939 .312088 .5049896 .374115 .5049896 .46914674 .5049896 .5900879 .39898683 .6640625 .2709961 .6640625 .14698792 .6640625 .06298828 .57710269 .06298828 .4851532 .06298828 .43414308 .10598755 .42915345 .115997318 .42915345 .13999939 .42915345 .16899109 .44615174 .16899109 .48214723 .16899109 .5001526 .1619873 .53515627 .10998535 .53515627 .14099121 .6060791 .20899964 .62805178 .2559967 .62805178 .35598756 .62805178 .4079895 .5501404 .4079895 .46914674 .4079895 .38212586 .34599305 .3130951 .31399537 .27708436L.07299805 .038986207C.06298828 .02999878 .06298828 .027999878 .06298828 0H.47499085L.5049896 .18203736Z"/>
<path id="font_2_3" d="M.272995 .33428956C.35099793 .33428956 .40699769 .2803192 .40699769 .1733551 .40699769 .04940796 .33499146 .012466431 .2769928 .012466431 .23699951 .012466431 .14898682 .0234375 .10699463 .082351688 .1539917 .084350589 .16499329 .11735535 .16499329 .13835144 .16499329 .17034912 .14099121 .19335938 .10998535 .19335938 .08198547 .19335938 .053985597 .17634583 .053985597 .13534546 .053985597 .041412355 .1579895-.01953125 .2789917-.01953125 .41799928-.01953125 .5139923 .07336426 .5139923 .1733551 .5139923 .2513275 .44999696 .32929994 .33999635 .35229493 .44499208 .39024354 .48298646 .4650879 .48298646 .5260773 .48298646 .60505679 .3919983 .6640625 .2809906 .6640625 .16999817 .6640625 .084991458 .61006167 .084991458 .5300751 .084991458 .49606324 .10699463 .47706605 .13699341 .47706605 .16799927 .47706605 .18798828 .5000763 .18798828 .5280762 .18798828 .5570679 .16799927 .57806399 .13699341 .5800781 .17199707 .62405398 .24099732 .63505557 .27799989 .63505557 .32299806 .63505557 .38598634 .6130676 .38598634 .5260773 .38598634 .48406983 .37199403 .43814088 .34599305 .4072113 .31298829 .36927796 .2849884 .3672943 .23498535 .36428834 .20999146 .3623047 .20799256 .3623047 .20298767 .3612976 .20098877 .3612976 .19299317 .3592987 .19299317 .34829713 .19299317 .33428956 .20199585 .33428956 .21899414 .33428956H.272995Z"/>
<path id="font_3_1" d="M.43798829 .072143558V-.005859375L.61499026 .0001373291V.0471344C.5529938 .0471344 .54599 .0471344 .54599 .086135867V.4501953L.36299134 .44218446V.39518739C.4249878 .39518739 .43199159 .39518739 .43199159 .3561859V.16514588C.43199159 .08314514 .3809967 .030136109 .30799867 .030136109 .23098755 .030136109 .22799683 .055130006 .22799683 .10914612V.4501953L.04499817 .44218446V.39518739C.10699463 .39518739 .11399841 .39518739 .11399841 .3561859V.12315369C.11399841 .01612854 .19499207-.005859375 .2939911-.005859375 .31999208-.005859375 .3919983-.005859375 .43798829 .072143558Z"/>
<path id="font_3_2" d="M.5059967 .37631227C.5119934 .39031983 .5159912 .3973236 .5799866 .3973236V.44433595C.5549927 .44232179 .526001 .44132997 .5009918 .44132997 .47599793 .44132997 .43099977 .44332887 .4099884 .44433595V.3973236C.42900086 .3973236 .45799256 .3943329 .45799256 .38632203 .45799256 .3853302 .45700074 .38331605 .45298768 .37431336L.33699037 .12416077 .20999146 .3973236H.2639923V.44433595C.23098755 .44232179 .14099121 .44132997 .13999939 .44132997 .11199951 .44132997 .066986087 .44332887 .025985718 .44433595V.3973236H.08999634L.2649994 .021087647C.2769928-.00390625 .2899933-.00390625 .30299378-.00390625 .31999208-.00390625 .32998658-.00091552737 .33999635 .020080567L.5059967 .37631227Z"/>
<path id="font_3_3" d="M.7369995 .37631227C.74198916 .389328 .74598696 .3973236 .8049927 .3973236V.44433595C.7819977 .44232179 .7519989 .44132997 .7279968 .44132997 .70098879 .44132997 .6539917 .44332887 .6319885 .44433595V.3973236C.6409912 .3973236 .6899872 .3963318 .6899872 .3853302 .6899872 .38232423 .68699648 .37631227 .6859894 .37332154L.58099368 .11715698 .46699525 .3973236H.522995V.44433595C.4909973 .44332887 .43899537 .44132997 .40899659 .44132997 .36698915 .44132997 .32499696 .44332887 .30899049 .44433595V.3973236H.36799623C.3889923 .3473053 .3889923 .34529115 .3889923 .34429933 .3889923 .34028626 .38598634 .33428956 .3849945 .33128358L.30599977 .13916016 .20098877 .3973236H.25698854V.44433595C.21598816 .44232179 .1749878 .44132997 .13398743 .44132997 .102996829 .44132997 .05899048 .44332887 .024993897 .44433595V.3973236H.083999637L.23699951 .023086548C.24398804 .006088257 .24798584-.00390625 .272995-.00390625 .2979889-.00390625 .3019867 .006088257 .30899049 .023086548L.4149933 .28225709 .5209961 .023086548C.5279999 .006088257 .5319977-.00390625 .5569916-.00390625 .58200076-.00390625 .58599856 .006088257 .59298709 .023086548L.7369995 .37631227Z"/>
<path id="font_4_71" d="M.58200076 .2578125H.5569916C.54599 .15588379 .5319977 .0309906 .35598756 .0309906H.27398683C.22698975 .03060913 .22499085 .037612916 .22499085 .07060242V.6036072C.22499085 .63760378 .22499085 .6516113 .31999208 .6516113H.35299684V.6826172C.31698609 .6796112 .22599793 .6796112 .18499756 .6796112 .1459961 .6796112 .067993167 .6796112 .032989503 .6826172V.6516113H.056991579C.13398743 .6518097 .13598633 .6408081 .13598633 .6048126V.07795715C.13598633 .04197693 .13398743 .0309906 .056991579 .0309906H.032989503V0H.55400088L.58200076 .2578125Z"/>
<path id="font_4_66" d="M.24699402 0V.0309906C.18099976 .0309906 .1769867 .035995485 .1769867 .075042728V.4423828L.036987306 .43066407V.3996582C.101989749 .3996582 .11099243 .3936615 .11099243 .3447113V.07595825C.11099243 .0309906 .099990848 .0309906 .032989503 .0309906V0L.14299011 .0029907227C.17799378 .0029907227 .21299744 .0009918213 .24699402 0M.19198609 .603775C.19198609 .6307678 .16899109 .6567688 .13899231 .6567688 .10499573 .6567688 .084991458 .6287689 .084991458 .603775 .084991458 .57676699 .10798645 .55078127 .13798523 .55078127 .17199707 .55078127 .19198609 .5787811 .19198609 .603775Z"/>
<path id="font_4_77" d="M.5349884 0V.0309906C.48298646 .0309906 .45799256 .0309906 .45700074 .061019899V.25221253C.45700074 .3383026 .45700074 .36932374 .42599488 .405365 .4119873 .42237855 .3789978 .4423828 .32099916 .4423828 .24798584 .4423828 .20098877 .39935304 .17298889 .33729554V.4423828L.03199768 .43066407V.3996582C.101989749 .3996582 .10998535 .39266969 .10998535 .34370423V.07595825C.10998535 .0309906 .09899902 .0309906 .03199768 .0309906V0L.14498902 .0029907227 .25698854 0V.0309906C.18998719 .0309906 .1789856 .0309906 .1789856 .07595825V.25978089C.1789856 .36431886 .25 .42037965 .31399537 .42037965 .3769989 .42037965 .3880005 .36631776 .3880005 .30926515V.076034549C.3880005 .0309906 .3769989 .0309906 .30999757 .0309906V0L.4229889 .0029907227 .5349884 0Z"/>
<path id="font_4_50" d="M.4149933 .11933899C.4149933 .12934876 .40699769 .13134766 .4019928 .13134766 .3929901 .13134766 .3909912 .12535095 .3889923 .11734009 .35398866 .014251709 .2639923 .014251709 .2539978 .014251709 .20399475 .014251709 .1639862 .044281007 .14099121 .08131409 .11099243 .12934876 .11099243 .19540406 .11099243 .23144531H.3899994C.4119873 .23144531 .4149933 .23144531 .4149933 .2524414 .4149933 .35131837 .36099244 .4482422 .23599243 .4482422 .11999512 .4482422 .027999878 .34532167 .027999878 .22042847 .027999878 .08631897 .1329956-.0107421879 .24798584-.0107421879 .36999513-.0107421879 .4149933 .10032654 .4149933 .11933899M.34899903 .2524414H.11199951C.117996219 .40126039 .20199585 .426239 .23599243 .426239 .33898927 .426239 .34899903 .2913971 .34899903 .2524414Z"/>
<path id="font_4_28" d="M.48298646 .08912659V.14511109H.45799256V.08912659C.45799256 .03112793 .43299867 .025131226 .42199708 .025131226 .3889923 .025131226 .3849945 .070129398 .3849945 .07511902V.27508546C.3849945 .31707765 .3849945 .3560791 .34899903 .39312745 .30999757 .43223573 .2599945 .4482422 .21199036 .4482422 .12998963 .4482422 .06098938 .40115357 .06098938 .335083 .06098938 .30508424 .08099365 .28808595 .10699463 .28808595 .1349945 .28808595 .15299988 .30807496 .15299988 .33407594 .15299988 .3460846 .147995 .37908937 .101989749 .38008119 .1289978 .41519166 .17799378 .426239 .20999146 .426239 .25898744 .426239 .31599427 .38710023 .31599427 .29808045V.26107789C.2649994 .25808717 .19499207 .25508119 .13198853 .22509766 .056991579 .19110108 .03199768 .13911438 .03199768 .09512329 .03199768 .014251709 .1289978-.0107421879 .19198609-.0107421879 .2579956-.0107421879 .3039856 .029251099 .32299806 .07624817 .32699586 .036132814 .35398866-.005859375 .40098573-.005859375 .42199708-.005859375 .48298646 .008132935 .48298646 .08912659M.31599427 .14013672C.31599427 .04525757 .24398804 .011245728 .19898987 .011245728 .1499939 .011245728 .10899353 .04624939 .10899353 .09625244 .10899353 .15124512 .15098572 .23425293 .31599427 .24024964V.14013672Z"/>
<path id="font_4_96" d="M.3639984 .38137818C.3639984 .41337586 .33299256 .4423828 .2899933 .4423828 .21699524 .4423828 .18099976 .37538148 .16699219 .3323822V.4423828L.027999878 .43066407V.3996582C.09799194 .3996582 .10598755 .39266969 .10598755 .34370423V.07595825C.10598755 .0309906 .09498596 .0309906 .027999878 .0309906V0L.14199829 .0029907227C.18199158 .0029907227 .22898865 .0029907227 .2689972 0V.0309906H.24798584C.17399597 .0309906 .17199707 .04197693 .17199707 .07795715V.23181153C.17199707 .33137513 .21398926 .42037965 .2899933 .42037965 .29699708 .42037965 .29899598 .42037965 .30099488 .41937257 .2979889 .41838075 .27799989 .40637208 .27799989 .3803711 .27799989 .35237123 .29899598 .33737184 .32099916 .33737184 .33898927 .33737184 .3639984 .3493805 .3639984 .38137818Z"/>
<path id="font_4_72" d="M.25498963 0V.0309906C.18798828 .0309906 .1769867 .0309906 .1769867 .07601929V.69433596L.032989503 .6826172V.6516113C.102996829 .6516113 .11099243 .64460757 .11099243 .5956421V.07595825C.11099243 .0309906 .099990848 .0309906 .032989503 .0309906V0L.14399719 .0029907227 .25498963 0Z"/>
<path id="font_4_118" d="M.5079956 .3996582V.43066407C.4850006 .4286499 .45599366 .42765809 .43299867 .42765809L.34599305 .43066407V.3996582C.3769989 .39866639 .3929901 .3816681 .3929901 .35668946 .3929901 .34669496 .3919983 .34469605 .3869934 .33270265L.28599549 .08685303 .1749878 .35568238C.17098999 .36567689 .16899109 .36967469 .16899109 .3736725 .16899109 .3996582 .20599365 .3996582 .22499085 .3996582V.43066407L.115997318 .42765809C.08898926 .42765809 .04899597 .4286499 .018997193 .43066407V.3996582C.066986087 .3996582 .085998538 .3996582 .099990848 .36468507L.25-.000091552738 .22499085-.059066774C.20298767-.11407471 .1749878-.18309021 .11099243-.18309021 .10598755-.18309021 .08299255-.18309021 .06399536-.16503906 .09498596-.16104126 .102996829-.13905335 .102996829-.123046878 .102996829-.0970459 .083999637-.08103943 .06098938-.08103943 .040985109-.08103943 .018997193-.09403992 .018997193-.124053958 .018997193-.16905213 .06098938-.20507813 .11099243-.20507813 .17399597-.20507813 .21499634-.14804077 .23899842-.091049198L.4149933 .33569337C.44099427 .39865113 .49198915 .3996582 .5079956 .3996582Z"/>
<path id="font_4_47" d="M.5269928 0V.0309906C.45700074 .0309906 .44898988 .038009645 .44898988 .0871582V.69433596L.30499269 .6826172V.6516113C.375 .6516113 .3829956 .64463809 .3829956 .59580996V.38035584C.35398866 .41636659 .31098939 .4423828 .25698854 .4423828 .13899231 .4423828 .033996583 .3443451 .033996583 .21531677 .033996583 .088272098 .13198853-.0107421879 .24598694-.0107421879 .30999757-.0107421879 .35499574 .023254395 .37998963 .055267335V-.0107421879L.5269928 0M.37998963 .117996219C.37998963 .099990848 .37998963 .09799194 .36898805 .08099365 .33898927 .033218385 .2939911 .011245728 .25099183 .011245728 .20599365 .011245728 .16999817 .037216188 .1459961 .075164798 .11999512 .1161499 .116989139 .17320252 .116989139 .21421814 .116989139 .25125123 .11898804 .31129457 .147995 .35632325 .16899109 .38734437 .20698548 .42037965 .26098634 .42037965 .29599 .42037965 .33799745 .405365 .36898805 .3603363 .37998963 .34332276 .37998963 .34132386 .37998963 .32330323V.117996219Z"/>
<path id="font_4_84" d="M.5209961 .21636963C.5209961 .34336854 .42399598 .4423828 .31199647 .4423828 .23399353 .4423828 .19198609 .39837647 .17199707 .3763733V.4423828L.027999878 .43066407V.3996582C.09899902 .3996582 .10598755 .3936615 .10598755 .34973146V-.117996219C.10598755-.16308594 .09498596-.16308594 .027999878-.16308594V-.1940918L.13999939-.19110108 .25299073-.1940918V-.16308594C.18598938-.16308594 .1749878-.16308594 .1749878-.117996219V.050186159 .059173585C.17999268 .04319763 .22200012-.0107421879 .2979889-.0107421879 .4169922-.0107421879 .5209961 .087127689 .5209961 .21594239V.21636963M.43798829 .21594239C.43798829 .09512329 .36799623 .011245728 .2939911 .011245728 .2539978 .011245728 .21598816 .031219483 .18899536 .07215881 .1749878 .09312439 .1749878 .09411621 .1749878 .114089969V.33674623C.20399475 .38838197 .25299073 .41737367 .3039856 .41737367 .3769989 .41737367 .43798829 .32937623 .43798829 .21636963V.21594239Z"/>
<path id="font_4_105" d="M.33198548 .12385559V.18066406H.30699159V.12585449C.30699159 .052108766 .2769928 .014251709 .23999024 .014251709 .17298889 .014251709 .17298889 .10491943 .17298889 .12187195V.3996582H.31599427V.43066407H.17298889V.6142578H.147995C.14698792 .5324249 .116989139 .42565919 .018997193 .42166139V.3996582H.10398865V.12408447C.10398865 .0012512207 .19699097-.0107421879 .23298645-.0107421879 .3039856-.0107421879 .33198548 .060180665 .33198548 .12408447V.12385559Z"/>
<path id="font_4_45" d="M.20298767 .0009918213C.20298767 .06498718 .1789856 .10598755 .13899231 .10598755 .10398865 .10598755 .085998538 .07899475 .085998538 .052993776 .085998538 .026992798 .102996829 0 .13899231 0 .1539917 0 .16799927 .005996704 .1789856 .015991211 .18099976-.06312561 .15299988-.12423706 .10899353-.17132569 .102996829-.17733765 .101989749-.17834473 .101989749-.18234253 .101989749-.18936157 .10699463-.19335938 .11199951-.19335938 .12399292-.19335938 .20298767-.114227298 .20298767 .0009918213Z"/>
<path id="font_4_98" d="M.3600006 .12823487C.3600006 .18122864 .32998658 .21122742 .31799317 .22323609 .2849884 .25523377 .24598694 .26322938 .20399475 .27124024 .147995 .28224183 .08099365 .29522706 .08099365 .35324098 .08099365 .38822938 .10699463 .42922975 .19299317 .42922975 .30299378 .42922975 .30799867 .3392334 .30999757 .30822755 .31098939 .2992401 .32199098 .2992401 .32199098 .2992401 .33499146 .2992401 .33499146 .30422975 .33499146 .32322694V.4242401C.33499146 .4412384 .33499146 .4482422 .32398988 .4482422 .31900025 .4482422 .31698609 .4482422 .3039856 .43623353 .30099488 .43223573 .29100038 .42323304 .2869873 .42022706 .24899292 .4482422 .20799256 .4482422 .19299317 .4482422 .070999149 .4482422 .032989503 .38124085 .032989503 .3252411 .032989503 .29023744 .04899597 .26223756 .07598877 .24023438 .10798645 .2142334 .13598633 .2082367 .20799256 .19422913 .22999573 .19021607 .31199647 .17422486 .31199647 .10221863 .31199647 .051223756 .2769928 .011245728 .19898987 .011245728 .114990238 .011245728 .07899475 .068222049 .05999756 .1532135 .056991579 .16621399 .055999757 .17021179 .04598999 .17021179 .032989503 .17021179 .032989503 .16322327 .032989503 .1452179V.013214111C.032989503-.003753662 .032989503-.0107421879 .04399109-.0107421879 .04899597-.0107421879 .049987794-.009750366 .068984989 .009246826 .070999149 .011245728 .070999149 .013214111 .08898926 .032226564 .1329956-.009750366 .17799378-.0107421879 .19898987-.0107421879 .31399537-.0107421879 .3600006 .05621338 .3600006 .1282196V.12823487Z"/>
<path id="font_4_63" d="M.5349884 0V.0309906C.48298646 .0309906 .45799256 .0309906 .45700074 .061019899V.25221253C.45700074 .3383026 .45700074 .36932374 .42599488 .405365 .4119873 .42237855 .3789978 .4423828 .32099916 .4423828 .23699951 .4423828 .19299317 .38233949 .1769867 .34629823H.17599488V.69433596L.03199768 .6826172V.6516113C.101989749 .6516113 .10998535 .64463809 .10998535 .59580996V.076034549C.10998535 .0309906 .09899902 .0309906 .03199768 .0309906V0L.14498902 .0029907227 .25698854 0V.0309906C.18998719 .0309906 .1789856 .0309906 .1789856 .076034549V.2602234C.1789856 .36431886 .25 .42037965 .31399537 .42037965 .3769989 .42037965 .3880005 .36631776 .3880005 .30926515V.076034549C.3880005 .0309906 .3769989 .0309906 .30999757 .0309906V0L.4229889 .0029907227 .5349884 0Z"/>
<path id="font_4_75" d="M.8129883 0V.0309906C.7609863 .0309906 .73599246 .0309906 .7350006 .061019899V.25221253C.7350006 .3383026 .7350006 .36932374 .70399478 .405365 .6899872 .42237855 .6569977 .4423828 .598999 .4423828 .5149994 .4423828 .47099305 .38233949 .45399476 .34429933 .43998719 .43138124 .3659973 .4423828 .32099916 .4423828 .24798584 .4423828 .20098877 .39935304 .17298889 .33729554V.4423828L.03199768 .43066407V.3996582C.101989749 .3996582 .10998535 .39266969 .10998535 .34370423V.07595825C.10998535 .0309906 .09899902 .0309906 .03199768 .0309906V0L.14498902 .0029907227 .25698854 0V.0309906C.18998719 .0309906 .1789856 .0309906 .1789856 .07595825V.25978089C.1789856 .36431886 .25 .42037965 .31399537 .42037965 .3769989 .42037965 .3880005 .36631776 .3880005 .30926515V.076034549C.3880005 .0309906 .3769989 .0309906 .30999757 .0309906V0L.4229889 .0029907227 .5349884 0V.0309906C.46798707 .0309906 .45700074 .0309906 .45700074 .076034549V.2602234C.45700074 .36431886 .5279999 .42037965 .59199526 .42037965 .6549988 .42037965 .66600039 .36631776 .66600039 .30926515V.076034549C.66600039 .0309906 .6549988 .0309906 .58799746 .0309906V0L.70098879 .0029907227 .8129883 0Z"/>
<path id="font_4_35" d="M.5209961 .2163086C.5209961 .34335328 .4229889 .4423828 .30899049 .4423828 .23098755 .4423828 .18798828 .39537049 .17199707 .3773651V.69433596L.027999878 .68333438V.6523285C.09799194 .6523285 .10598755 .6453247 .10598755 .596344V.00024414063H.1309967L.16699219 .06227112C.18199158 .039260866 .22399903-.0107421879 .2979889-.0107421879 .4169922-.0107421879 .5209961 .08728027 .5209961 .2163086M.43798829 .21731568C.43798829 .18029785 .43598939 .120285037 .40699769 .07527161 .38598634 .044265748 .34799195 .011245728 .2939911 .011245728 .24899292 .011260986 .21299744 .03526306 .18899536 .072265628 .1749878 .09326172 .1749878 .09625244 .1749878 .11425781V.32034303C.1749878 .3393402 .1749878 .3403473 .18598938 .35635377 .22499085 .41236878 .27999879 .42037965 .3039856 .42037965 .34899903 .42037965 .3849945 .3943634 .40899659 .35635377 .43499757 .31533814 .43798829 .25831605 .43798829 .21730042V.21731568Z"/>
<path id="font_4_81" d="M.47099305 .21424866C.47099305 .34223939 .37098695 .4482422 .25 .4482422 .125 .4482422 .027999878 .3392334 .027999878 .21424866 .027999878 .085250858 .13198853-.0107421879 .24899292-.0107421879 .36999513-.0107421879 .47099305 .087249759 .47099305 .21424866M.3880005 .22224427C.3880005 .18624878 .3880005 .13224793 .3659973 .08824158 .34399415 .04324341 .2999878 .014251709 .25 .014251709 .20698548 .014251709 .16299439 .035247804 .13598633 .08125305 .11099243 .12524414 .11099243 .18624878 .11099243 .22224427 .11099243 .26124574 .11099243 .31523133 .1349945 .35923768 .1619873 .40522767 .20899964 .426239 .24899292 .426239 .29299928 .426239 .33599855 .40423585 .3619995 .36123658 .3880005 .3182373 .3880005 .26023866 .3880005 .22224427Z"/>
</defs>
<path transform="matrix(1.00003,0,0,-1.00003,93.95438,73.597827)" d="M0 0 81.09462-28.07094 12.48738-65.50288-68.61827-37.4281Z" fill="#ccccff"/>
<path transform="matrix(1.00003,0,0,-1.00003,93.95438,73.597827)" stroke-width=".3985" stroke-linecap="round" stroke-linejoin="round" fill="none" stroke="#8080ff" d="M0 0 81.09462-28.07094 12.48738-65.50288-68.61827-37.4281Z"/>
<path transform="matrix(1.00003,0,0,-1.00003,93.95438,73.597827)" stroke-width=".3985" stroke-linecap="round" stroke-linejoin="round" fill="none" stroke="#000000" d="M0 0-68.20662-37.20357"/>
<path transform="matrix(-.8778663,.4788344,.4788344,.8778663,25.745728,110.80251)" stroke-width=".31879" stroke-linecap="round" stroke-linejoin="round" fill="none" stroke="#000000" d="M-1.19551 1.59401C-1.09587 .99626 0 .09961 .29886 0 0-.09961-1.09587-.99626-1.19551-1.59401"/>
<use data-text="x" xlink:href="#font_1_1" transform="matrix(9.962899,0,0,-9.962899,11.659897,118.83118)"/>
<use data-text="1" xlink:href="#font_2_1" transform="matrix(6.9740097,0,0,-6.9740097,17.35408,120.325229)"/>
<path transform="matrix(1.00003,0,0,-1.00003,93.95438,73.597827)" stroke-width=".3985" stroke-linecap="round" stroke-linejoin="round" fill="none" stroke="#000000" d="M0 0 80.65051-27.91722"/>
<path transform="matrix(.94498839,.32709984,.32709984,-.94498839,174.6073,101.51586)" stroke-width=".31879" stroke-linecap="round" stroke-linejoin="round" fill="none" stroke="#000000" d="M-1.19551 1.59401C-1.09587 .99626 0 .09961 .29886 0 0-.09961-1.09587-.99626-1.19551-1.59401"/>
<use data-text="x" xlink:href="#font_1_1" transform="matrix(9.962899,0,0,-9.962899,178.5599,103.063709)"/>
<use data-text="2" xlink:href="#font_2_2" transform="matrix(6.9740097,0,0,-6.9740097,184.25409,104.557758)"/>
<path transform="matrix(1.00003,0,0,-1.00003,93.95438,73.597827)" stroke-width=".3985" stroke-linecap="round" stroke-linejoin="round" fill="none" stroke="#000000" d="M0 0V61.91354"/>
<path transform="matrix(0,-1.00003,-1.00003,-0,93.95438,11.682423)" stroke-width=".31879" stroke-linecap="round" stroke-linejoin="round" fill="none" stroke="#000000" d="M-1.19551 1.59401C-1.09587 .99626 0 .09961 .29886 0 0-.09961-1.09587-.99626-1.19551-1.59401"/>
<use data-text="x" xlink:href="#font_1_1" transform="matrix(9.962899,0,0,-9.962899,88.87222,6.2098009)"/>
<use data-text="3" xlink:href="#font_2_3" transform="matrix(6.9740097,0,0,-6.9740097,94.56641,7.703846)"/>
<path transform="matrix(1.00003,0,0,-1.00003,93.95438,73.597827)" stroke-width="1.19553" stroke-linecap="round" stroke-linejoin="round" fill="none" stroke="#000000" d="M0 0-13.57343-24.73424"/>
<path transform="matrix(-.48109446,.87665638,.87665638,.48109446,80.38054,98.33281)" stroke-width=".9564" stroke-linecap="round" stroke-linejoin="round" fill="none" stroke="#000000" d="M-1.91284 2.55046C-1.75343 1.59402 0 .15938 .4782 0 0-.15938-1.75343-1.59402-1.91284-2.55046"/>
<path transform="matrix(1.00003,0,0,-1.00003,93.95438,73.597827)" stroke-width="1.19553" stroke-linecap="round" stroke-linejoin="round" fill="none" stroke="#000000" d="M0 0 47.43153-15.91261"/>
<path transform="matrix(.9480585,.31804959,.31804959,-.9480585,141.38733,89.51091)" stroke-width=".9564" stroke-linecap="round" stroke-linejoin="round" fill="none" stroke="#000000" d="M-1.91284 2.55046C-1.75343 1.59402 0 .15938 .4782 0 0-.15938-1.75343-1.59402-1.91284-2.55046"/>
<path transform="matrix(1.00003,0,0,-1.00003,93.95438,73.597827)" stroke-width="1.19553" stroke-linecap="round" stroke-linejoin="round" fill="none" stroke="#0089cf" d="M0 0 19.73059-28.83719"/>
<path transform="matrix(.564657,.8252948,.8252948,-.564657,113.68556,102.43588)" stroke-width=".9564" stroke-linecap="round" stroke-linejoin="round" fill="none" stroke="#0089cf" d="M-1.91284 2.55046C-1.75343 1.59402 0 .15938 .4782 0 0-.15938-1.75343-1.59402-1.91284-2.55046"/>
<path transform="matrix(1.00003,0,0,-1.00003,93.95438,73.597827)" d="M-11.77902-25.57265C-11.77902-24.3275-12.78838-23.31815-14.03354-23.31815-15.27869-23.31815-16.28804-24.3275-16.28804-25.57265-16.28804-26.81781-15.27869-27.82716-14.03354-27.82716-12.78838-27.82716-11.77902-26.81781-11.77902-25.57265ZM-14.03354-25.57265"/>
<use data-text="u" xlink:href="#font_3_1" transform="matrix(9.962899,0,0,-9.962899,65.586528,103.38172)"/>
<path transform="matrix(1.00003,0,0,-1.00003,93.95438,73.597827)" d="M50.59276-16.2168C50.59276-14.97165 49.58339-13.96228 48.33824-13.96228 47.0931-13.96228 46.08372-14.97165 46.08372-16.2168 46.08372-17.46194 47.0931-18.47131 48.33824-18.47131 49.58339-18.47131 50.59276-17.46194 50.59276-16.2168ZM48.33824-16.2168"/>
<use data-text="v" xlink:href="#font_3_2" transform="matrix(9.962899,0,0,-9.962899,150.26706,94.02344)"/>
<path transform="matrix(1.00003,0,0,-1.00003,93.95438,73.597827)" d="M22.52513-29.6265C22.52513-28.38135 21.51576-27.37198 20.27061-27.37198 19.02547-27.37198 18.0161-28.38135 18.0161-29.6265 18.0161-30.87164 19.02547-31.881 20.27061-31.881 21.51576-31.881 22.52513-30.87164 22.52513-29.6265ZM20.27061-29.6265" fill="#0089cf"/>
<use data-text="w" xlink:href="#font_3_3" transform="matrix(9.962899,0,0,-9.962899,122.19522,107.43584)"/>
<use data-text="L" xlink:href="#font_4_71" transform="matrix(9.962899,0,0,-9.962899,50.55008,169.84072)"/>
<use data-text="i" xlink:href="#font_4_66" transform="matrix(9.962899,0,0,-9.962899,56.7769,169.84072)"/>
<use data-text="n" xlink:href="#font_4_77" transform="matrix(9.962899,0,0,-9.962899,59.546586,169.84072)"/>
<use data-text="e" xlink:href="#font_4_50" transform="matrix(9.962899,0,0,-9.962899,65.08595,169.84072)"/>
<use data-text="a" xlink:href="#font_4_28" transform="matrix(9.962899,0,0,-9.962899,69.50949,169.84072)"/>
<use data-text="r" xlink:href="#font_4_96" transform="matrix(9.962899,0,0,-9.962899,74.49094,169.84072)"/>
<use data-text="l" xlink:href="#font_4_72" transform="matrix(9.962899,0,0,-9.962899,78.39639,169.84072)"/>
<use data-text="y" xlink:href="#font_4_118" transform="matrix(9.962899,0,0,-9.962899,81.16608,169.84072)"/>
<use data-text="d" xlink:href="#font_4_47" transform="matrix(9.962899,0,0,-9.962899,89.73416,169.84072)"/>
<use data-text="e" xlink:href="#font_4_50" transform="matrix(9.962899,0,0,-9.962899,95.27356,169.84072)"/>
<use data-text="p" xlink:href="#font_4_84" transform="matrix(9.962899,0,0,-9.962899,99.69708,169.84072)"/>
<use data-text="e" xlink:href="#font_4_50" transform="matrix(9.962899,0,0,-9.962899,105.51544,169.84072)"/>
<use data-text="n" xlink:href="#font_4_77" transform="matrix(9.962899,0,0,-9.962899,109.938968,169.84072)"/>
<use data-text="d" xlink:href="#font_4_47" transform="matrix(9.962899,0,0,-9.962899,115.47836,169.84072)"/>
<use data-text="e" xlink:href="#font_4_50" transform="matrix(9.962899,0,0,-9.962899,121.01773,169.84072)"/>
<use data-text="n" xlink:href="#font_4_77" transform="matrix(9.962899,0,0,-9.962899,125.44125,169.84072)"/>
<use data-text="t" xlink:href="#font_4_105" transform="matrix(9.962899,0,0,-9.962899,130.71167,169.84072)"/>
<use data-text="," xlink:href="#font_4_45" transform="matrix(9.962899,0,0,-9.962899,134.58722,169.84072)"/>
<use data-text="w" xlink:href="#font_3_3" transform="matrix(9.962899,0,0,-9.962899,1.2165985,181.79607)"/>
<use data-text="l" xlink:href="#font_4_72" transform="matrix(9.962899,0,0,-9.962899,12.967957,181.79607)"/>
<use data-text="i" xlink:href="#font_4_66" transform="matrix(9.962899,0,0,-9.962899,15.737656,181.79607)"/>
<use data-text="e" xlink:href="#font_4_50" transform="matrix(9.962899,0,0,-9.962899,18.50734,181.79607)"/>
<use data-text="s" xlink:href="#font_4_98" transform="matrix(9.962899,0,0,-9.962899,22.930878,181.79607)"/>
<use data-text="i" xlink:href="#font_4_66" transform="matrix(9.962899,0,0,-9.962899,30.173905,181.79607)"/>
<use data-text="n" xlink:href="#font_4_77" transform="matrix(9.962899,0,0,-9.962899,32.943605,181.79607)"/>
<use data-text="t" xlink:href="#font_4_105" transform="matrix(9.962899,0,0,-9.962899,41.800615,181.79607)"/>
<use data-text="h" xlink:href="#font_4_63" transform="matrix(9.962899,0,0,-9.962899,45.676195,181.79607)"/>
<use data-text="e" xlink:href="#font_4_50" transform="matrix(9.962899,0,0,-9.962899,51.21556,181.79607)"/>
<use data-text="p" xlink:href="#font_4_84" transform="matrix(9.962899,0,0,-9.962899,58.95674,181.79607)"/>
<use data-text="l" xlink:href="#font_4_72" transform="matrix(9.962899,0,0,-9.962899,64.49611,181.79607)"/>
<use data-text="a" xlink:href="#font_4_28" transform="matrix(9.962899,0,0,-9.962899,67.26579,181.79607)"/>
<use data-text="n" xlink:href="#font_4_77" transform="matrix(9.962899,0,0,-9.962899,72.24724,181.79607)"/>
<use data-text="e" xlink:href="#font_4_50" transform="matrix(9.962899,0,0,-9.962899,77.786609,181.79607)"/>
<use data-text="d" xlink:href="#font_4_47" transform="matrix(9.962899,0,0,-9.962899,85.52777,181.79607)"/>
<use data-text="e" xlink:href="#font_4_50" transform="matrix(9.962899,0,0,-9.962899,91.06717,181.79607)"/>
<use data-text="t" xlink:href="#font_4_105" transform="matrix(9.962899,0,0,-9.962899,95.49069,181.79607)"/>
<use data-text="e" xlink:href="#font_4_50" transform="matrix(9.962899,0,0,-9.962899,99.36627,181.79607)"/>
<use data-text="r" xlink:href="#font_4_96" transform="matrix(9.962899,0,0,-9.962899,103.789798,181.79607)"/>
<use data-text="m" xlink:href="#font_4_75" transform="matrix(9.962899,0,0,-9.962899,107.69525,181.79607)"/>
<use data-text="i" xlink:href="#font_4_66" transform="matrix(9.962899,0,0,-9.962899,115.994358,181.79607)"/>
<use data-text="n" xlink:href="#font_4_77" transform="matrix(9.962899,0,0,-9.962899,118.76404,181.79607)"/>
<use data-text="e" xlink:href="#font_4_50" transform="matrix(9.962899,0,0,-9.962899,124.303409,181.79607)"/>
<use data-text="d" xlink:href="#font_4_47" transform="matrix(9.962899,0,0,-9.962899,128.72696,181.79607)"/>
<use data-text="b" xlink:href="#font_4_35" transform="matrix(9.962899,0,0,-9.962899,137.58396,181.79607)"/>
<use data-text="y" xlink:href="#font_4_118" transform="matrix(9.962899,0,0,-9.962899,142.85437,181.79607)"/>
<use data-text="u" xlink:href="#font_3_1" transform="matrix(9.962899,0,0,-9.962899,151.42313,181.79607)"/>
<use data-text="a" xlink:href="#font_4_28" transform="matrix(9.962899,0,0,-9.962899,161.10645,181.79607)"/>
<use data-text="n" xlink:href="#font_4_77" transform="matrix(9.962899,0,0,-9.962899,166.08786,181.79607)"/>
<use data-text="d" xlink:href="#font_4_47" transform="matrix(9.962899,0,0,-9.962899,171.62726,181.79607)"/>
<use data-text="v" xlink:href="#font_3_2" transform="matrix(9.962899,0,0,-9.962899,180.48404,181.79607)"/>
<path transform="matrix(1.00003,0,0,-1.00003,93.95438,73.597827)" d="M224.50795 0 305.60264-28.07094 236.99539-65.50288 155.88967-37.4281Z" fill="#ccccff"/>
<path transform="matrix(1.00003,0,0,-1.00003,93.95438,73.597827)" stroke-width=".3985" stroke-linecap="round" stroke-linejoin="round" fill="none" stroke="#8080ff" d="M224.50795 0 305.60264-28.07094 236.99539-65.50288 155.88967-37.4281Z"/>
<path transform="matrix(1.00003,0,0,-1.00003,93.95438,73.597827)" stroke-width=".3985" stroke-linecap="round" stroke-linejoin="round" fill="none" stroke="#000000" d="M224.50795 0 156.30132-37.20357"/>
<path transform="matrix(-.8778663,.4788344,.4788344,.8778663,250.2604,110.80251)" stroke-width=".31879" stroke-linecap="round" stroke-linejoin="round" fill="none" stroke="#000000" d="M-1.19551 1.59401C-1.09587 .99626 0 .09961 .29886 0 0-.09961-1.09587-.99626-1.19551-1.59401"/>
<use data-text="x" xlink:href="#font_1_1" transform="matrix(9.962899,0,0,-9.962899,236.17465,118.83118)"/>
<use data-text="1" xlink:href="#font_2_1" transform="matrix(6.9740097,0,0,-6.9740097,241.86884,120.325229)"/>
<path transform="matrix(1.00003,0,0,-1.00003,93.95438,73.597827)" stroke-width=".3985" stroke-linecap="round" stroke-linejoin="round" fill="none" stroke="#000000" d="M224.50795 0 305.1585-27.91722"/>
<path transform="matrix(.94498839,.32709984,.32709984,-.94498839,399.122,101.51586)" stroke-width=".31879" stroke-linecap="round" stroke-linejoin="round" fill="none" stroke="#000000" d="M-1.19551 1.59401C-1.09587 .99626 0 .09961 .29886 0 0-.09961-1.09587-.99626-1.19551-1.59401"/>
<use data-text="x" xlink:href="#font_1_1" transform="matrix(9.962899,0,0,-9.962899,403.07466,103.063709)"/>
<use data-text="2" xlink:href="#font_2_2" transform="matrix(6.9740097,0,0,-6.9740097,408.76884,104.557758)"/>
<path transform="matrix(1.00003,0,0,-1.00003,93.95438,73.597827)" stroke-width=".3985" stroke-linecap="round" stroke-linejoin="round" fill="none" stroke="#000000" d="M224.50795 0V61.91354"/>
<path transform="matrix(0,-1.00003,-1.00003,-0,318.46907,11.682423)" stroke-width=".31879" stroke-linecap="round" stroke-linejoin="round" fill="none" stroke="#000000" d="M-1.19551 1.59401C-1.09587 .99626 0 .09961 .29886 0 0-.09961-1.09587-.99626-1.19551-1.59401"/>
<use data-text="x" xlink:href="#font_1_1" transform="matrix(9.962899,0,0,-9.962899,313.38697,6.2098009)"/>
<use data-text="3" xlink:href="#font_2_3" transform="matrix(6.9740097,0,0,-6.9740097,319.08116,7.703846)"/>
<path transform="matrix(1.00003,0,0,-1.00003,93.95438,73.597827)" stroke-width="1.19553" stroke-linecap="round" stroke-linejoin="round" fill="none" stroke="#000000" d="M224.50795 0 210.9345-24.73424"/>
<path transform="matrix(-.48109446,.87665638,.87665638,.48109446,304.8952,98.33281)" stroke-width=".9564" stroke-linecap="round" stroke-linejoin="round" fill="none" stroke="#000000" d="M-1.91284 2.55046C-1.75343 1.59402 0 .15938 .4782 0 0-.15938-1.75343-1.59402-1.91284-2.55046"/>
<path transform="matrix(1.00003,0,0,-1.00003,93.95438,73.597827)" stroke-width="1.19553" stroke-linecap="round" stroke-linejoin="round" fill="none" stroke="#000000" d="M224.50795 0 271.9395-15.91261"/>
<path transform="matrix(.9480585,.31804959,.31804959,-.9480585,365.90208,89.51091)" stroke-width=".9564" stroke-linecap="round" stroke-linejoin="round" fill="none" stroke="#000000" d="M-1.91284 2.55046C-1.75343 1.59402 0 .15938 .4782 0 0-.15938-1.75343-1.59402-1.91284-2.55046"/>
<path transform="matrix(1.00003,0,0,-1.00003,93.95438,73.597827)" stroke-width="1.19553" stroke-linecap="round" stroke-linejoin="round" fill="none" stroke="#0089cf" d="M224.50795 0 247.37494 35.06253"/>
<path transform="matrix(.5462664,-.83759519,-.83759519,-.5462664,341.33674,38.53424)" stroke-width=".9564" stroke-linecap="round" stroke-linejoin="round" fill="none" stroke="#0089cf" d="M-1.91284 2.55046C-1.75343 1.59402 0 .15938 .4782 0 0-.15938-1.75343-1.59402-1.91284-2.55046"/>
<path transform="matrix(1.00003,0,0,-1.00003,93.95438,73.597827)" stroke-width=".3985" stroke-linecap="round" stroke-dasharray="2.98883,2.98883" stroke-linejoin="round" fill="none" stroke="#7f807f" d="M247.89737-14.03354V35.86359"/>
<path transform="matrix(1.00003,0,0,-1.00003,93.95438,73.597827)" d="M212.72891-25.57265C212.72891-24.3275 211.71955-23.31815 210.4744-23.31815 209.22925-23.31815 208.21988-24.3275 208.21988-25.57265 208.21988-26.81781 209.22925-27.82716 210.4744-27.82716 211.71955-27.82716 212.72891-26.81781 212.72891-25.57265ZM210.4744-25.57265"/>
<use data-text="u" xlink:href="#font_3_1" transform="matrix(9.962899,0,0,-9.962899,290.10127,103.38172)"/>
<path transform="matrix(1.00003,0,0,-1.00003,93.95438,73.597827)" d="M275.1007-16.2168C275.1007-14.97165 274.09135-13.96228 272.8462-13.96228 271.60108-13.96228 270.59169-14.97165 270.59169-16.2168 270.59169-17.46194 271.60108-18.47131 272.8462-18.47131 274.09135-18.47131 275.1007-17.46194 275.1007-16.2168ZM272.8462-16.2168"/>
<use data-text="v" xlink:href="#font_3_2" transform="matrix(9.962899,0,0,-9.962899,374.7818,94.02344)"/>
<path transform="matrix(1.00003,0,0,-1.00003,93.95438,73.597827)" d="M250.15189 35.86359C250.15189 37.10873 249.14253 38.1181 247.89737 38.1181 246.65222 38.1181 245.64287 37.10873 245.64287 35.86359 245.64287 34.61844 246.65222 33.60907 247.89737 33.60907 249.14253 33.60907 250.15189 34.61844 250.15189 35.86359ZM247.89737 35.86359" fill="#0089cf"/>
<use data-text="w" xlink:href="#font_3_3" transform="matrix(9.962899,0,0,-9.962899,349.82908,38.94578)"/>
<use data-text="L" xlink:href="#font_4_71" transform="matrix(9.962899,0,0,-9.962899,270.9097,169.84072)"/>
<use data-text="i" xlink:href="#font_4_66" transform="matrix(9.962899,0,0,-9.962899,277.1365,169.84072)"/>
<use data-text="n" xlink:href="#font_4_77" transform="matrix(9.962899,0,0,-9.962899,279.9062,169.84072)"/>
<use data-text="e" xlink:href="#font_4_50" transform="matrix(9.962899,0,0,-9.962899,285.44557,169.84072)"/>
<use data-text="a" xlink:href="#font_4_28" transform="matrix(9.962899,0,0,-9.962899,289.86909,169.84072)"/>
<use data-text="r" xlink:href="#font_4_96" transform="matrix(9.962899,0,0,-9.962899,294.85054,169.84072)"/>
<use data-text="l" xlink:href="#font_4_72" transform="matrix(9.962899,0,0,-9.962899,298.75599,169.84072)"/>
<use data-text="y" xlink:href="#font_4_118" transform="matrix(9.962899,0,0,-9.962899,301.5257,169.84072)"/>
<use data-text="i" xlink:href="#font_4_66" transform="matrix(9.962899,0,0,-9.962899,310.1037,169.84072)"/>
<use data-text="n" xlink:href="#font_4_77" transform="matrix(9.962899,0,0,-9.962899,312.8734,169.84072)"/>
<use data-text="d" xlink:href="#font_4_47" transform="matrix(9.962899,0,0,-9.962899,318.41279,169.84072)"/>
<use data-text="e" xlink:href="#font_4_50" transform="matrix(9.962899,0,0,-9.962899,323.95216,169.84072)"/>
<use data-text="p" xlink:href="#font_4_84" transform="matrix(9.962899,0,0,-9.962899,328.37568,169.84072)"/>
<use data-text="e" xlink:href="#font_4_50" transform="matrix(9.962899,0,0,-9.962899,334.19404,169.84072)"/>
<use data-text="n" xlink:href="#font_4_77" transform="matrix(9.962899,0,0,-9.962899,338.61756,169.84072)"/>
<use data-text="d" xlink:href="#font_4_47" transform="matrix(9.962899,0,0,-9.962899,344.15699,169.84072)"/>
<use data-text="e" xlink:href="#font_4_50" transform="matrix(9.962899,0,0,-9.962899,349.69636,169.84072)"/>
<use data-text="n" xlink:href="#font_4_77" transform="matrix(9.962899,0,0,-9.962899,354.11988,169.84072)"/>
<use data-text="t" xlink:href="#font_4_105" transform="matrix(9.962899,0,0,-9.962899,359.39027,169.84072)"/>
<use data-text="," xlink:href="#font_4_45" transform="matrix(9.962899,0,0,-9.962899,363.2658,169.84072)"/>
<use data-text="w" xlink:href="#font_3_3" transform="matrix(9.962899,0,0,-9.962899,207.60379,181.79607)"/>
<use data-text="d" xlink:href="#font_4_47" transform="matrix(9.962899,0,0,-9.962899,219.35515,181.79607)"/>
<use data-text="o" xlink:href="#font_4_81" transform="matrix(9.962899,0,0,-9.962899,224.89452,181.79607)"/>
<use data-text="e" xlink:href="#font_4_50" transform="matrix(9.962899,0,0,-9.962899,230.15493,181.79607)"/>
<use data-text="s" xlink:href="#font_4_98" transform="matrix(9.962899,0,0,-9.962899,234.57845,181.79607)"/>
<use data-text="n" xlink:href="#font_4_77" transform="matrix(9.962899,0,0,-9.962899,241.82149,181.79607)"/>
<use data-text="o" xlink:href="#font_4_81" transform="matrix(9.962899,0,0,-9.962899,247.36086,181.79607)"/>
<use data-text="t" xlink:href="#font_4_105" transform="matrix(9.962899,0,0,-9.962899,252.34229,181.79607)"/>
<use data-text="l" xlink:href="#font_4_72" transform="matrix(9.962899,0,0,-9.962899,259.53553,181.79607)"/>
<use data-text="i" xlink:href="#font_4_66" transform="matrix(9.962899,0,0,-9.962899,262.3052,181.79607)"/>
<use data-text="e" xlink:href="#font_4_50" transform="matrix(9.962899,0,0,-9.962899,265.0749,181.79607)"/>
<use data-text="i" xlink:href="#font_4_66" transform="matrix(9.962899,0,0,-9.962899,272.8161,181.79607)"/>
<use data-text="n" xlink:href="#font_4_77" transform="matrix(9.962899,0,0,-9.962899,275.58576,181.79607)"/>
<use data-text="t" xlink:href="#font_4_105" transform="matrix(9.962899,0,0,-9.962899,284.4428,181.79607)"/>
<use data-text="h" xlink:href="#font_4_63" transform="matrix(9.962899,0,0,-9.962899,288.31837,181.79607)"/>
<use data-text="e" xlink:href="#font_4_50" transform="matrix(9.962899,0,0,-9.962899,293.85774,181.79607)"/>
<use data-text="p" xlink:href="#font_4_84" transform="matrix(9.962899,0,0,-9.962899,301.59895,181.79607)"/>
<use data-text="l" xlink:href="#font_4_72" transform="matrix(9.962899,0,0,-9.962899,307.1383,181.79607)"/>
<use data-text="a" xlink:href="#font_4_28" transform="matrix(9.962899,0,0,-9.962899,309.90797,181.79607)"/>
<use data-text="n" xlink:href="#font_4_77" transform="matrix(9.962899,0,0,-9.962899,314.8894,181.79607)"/>
<use data-text="e" xlink:href="#font_4_50" transform="matrix(9.962899,0,0,-9.962899,320.42878,181.79607)"/>
<use data-text="d" xlink:href="#font_4_47" transform="matrix(9.962899,0,0,-9.962899,328.16999,181.79607)"/>
<use data-text="e" xlink:href="#font_4_50" transform="matrix(9.962899,0,0,-9.962899,333.70936,181.79607)"/>
<use data-text="t" xlink:href="#font_4_105" transform="matrix(9.962899,0,0,-9.962899,338.13288,181.79607)"/>
<use data-text="e" xlink:href="#font_4_50" transform="matrix(9.962899,0,0,-9.962899,342.00843,181.79607)"/>
<use data-text="r" xlink:href="#font_4_96" transform="matrix(9.962899,0,0,-9.962899,346.432,181.79607)"/>
<use data-text="m" xlink:href="#font_4_75" transform="matrix(9.962899,0,0,-9.962899,350.33747,181.79607)"/>
<use data-text="i" xlink:href="#font_4_66" transform="matrix(9.962899,0,0,-9.962899,358.63655,181.79607)"/>
<use data-text="n" xlink:href="#font_4_77" transform="matrix(9.962899,0,0,-9.962899,361.40626,181.79607)"/>
<use data-text="e" xlink:href="#font_4_50" transform="matrix(9.962899,0,0,-9.962899,366.94563,181.79607)"/>
<use data-text="d" xlink:href="#font_4_47" transform="matrix(9.962899,0,0,-9.962899,371.36915,181.79607)"/>
<use data-text="b" xlink:href="#font_4_35" transform="matrix(9.962899,0,0,-9.962899,380.22615,181.79607)"/>
<use data-text="y" xlink:href="#font_4_118" transform="matrix(9.962899,0,0,-9.962899,385.49653,181.79607)"/>
<use data-text="u" xlink:href="#font_3_1" transform="matrix(9.962899,0,0,-9.962899,394.06544,181.79607)"/>
<use data-text="a" xlink:href="#font_4_28" transform="matrix(9.962899,0,0,-9.962899,403.74873,181.79607)"/>
<use data-text="n" xlink:href="#font_4_77" transform="matrix(9.962899,0,0,-9.962899,408.73017,181.79607)"/>
<use data-text="d" xlink:href="#font_4_47" transform="matrix(9.962899,0,0,-9.962899,414.26954,181.79607)"/>
<use data-text="v" xlink:href="#font_3_2" transform="matrix(9.962899,0,0,-9.962899,423.12629,181.79607)"/>
</svg>
