<svg xmlns="http://www.w3.org/2000/svg" xmlns:xlink="http://www.w3.org/1999/xlink" xmlns:inkscape="http://www.inkscape.org/namespaces/inkscape" version="1.1" width="166" height="114" viewBox="0 0 166 114">
<defs>
<path id="font_1_1" d="M.43798829 .072143558V-.005859375L.61499026 .0001373291V.0471344C.5529938 .0471344 .54599 .0471344 .54599 .086135867V.4501953L.36299134 .44218446V.39518739C.4249878 .39518739 .43199159 .39518739 .43199159 .3561859V.16514588C.43199159 .08314514 .3809967 .030136109 .30799867 .030136109 .23098755 .030136109 .22799683 .055130006 .22799683 .10914612V.4501953L.04499817 .44218446V.39518739C.10699463 .39518739 .11399841 .39518739 .11399841 .3561859V.12315369C.11399841 .01612854 .19499207-.005859375 .2939911-.005859375 .31999208-.005859375 .3919983-.005859375 .43798829 .072143558Z"/>
<path id="font_2_7" d="M.68699648 .32714845C.70199587 .32714845 .72099307 .32714845 .72099307 .34713746 .72099307 .36714173 .70199587 .36714173 .6879883 .36714173H.08898926C.07499695 .36714173 .055999757 .36714173 .055999757 .34713746 .055999757 .32714845 .07499695 .32714845 .08999634 .32714845H.68699648M.6879883 .13284302C.70199587 .13284302 .72099307 .13284302 .72099307 .15284729 .72099307 .17285156 .70199587 .17285156 .68699648 .17285156H.08999634C.07499695 .17285156 .055999757 .17285156 .055999757 .15284729 .055999757 .13284302 .07499695 .13284302 .08898926 .13284302H.6879883Z"/>
<path id="font_3_1" d="M.41299439-1.1491852C.41299439-1.1451874 .41099549-1.1431885 .40899659-1.1401825 .36299134-1.0911713 .29499818-1.0101624 .25299073-.84713748 .22999573-.7561188 .22099304-.65309146 .22099304-.56007388 .22099304-.2970276 .28399659-.11299133 .4039917 .017044068 .41299439 .026031495 .41299439 .028030396 .41299439 .030029297 .41299439 .040039064 .40499879 .040039064 .40098573 .040039064 .38598634 .040039064 .33198548-.019973755 .31900025-.034973146 .21699524-.1559906 .1519928-.33602906 .1519928-.5590668 .1519928-.7010956 .1769867-.9021454 .30799867-1.071167 .31799317-1.0831757 .3829956-1.1591797 .40098573-1.1591797 .40499879-1.1591797 .41299439-1.1591797 .41299439-1.1491852Z"/>
<path id="font_4_2" d="M.5049896 .18203736H.47099305C.46798707 .16001892 .45799256 .100997928 .44499208 .09098816 .43699647 .084991458 .3600006 .084991458 .34599305 .084991458H.1619873C.2669983 .17803955 .3019867 .20603943 .3619995 .25306703 .43598939 .312088 .5049896 .374115 .5049896 .46914674 .5049896 .5900879 .39898683 .6640625 .2709961 .6640625 .14698792 .6640625 .06298828 .57710269 .06298828 .4851532 .06298828 .43414308 .10598755 .42915345 .115997318 .42915345 .13999939 .42915345 .16899109 .44615174 .16899109 .48214723 .16899109 .5001526 .1619873 .53515627 .10998535 .53515627 .14099121 .6060791 .20899964 .62805178 .2559967 .62805178 .35598756 .62805178 .4079895 .5501404 .4079895 .46914674 .4079895 .38212586 .34599305 .3130951 .31399537 .27708436L.07299805 .038986207C.06298828 .02999878 .06298828 .027999878 .06298828 0H.47499085L.5049896 .18203736Z"/>
<path id="font_4_3" d="M.272995 .33428956C.35099793 .33428956 .40699769 .2803192 .40699769 .1733551 .40699769 .04940796 .33499146 .012466431 .2769928 .012466431 .23699951 .012466431 .14898682 .0234375 .10699463 .082351688 .1539917 .084350589 .16499329 .11735535 .16499329 .13835144 .16499329 .17034912 .14099121 .19335938 .10998535 .19335938 .08198547 .19335938 .053985597 .17634583 .053985597 .13534546 .053985597 .041412355 .1579895-.01953125 .2789917-.01953125 .41799928-.01953125 .5139923 .07336426 .5139923 .1733551 .5139923 .2513275 .44999696 .32929994 .33999635 .35229493 .44499208 .39024354 .48298646 .4650879 .48298646 .5260773 .48298646 .60505679 .3919983 .6640625 .2809906 .6640625 .16999817 .6640625 .084991458 .61006167 .084991458 .5300751 .084991458 .49606324 .10699463 .47706605 .13699341 .47706605 .16799927 .47706605 .18798828 .5000763 .18798828 .5280762 .18798828 .5570679 .16799927 .57806399 .13699341 .5800781 .17199707 .62405398 .24099732 .63505557 .27799989 .63505557 .32299806 .63505557 .38598634 .6130676 .38598634 .5260773 .38598634 .48406983 .37199403 .43814088 .34599305 .4072113 .31298829 .36927796 .2849884 .3672943 .23498535 .36428834 .20999146 .3623047 .20799256 .3623047 .20298767 .3612976 .20098877 .3612976 .19299317 .3592987 .19299317 .34829713 .19299317 .33428956 .20199585 .33428956 .21899414 .33428956H.272995Z"/>
<path id="font_3_2" d="M.30499269-.56007388C.30499269-.41804505 .27999879-.2170105 .14898682-.047973634 .13899231-.035964967 .07398987 .040039064 .055999757 .040039064 .050994874 .040039064 .04399109 .038024904 .04399109 .030029297 .04399109 .026031495 .04598999 .023025513 .049987794 .02003479 .09799194-.031967164 .16299439-.11299133 .20399475-.27201844 .22698975-.3630371 .23599243-.4660492 .23599243-.5590668 .23599243-.6600952 .22698975-.7621155 .20098877-.86013796 .16299439-1.0001679 .10398865-1.0801697 .052993776-1.1361847 .04399109-1.1451874 .04399109-1.1471863 .04399109-1.1491852 .04399109-1.1571808 .050994874-1.1591797 .055999757-1.1591797 .070999149-1.1591797 .12599182-1.098175 .13798523-1.0841827 .23999024-.96315 .30499269-.7831116 .30499269-.56007388Z"/>
<path id="font_1_2" d="M.5059967 .37631227C.5119934 .39031983 .5159912 .3973236 .5799866 .3973236V.44433595C.5549927 .44232179 .526001 .44132997 .5009918 .44132997 .47599793 .44132997 .43099977 .44332887 .4099884 .44433595V.3973236C.42900086 .3973236 .45799256 .3943329 .45799256 .38632203 .45799256 .3853302 .45700074 .38331605 .45298768 .37431336L.33699037 .12416077 .20999146 .3973236H.2639923V.44433595C.23098755 .44232179 .14099121 .44132997 .13999939 .44132997 .11199951 .44132997 .066986087 .44332887 .025985718 .44433595V.3973236H.08999634L.2649994 .021087647C.2769928-.00390625 .2899933-.00390625 .30299378-.00390625 .31999208-.00390625 .32998658-.00091552737 .33999635 .020080567L.5059967 .37631227Z"/>
<path id="font_4_4" d="M.5289917 .1640625V.20005799H.41799928V.64582827C.41799928 .66682437 .41799928 .6738281 .3959961 .6738281 .38398744 .6738281 .37998963 .6738281 .36999513 .65982058L.038986207 .20005799V.1640625H.33299256V.08201599C.33299256 .04800415 .33299256 .035995485 .2519989 .035995485H.22499085V0C.2749939 .0019989014 .33898927 .0039978029 .375 .0039978029 .4119873 .0039978029 .47599793 .0019989014 .526001 0V.035995485H.49899293C.41799928 .035995485 .41799928 .04800415 .41799928 .08201599V.1640625H.5289917M.33999635 .5658722V.20005799H.07598877L.33999635 .5658722Z"/>
<path id="font_5_1" d="M.74398806 .2263794C.7599945 .2263794 .7839966 .2263794 .7839966 .25038148 .7839966 .27539063 .7609863 .27539063 .74398806 .27539063H.147995C.13198853 .27539063 .10798645 .27539063 .10798645 .25138856 .10798645 .2263794 .1309967 .2263794 .147995 .2263794H.74398806Z"/>
<path id="font_4_1" d="M.33499146 .63612368C.33499146 .6630554 .33299256 .6640625 .30499269 .6640625 .24099732 .6014404 .1499939 .6004486 .10899353 .6004486V.5644531C.1329956 .5644531 .19898987 .5644531 .2539978 .592453V.08203125C.2539978 .04899597 .2539978 .035995485 .1539917 .035995485H.115997318V0C.13398743 .0009918213 .25698854 .0039978029 .2939911 .0039978029 .32499696 .0039978029 .45098878 .0009918213 .47299195 0V.035995485H.43499757C.33499146 .035995485 .33499146 .04899597 .33499146 .08203125V.63612368Z"/>
<path id="font_2_3" d="M.1269989 .07699585 .23298645 .18003845C.3889923 .31811524 .44898988 .3721466 .44898988 .47216798 .44898988 .5860901 .35899354 .6660156 .23699951 .6660156 .12399292 .6660156 .049987794 .57411196 .049987794 .48516847 .049987794 .4291687 .099990848 .4291687 .102996829 .4291687 .11999512 .4291687 .15499878 .44117738 .15499878 .48217774 .15499878 .5081787 .13699341 .5341797 .101989749 .5341797 .09399414 .5341797 .09199524 .5341797 .08898926 .5331726 .11199951 .59806826 .1659851 .63500979 .22399903 .63500979 .31498719 .63500979 .35798646 .5541382 .35798646 .47216798 .35798646 .39215089 .30799867 .31311036 .25299073 .25108338L.06098938 .036987306C.049987794 .025985718 .049987794 .023986817 .049987794 0H.42099L.44898988 .17404175H.42399598C.4189911 .14402771 .4119873 .1000061 .4019928 .084991458 .394989 .07699585 .32899476 .07699585 .30699159 .07699585H.1269989Z"/>
<path id="font_2_1" d="M.40899659 .23046875H.6879883C.70199587 .23046875 .72099307 .23046875 .72099307 .25045777 .72099307 .27046205 .70199587 .27046205 .6879883 .27046205H.40899659V.5500183C.40899659 .56399539 .40899659 .5830078 .3889923 .5830078 .36898805 .5830078 .36898805 .56399539 .36898805 .5500183V.27046205H.08898926C.07499695 .27046205 .055999757 .27046205 .055999757 .25045777 .055999757 .23046875 .07499695 .23046875 .08898926 .23046875H.36898805V-.05000305C.36898805-.06401062 .36898805-.08300781 .3889923-.08300781 .40899659-.08300781 .40899659-.06401062 .40899659-.05000305V.23046875Z"/>
<path id="font_2_5" d="M.2939911 .16503906V.07800293C.2939911 .041992189 .2919922 .0309906 .21798706 .0309906H.19699097V0C.23799134 .0029907227 .2899933 .0029907227 .33198548 .0029907227 .37399293 .0029907227 .4269867 .0029907227 .46798707 0V.0309906H.44699098C.37298585 .0309906 .37098695 .041992189 .37098695 .07800293V.16503906H.47099305V.19602967H.37098695V.65075686C.37098695 .67074587 .37098695 .6767578 .35499574 .6767578 .34599305 .6767578 .34298707 .6767578 .33499146 .66474917L.027999878 .19602967V.16503906H.2939911M.2999878 .19602967H.055999757L.2999878 .5688019V.19602967Z"/>
<path id="font_2_6" d="M.13198853 .327713V.35173036C.13198853 .6047821 .2559967 .64100649 .30699159 .64100649 .33099366 .64100649 .37298585 .634964 .394989 .6007538 .37998963 .6007538 .33999635 .6007538 .33999635 .5557556 .33999635 .524765 .3639984 .5097656 .38598634 .5097656 .4019928 .5097656 .43199159 .51875308 .43199159 .5577545 .43199159 .6178589 .3880005 .6660156 .30499269 .6660156 .1769867 .6660156 .041992189 .5367584 .041992189 .31570436 .041992189 .048553468 .1579895-.022460938 .25099183-.022460938 .3619995-.022460938 .45700074 .07156372 .45700074 .2036438 .45700074 .33070375 .36799623 .4267578 .25698854 .4267578 .18899536 .4267578 .1519928 .37573243 .13198853 .327713M.25099183 .0055389406C.18798828 .0055389406 .1579895 .06556702 .1519928 .080566409 .13398743 .127594 .13398743 .2076416 .13398743 .22564698 .13398743 .30369569 .1659851 .40374757 .2559967 .40374757 .27198792 .40374757 .31799317 .40374757 .34899903 .34172059 .36698915 .30470277 .36698915 .2536621 .36698915 .20463562 .36698915 .15661621 .36698915 .10658264 .34999085 .0705719 .31999208 .010528564 .27398683 .0055389406 .25099183 .0055389406Z"/>
<path id="font_2_4" d="M.2899933 .35191346C.37199403 .37893678 .42999269 .4490509 .42999269 .52809146 .42999269 .6100464 .34199525 .6660156 .24598694 .6660156 .14498902 .6660156 .068984989 .60606387 .068984989 .53009036 .068984989 .49710084 .09098816 .47808839 .11999512 .47808839 .15098572 .47808839 .17098999 .50009158 .17098999 .5290985 .17098999 .57910159 .12399292 .57910159 .10899353 .57910159 .13999939 .62802127 .20599365 .64100649 .24198914 .64100649 .2829895 .64100649 .33799745 .6190338 .33799745 .5290985 .33799745 .51708987 .33599855 .45906068 .30999757 .4149933 .27999879 .36691285 .24598694 .36390687 .22099304 .36291505 .21299744 .36190797 .18899536 .35990907 .18199158 .35990907 .17399597 .35890199 .16699219 .35791017 .16699219 .3479004 .16699219 .33691407 .17399597 .33691407 .19099427 .33691407H.23498535C.31698609 .33691407 .35398866 .2686615 .35398866 .17037964 .35398866 .034469606 .2849884 .0055389406 .24099732 .0055389406 .19799805 .0055389406 .12298584 .022491456 .08799744 .08137512 .12298584 .07637024 .1539917 .09837341 .1539917 .1363678 .1539917 .17237854 .1269989 .19238281 .09799194 .19238281 .07398987 .19238281 .041992189 .17837525 .041992189 .1343689 .041992189 .043441774 .1349945-.022460938 .24398804-.022460938 .3659973-.022460938 .45700074 .06838989 .45700074 .17037964 .45700074 .252594 .3939972 .33088685 .2899933 .35191346Z"/>
<path id="font_6_3" d="M.15899658 .71398928C.15899658 .7319946 .15899658 .75 .13899231 .75 .11898804 .75 .11898804 .7319946 .11898804 .71398928V-.21400452C.11898804-.23200989 .11898804-.25 .13899231-.25 .15899658-.25 .15899658-.23200989 .15899658-.21400452V.71398928Z"/>
<path id="font_6_1" d="M.6589966 .23046875C.6759949 .23046875 .69400027 .23046875 .69400027 .25045777 .69400027 .27046205 .6759949 .27046205 .6589966 .27046205H.117996219C.100997928 .27046205 .08299255 .27046205 .08299255 .25045777 .08299255 .23046875 .100997928 .23046875 .117996219 .23046875H.6589966Z"/>
<path id="font_2_2" d="M.2939911 .64004519C.2939911 .66400149 .2939911 .6660156 .2709961 .6660156 .20899964 .60227969 .12098694 .60227969 .08898926 .60227969V.57128909C.10899353 .57128909 .16799927 .57128909 .21998596 .5972748V.07902527C.21998596 .042999269 .21699524 .0309906 .1269989 .0309906H.09498596V0C.12998963 .0029907227 .21699524 .0029907227 .25698854 .0029907227 .29699708 .0029907227 .38398744 .0029907227 .4189911 0V.0309906H.3869934C.29699708 .0309906 .2939911 .041992189 .2939911 .07902527V.64004519Z"/>
<path id="font_6_2" d="M.19198609 .2502594C.19198609 .2792511 .16799927 .30325318 .13899231 .30325318 .10998535 .30325318 .085998538 .2792511 .085998538 .2502594 .085998538 .22125244 .10998535 .19726563 .13899231 .19726563 .16799927 .19726563 .19198609 .22125244 .19198609 .2502594Z"/>
<path id="font_7_27" d="M.71699526 0V.0309906H.69898989C.6389923 .0309906 .625 .037979127 .6139984 .07095337L.397995 .6958008C.3929901 .7088165 .3909912 .7158203 .375 .7158203 .35899354 .7158203 .35598756 .70980837 .35099793 .6958008L.14399719 .09791565C.12599182 .04698181 .085998538 .03199768 .03199768 .0309906V0L.13398743 .0029907227 .24899292 0V.0309906C.19898987 .0309906 .17399597 .05596924 .17399597 .0819397 .17399597 .08493042 .1749878 .09492493 .17599488 .09692383L.22200012 .2277832H.46899415L.5219879 .07495117C.522995 .07095337 .5249939 .064956668 .5249939 .060958864 .5249939 .0309906 .46899415 .0309906 .44198609 .0309906V0C.47799684 .0029907227 .5479889 .0029907227 .58599856 .0029907227L.71699526 0M.45799256 .25878907H.23298645L.34498597 .58380129 .45799256 .25878907Z"/>
<path id="font_7_96" d="M.3639984 .38137818C.3639984 .41337586 .33299256 .4423828 .2899933 .4423828 .21699524 .4423828 .18099976 .37538148 .16699219 .3323822V.4423828L.027999878 .43066407V.3996582C.09799194 .3996582 .10598755 .39266969 .10598755 .34370423V.07595825C.10598755 .0309906 .09498596 .0309906 .027999878 .0309906V0L.14199829 .0029907227C.18199158 .0029907227 .22898865 .0029907227 .2689972 0V.0309906H.24798584C.17399597 .0309906 .17199707 .04197693 .17199707 .07795715V.23181153C.17199707 .33137513 .21398926 .42037965 .2899933 .42037965 .29699708 .42037965 .29899598 .42037965 .30099488 .41937257 .2979889 .41838075 .27799989 .40637208 .27799989 .3803711 .27799989 .35237123 .29899598 .33737184 .32099916 .33737184 .33898927 .33737184 .3639984 .3493805 .3639984 .38137818Z"/>
<path id="font_7_50" d="M.4149933 .11933899C.4149933 .12934876 .40699769 .13134766 .4019928 .13134766 .3929901 .13134766 .3909912 .12535095 .3889923 .11734009 .35398866 .014251709 .2639923 .014251709 .2539978 .014251709 .20399475 .014251709 .1639862 .044281007 .14099121 .08131409 .11099243 .12934876 .11099243 .19540406 .11099243 .23144531H.3899994C.4119873 .23144531 .4149933 .23144531 .4149933 .2524414 .4149933 .35131837 .36099244 .4482422 .23599243 .4482422 .11999512 .4482422 .027999878 .34532167 .027999878 .22042847 .027999878 .08631897 .1329956-.0107421879 .24798584-.0107421879 .36999513-.0107421879 .4149933 .10032654 .4149933 .11933899M.34899903 .2524414H.11199951C.117996219 .40126039 .20199585 .426239 .23599243 .426239 .33898927 .426239 .34899903 .2913971 .34899903 .2524414Z"/>
<path id="font_7_28" d="M.48298646 .08912659V.14511109H.45799256V.08912659C.45799256 .03112793 .43299867 .025131226 .42199708 .025131226 .3889923 .025131226 .3849945 .070129398 .3849945 .07511902V.27508546C.3849945 .31707765 .3849945 .3560791 .34899903 .39312745 .30999757 .43223573 .2599945 .4482422 .21199036 .4482422 .12998963 .4482422 .06098938 .40115357 .06098938 .335083 .06098938 .30508424 .08099365 .28808595 .10699463 .28808595 .1349945 .28808595 .15299988 .30807496 .15299988 .33407594 .15299988 .3460846 .147995 .37908937 .101989749 .38008119 .1289978 .41519166 .17799378 .426239 .20999146 .426239 .25898744 .426239 .31599427 .38710023 .31599427 .29808045V.26107789C.2649994 .25808717 .19499207 .25508119 .13198853 .22509766 .056991579 .19110108 .03199768 .13911438 .03199768 .09512329 .03199768 .014251709 .1289978-.0107421879 .19198609-.0107421879 .2579956-.0107421879 .3039856 .029251099 .32299806 .07624817 .32699586 .036132814 .35398866-.005859375 .40098573-.005859375 .42199708-.005859375 .48298646 .008132935 .48298646 .08912659M.31599427 .14013672C.31599427 .04525757 .24398804 .011245728 .19898987 .011245728 .1499939 .011245728 .10899353 .04624939 .10899353 .09625244 .10899353 .15124512 .15098572 .23425293 .31599427 .24024964V.14013672Z"/>
</defs>
<path transform="matrix(1,0,0,-1.00005,17.041,98.57913)" stroke-width=".79701" stroke-linecap="round" stroke-linejoin="round" fill="none" stroke="#000000" d="M0 0V96.37778H144.5667V0ZM144.5667 96.37778"/>
<path transform="matrix(1,0,0,-1.00005,17.041,98.57913)" d="M0 0H96.37984L0 24.09494Z" fill="#ffecdb"/>
<path transform="matrix(1,0,0,-1.00005,17.041,98.57913)" d="M0 96.37984V24.09494L48.18991 96.37984Z" fill="#ddebf4"/>
<path transform="matrix(1,0,0,-1.00005,17.041,98.57913)" d="M144.56977 96.37984H48.18991L144.56977 72.28487Z" fill="#ffecdb"/>
<path transform="matrix(1,0,0,-1.00005,17.041,98.57913)" d="M144.56977 0H96.37984L144.56977 72.28487Z" fill="#ddebf4"/>
<path transform="matrix(1,0,0,-1.00005,17.041,98.57913)" d="M96.37778 0 0 24.09442 48.18887 96.37778 144.5667 72.28333Z" fill="#e5e6e5"/>
<path transform="matrix(1,0,0,-1.00005,17.041,98.57913)" stroke-width="1.19553" stroke-linecap="round" stroke-linejoin="round" fill="none" stroke="#000000" d="M96.37778 0 0 24.09442 48.18887 96.37778 144.5667 72.28333Z"/>
<path transform="matrix(1,0,0,-1.00005,17.041,98.57913)" stroke-width="1.19553" stroke-linecap="round" stroke-linejoin="round" fill="none" stroke="#1f77b4" d="M0 24.09442 47.65839 95.58203"/>
<path transform="matrix(.55467,-.8320615,-.83202,-.5546977,64.69939,2.9923249)" stroke-width=".9564" stroke-linecap="round" stroke-linejoin="round" fill="none" stroke="#1f77b4" d="M-1.91284 2.55046C-1.75343 1.59402 0 .15938 .4782 0 0-.15938-1.75343-1.59402-1.91284-2.55046"/>
<use data-text="u" xlink:href="#font_1_1" transform="matrix(9.9626,0,0,-9.963098,4.4649965,30.934754)" fill="#1f77b4"/>
<use data-text="=" xlink:href="#font_2_7" transform="matrix(9.9626,0,0,-9.963098,13.597,30.934754)" fill="#1f77b4"/>
<use data-text="(" xlink:href="#font_3_1" transform="matrix(9.9626,0,0,-9.963098,24.112999,22.86435)" fill="#1f77b4"/>
<use data-text="2" xlink:href="#font_4_2" transform="matrix(6.9738,0,0,-6.9741489,28.679993,26.513527)" fill="#0000ff"/>
<use data-text="3" xlink:href="#font_4_3" transform="matrix(6.9738,0,0,-6.9741489,28.679993,34.36992)" fill="#009900"/>
<use data-text=")" xlink:href="#font_3_2" transform="matrix(9.9626,0,0,-9.963098,32.651,22.86435)" fill="#1f77b4"/>
<path transform="matrix(1,0,0,-1.00005,17.041,98.57913)" stroke-width="1.19553" stroke-linecap="round" stroke-linejoin="round" fill="none" stroke="#ff7f0e" d="M0 24.09442 95.44994 .23193"/>
<path transform="matrix(.97014,.24252212,.24251,-.97018846,112.490947,98.34719)" stroke-width=".9564" stroke-linecap="round" stroke-linejoin="round" fill="none" stroke="#ff7f0e" d="M-1.91284 2.55046C-1.75343 1.59402 0 .15938 .4782 0 0-.15938-1.75343-1.59402-1.91284-2.55046"/>
<use data-text="v" xlink:href="#font_1_2" transform="matrix(9.9626,0,0,-9.963098,45.82,99.36517)" fill="#ff7f0e"/>
<use data-text="=" xlink:href="#font_2_7" transform="matrix(9.9626,0,0,-9.963098,54.793,99.36517)" fill="#ff7f0e"/>
<use data-text="(" xlink:href="#font_3_1" transform="matrix(9.9626,0,0,-9.963098,65.309,91.29477)" fill="#ff7f0e"/>
<use data-text="4" xlink:href="#font_4_4" transform="matrix(6.9738,0,0,-6.9741489,72.989009,94.94395)" fill="#ff8000"/>
<use data-text="&#x2212;" xlink:href="#font_5_1" transform="matrix(6.9738,0,0,-6.9741489,69.876,102.80034)" fill="#ff0000"/>
<use data-text="1" xlink:href="#font_4_1" transform="matrix(6.9738,0,0,-6.9741489,76.102,102.80034)" fill="#ff0000"/>
<use data-text=")" xlink:href="#font_3_2" transform="matrix(9.9626,0,0,-9.963098,80.073009,91.29477)" fill="#ff7f0e"/>
<use data-text="2" xlink:href="#font_2_3" transform="matrix(9.9626,0,0,-9.963098,69.124,112.21781)" fill="#0000ff"/>
<use data-text="+" xlink:href="#font_2_1" transform="matrix(9.9626,0,0,-9.963098,76.317,112.21781)" fill="#0000ff"/>
<use data-text="4" xlink:href="#font_2_5" transform="matrix(9.9626,0,0,-9.963098,86.282,112.21781)" fill="#ff8000"/>
<use data-text="=" xlink:href="#font_2_7" transform="matrix(9.9626,0,0,-9.963098,94.02294,112.21781)" fill="#ff8000"/>
<use data-text="6" xlink:href="#font_2_6" transform="matrix(9.9626,0,0,-9.963098,104.533489,112.21781)" fill="#ff8000"/>
<use data-text="3" xlink:href="#font_2_4" transform="matrix(0,-9.963098,-9.9626,-0,8.690002,77.23204)" fill="#009900"/>
<use data-text="+" xlink:href="#font_2_1" transform="matrix(0,-9.963098,-9.9626,-0,8.690002,70.03868)" fill="#009900"/>
<use data-text="|" xlink:href="#font_6_3" transform="matrix(0,-9.963098,-9.9626,-0,8.690002,60.07318)" fill="#009900"/>
<use data-text="&#x2212;" xlink:href="#font_6_1" transform="matrix(0,-9.963098,-9.9626,-0,8.690002,57.306047)" fill="#ff0000"/>
<use data-text="1" xlink:href="#font_2_2" transform="matrix(0,-9.963098,-9.9626,-0,8.690002,49.556657)" fill="#ff0000"/>
<use data-text="|" xlink:href="#font_6_3" transform="matrix(0,-9.963098,-9.9626,-0,8.690002,44.57541)" fill="#ff0000"/>
<use data-text="=" xlink:href="#font_2_7" transform="matrix(0,-9.963098,-9.9626,-0,8.690002,39.04013)" fill="#ff0000"/>
<use data-text="4" xlink:href="#font_2_5" transform="matrix(0,-9.963098,-9.9626,-0,8.690002,28.539032)" fill="#ff0000"/>
<use data-text="1" xlink:href="#font_4_1" transform="matrix(6.9738,0,0,-6.9741489,18.135003,87.9906)"/>
<path transform="matrix(1,0,0,-1.00005,-85.102,9.32967)" stroke-width=".3985" stroke-linecap="butt" stroke-linejoin="round" fill="none" stroke="#000000" d="M103.237-80.089H107.208"/>
<use data-text="2" xlink:href="#font_4_2" transform="matrix(6.9738,0,0,-6.9741489,18.135003,95.34897)"/>
<use data-text="&#x00b7;" xlink:href="#font_6_2" transform="matrix(9.9626,0,0,-9.963098,23.855004,91.9138)"/>
<use data-text="4" xlink:href="#font_2_5" transform="matrix(9.9626,0,0,-9.963098,27.176003,91.9138)" fill="#ff8000"/>
<use data-text="&#x00b7;" xlink:href="#font_6_2" transform="matrix(9.9626,0,0,-9.963098,32.71,91.9138)" fill="#ff8000"/>
<use data-text="|" xlink:href="#font_6_3" transform="matrix(9.9626,0,0,-9.963098,36.017587,91.9138)" fill="#ff8000"/>
<use data-text="&#x2212;" xlink:href="#font_6_1" transform="matrix(9.9626,0,0,-9.963098,38.799005,91.9138)" fill="#ff0000"/>
<use data-text="1" xlink:href="#font_2_2" transform="matrix(9.9626,0,0,-9.963098,46.547006,91.9138)" fill="#ff0000"/>
<use data-text="|" xlink:href="#font_6_3" transform="matrix(9.9626,0,0,-9.963098,51.529,91.9138)" fill="#ff0000"/>
<use data-text="=" xlink:href="#font_2_7" transform="matrix(9.9626,0,0,-9.963098,57.062997,91.9138)" fill="#ff0000"/>
<use data-text="2" xlink:href="#font_2_3" transform="matrix(9.9626,0,0,-9.963098,67.563579,91.9138)" fill="#ff0000"/>
<use data-text="1" xlink:href="#font_4_1" transform="matrix(6.9738,0,0,-6.9741489,21.162003,14.0149)"/>
<path transform="matrix(1,0,0,-1.00005,-82.075,-64.64603)" stroke-width=".3985" stroke-linecap="butt" stroke-linejoin="round" fill="none" stroke="#000000" d="M103.237-80.089H107.208"/>
<use data-text="2" xlink:href="#font_4_2" transform="matrix(6.9738,0,0,-6.9741489,21.162003,21.373269)"/>
<use data-text="&#x00b7;" xlink:href="#font_6_2" transform="matrix(9.9626,0,0,-9.963098,26.882004,17.938103)"/>
<use data-text="2" xlink:href="#font_2_3" transform="matrix(9.9626,0,0,-9.963098,30.203003,17.938103)" fill="#0000ff"/>
<use data-text="&#x00b7;" xlink:href="#font_6_2" transform="matrix(9.9626,0,0,-9.963098,35.737,17.938103)" fill="#0000ff"/>
<use data-text="3" xlink:href="#font_2_4" transform="matrix(9.9626,0,0,-9.963098,39.058008,17.938103)" fill="#009900"/>
<use data-text="=" xlink:href="#font_2_7" transform="matrix(9.9626,0,0,-9.963098,46.79895,17.938103)" fill="#009900"/>
<use data-text="3" xlink:href="#font_2_4" transform="matrix(9.9626,0,0,-9.963098,57.309495,17.938103)" fill="#009900"/>
<use data-text="1" xlink:href="#font_4_1" transform="matrix(6.9738,0,0,-6.9741489,110.9,14.0149)"/>
<path transform="matrix(1,0,0,-1.00005,7.663002,-64.64603)" stroke-width=".3985" stroke-linecap="butt" stroke-linejoin="round" fill="none" stroke="#000000" d="M103.237-80.089H107.208"/>
<use data-text="2" xlink:href="#font_4_2" transform="matrix(6.9738,0,0,-6.9741489,110.9,21.373269)"/>
<use data-text="&#x00b7;" xlink:href="#font_6_2" transform="matrix(9.9626,0,0,-9.963098,116.62,17.938103)"/>
<use data-text="4" xlink:href="#font_2_5" transform="matrix(9.9626,0,0,-9.963098,119.941,17.938103)" fill="#ff8000"/>
<use data-text="&#x00b7;" xlink:href="#font_6_2" transform="matrix(9.9626,0,0,-9.963098,125.475,17.938103)" fill="#ff8000"/>
<use data-text="|" xlink:href="#font_6_3" transform="matrix(9.9626,0,0,-9.963098,128.7826,17.938103)" fill="#ff8000"/>
<use data-text="&#x2212;" xlink:href="#font_6_1" transform="matrix(9.9626,0,0,-9.963098,131.564,17.938103)" fill="#ff0000"/>
<use data-text="1" xlink:href="#font_2_2" transform="matrix(9.9626,0,0,-9.963098,139.31201,17.938103)" fill="#ff0000"/>
<use data-text="|" xlink:href="#font_6_3" transform="matrix(9.9626,0,0,-9.963098,144.294,17.938103)" fill="#ff0000"/>
<use data-text="=" xlink:href="#font_2_7" transform="matrix(9.9626,0,0,-9.963098,149.828,17.938103)" fill="#ff0000"/>
<use data-text="2" xlink:href="#font_2_3" transform="matrix(9.9626,0,0,-9.963098,160.32859,17.938103)" fill="#ff0000"/>
<use data-text="1" xlink:href="#font_4_1" transform="matrix(6.9738,0,0,-6.9741489,117.542,83.893398)"/>
<path transform="matrix(1,0,0,-1.00005,14.305,5.232465)" stroke-width=".3985" stroke-linecap="butt" stroke-linejoin="round" fill="none" stroke="#000000" d="M103.237-80.089H107.208"/>
<use data-text="2" xlink:href="#font_4_2" transform="matrix(6.9738,0,0,-6.9741489,117.542,91.25176)"/>
<use data-text="&#x00b7;" xlink:href="#font_6_2" transform="matrix(9.9626,0,0,-9.963098,123.262,87.8166)"/>
<use data-text="2" xlink:href="#font_2_3" transform="matrix(9.9626,0,0,-9.963098,126.583,87.8166)" fill="#0000ff"/>
<use data-text="&#x00b7;" xlink:href="#font_6_2" transform="matrix(9.9626,0,0,-9.963098,132.117,87.8166)" fill="#0000ff"/>
<use data-text="3" xlink:href="#font_2_4" transform="matrix(9.9626,0,0,-9.963098,135.438,87.8166)" fill="#009900"/>
<use data-text="=" xlink:href="#font_2_7" transform="matrix(9.9626,0,0,-9.963098,143.17896,87.8166)" fill="#009900"/>
<use data-text="3" xlink:href="#font_2_4" transform="matrix(9.9626,0,0,-9.963098,153.68949,87.8166)" fill="#009900"/>
<use data-text="A" xlink:href="#font_7_27" transform="matrix(9.9626,0,0,-9.963098,67.312,53.8989)"/>
<use data-text="r" xlink:href="#font_7_96" transform="matrix(9.9626,0,0,-9.963098,74.78395,53.8989)"/>
<use data-text="e" xlink:href="#font_7_50" transform="matrix(9.9626,0,0,-9.963098,78.6893,53.8989)"/>
<use data-text="a" xlink:href="#font_7_28" transform="matrix(9.9626,0,0,-9.963098,83.112689,53.8989)"/>
<use data-text="=" xlink:href="#font_2_7" transform="matrix(9.9626,0,0,-9.963098,90.86099,53.8989)"/>
<use data-text="1" xlink:href="#font_2_2" transform="matrix(9.9626,0,0,-9.963098,101.36157,53.8989)"/>
<use data-text="4" xlink:href="#font_2_5" transform="matrix(9.9626,0,0,-9.963098,106.342868,53.8989)"/>
</svg>
