<svg xmlns="http://www.w3.org/2000/svg" xmlns:xlink="http://www.w3.org/1999/xlink" xmlns:inkscape="http://www.inkscape.org/namespaces/inkscape" version="1.1" width="162" height="114" viewBox="0 0 162 114">
<defs>
<path id="font_1_1" d="M.41799928 .44218446V.3861847C.47698976 .3861847 .4850006 .3861847 .4850006 .34718324V.16215515C.4850006 .07913208 .42099 .040130617 .34498597 .040130617 .25898744 .040130617 .2579956 .06213379 .2579956 .11013794V.4501953L.06399536 .44218446V.3861847C.12298584 .3861847 .1309967 .3861847 .1309967 .34718324V.12113953C.1309967 .005126953 .24198914-.005859375 .32798768-.005859375 .36099244-.005859375 .43499757-.005859375 .49198915 .06513977V-.005859375L.67900088 .0001373291V.056137086C.6199951 .056137086 .6119995 .056137086 .6119995 .09513855V.4501953L.41799928 .44218446Z"/>
<path id="font_2_7" d="M.7679901 .3359375C.7829895 .3359375 .80599978 .3359375 .80599978 .3609314 .80599978 .38493348 .7819977 .38493348 .7689972 .38493348H.10699463C.09399414 .38493348 .069992069 .38493348 .069992069 .3609314 .069992069 .3359375 .09298706 .3359375 .10798645 .3359375H.7679901M.7689972 .11602783C.7819977 .11602783 .80599978 .11602783 .80599978 .1400299 .80599978 .16503906 .7829895 .16503906 .7679901 .16503906H.10798645C.09298706 .16503906 .069992069 .16503906 .069992069 .1400299 .069992069 .11602783 .09399414 .11602783 .10699463 .11602783H.7689972Z"/>
<path id="font_3_1" d="M.47599793-1.1379089C.47599793-1.13591 .47499085-1.1319122 .47399903-1.1299133 .4119873-1.0679321 .2649994-.91996768 .2649994-.5510559 .2649994-.28811646 .33699037-.1081543 .46199037 .017822266 .47599793 .030822754 .47599793 .032821657 .47599793 .036819459 .47599793 .048828126 .46398927 .048828126 .45999146 .048828126 .45498658 .048828126 .45098878 .048828126 .44699098 .045822145 .31298829-.0521698 .18499756-.25611878 .18499756-.5500488 .18499756-.8039856 .2809906-1.0219421 .44599916-1.1459198 .45098878-1.1499176 .45298768-1.1499176 .45999146-1.1499176 .46398927-1.1499176 .47599793-1.1499176 .47599793-1.1379089Z"/>
<path id="font_4_4" d="M.61698916 .1630249V.20703125H.49198915V.64675906C.49198915 .67074587 .4909973 .6767578 .46499635 .6767578 .44499208 .6767578 .44400025 .67575076 .43299867 .66174319L.06298828 .20703125V.1630249H.3959961V.085006717C.3959961 .054000856 .3959961 .04399109 .30899049 .04399109H.27398683V0C.32099916 .0019989014 .38598634 .0039978029 .44400025 .0039978029 .5019989 .0039978029 .56599429 .0019989014 .6139984 0V.04399109H.57899478C.49198915 .04399109 .49198915 .054000856 .49198915 .085006717V.1630249H.61698916M.4039917 .5688019V.20703125H.10998535L.4039917 .5688019Z"/>
<path id="font_5_1" d="M.8799896 .2223053C.8959961 .2223053 .9229889 .2223053 .9229889 .25030519 .9229889 .2783203 .8959961 .2783203 .8799896 .2783203H.20298767C.18699646 .2783203 .1599884 .2783203 .1599884 .25030519 .1599884 .2223053 .18699646 .2223053 .20298767 .2223053H.8799896Z"/>
<path id="font_4_1" d="M.397995 .63591006C.397995 .6660156 .394989 .6660156 .3619995 .6660156 .29100038 .6016083 .17999268 .6016083 .1599884 .6016083H.14299011V.5576172H.1599884C.18299866 .5576172 .24798584 .5606079 .30599977 .58561709V.08596802C.30599977 .054977418 .30599977 .04399109 .19999695 .04399109H.1499939V0C.20498657 .0039978029 .2939911 .0039978029 .35198976 .0039978029 .4099884 .0039978029 .49899293 .0039978029 .55400088 0V.04399109H.5039978C.397995 .04399109 .397995 .054977418 .397995 .08596802V.63591006Z"/>
<path id="font_3_2" d="M.35299684-.5510559C.35299684-.29710389 .25698854-.0791626 .09199524 .044815065 .08699036 .048828126 .084991458 .048828126 .07798767 .048828126 .07299805 .048828126 .06199646 .047821046 .06199646 .036819459 .06199646 .034820558 .06199646 .031814577 .06399536 .030822754 .06498718 .029815674 .06498718 .027816773 .08299255 .009811401 .23199463-.1391449 .272995-.36009217 .272995-.5500488 .272995-.81999209 .19699097-.99594119 .07598877-1.1189118 .06199646-1.1319122 .06199646-1.1339111 .06199646-1.1379089 .06199646-1.1479187 .07199097-1.1499176 .07798767-1.1499176 .08299255-1.1499176 .08699036-1.1499176 .09098816-1.1469116 .22499085-1.0489349 .35299684-.84498599 .35299684-.5510559Z"/>
<path id="font_1_2" d="M.57299807 .37132264C.5799866 .38432313 .58099368 .3853302 .60198977 .3873291 .6139984 .38832093 .6389923 .38832093 .6459961 .38832093V.44433595C.61499026 .44232179 .59399417 .44032289 .56199648 .44032289 .5319977 .44032289 .49299623 .44132997 .46299745 .44433595V.38832093C.4889984 .38832093 .49499513 .38632203 .5069885 .38232423L.37298585 .1191864 .23599243 .38832093H.2829895V.44433595C.23999024 .44232179 .19599915 .44032289 .15299988 .44032289 .11399841 .44032289 .07499695 .44132997 .035995485 .44433595V.38832093H.100997928L.28799439 .022140503C.30099488-.0038604737 .31098939-.005859375 .34098817-.005859375 .37098695-.005859375 .37998963-.0038604737 .3939972 .022140503L.57299807 .37132264Z"/>
<path id="font_4_2" d="M.58898928 .19296265H.5469971C.5439911 .17396546 .5339966 .11198425 .5179901 .101989749 .5099945 .09599304 .42599488 .09599304 .41099549 .09599304H.21499634C.2809906 .14497376 .35499574 .20095825 .4149933 .24093628 .5049896 .30291749 .58898928 .36090089 .58898928 .46687318 .58898928 .59495547 .46798707 .6660156 .32499696 .6660156 .18998719 .6660156 .09098816 .58795168 .09098816 .48986817 .09098816 .4378662 .1349945 .42886354 .14898682 .42886354 .17599488 .42886354 .20799256 .4468689 .20799256 .48786927 .20799256 .52386477 .18199158 .543869 .15098572 .546875 .1789856 .59194949 .23699951 .6220093 .3039856 .6220093 .40098573 .6220093 .48199464 .5639038 .48199464 .4658661 .48199464 .3818817 .42399598 .31791688 .34700013 .2529297L.102996829 .04598999C.09298706 .036987306 .09199524 .036987306 .09098816 .02999878V0H.55599978L.58898928 .19296265Z"/>
<path id="font_4_3" d="M.32998658 .3310547C.42199708 .3310547 .48298646 .2737732 .48298646 .17437744 .48298646 .07237244 .41999818 .01852417 .33099366 .01852417 .31999208 .01852417 .20098877 .01852417 .1499939 .070373538 .19099427 .07637024 .20298767 .1073761 .20298767 .13137818 .20298767 .16838074 .1749878 .19238281 .14199829 .19238281 .10998535 .19238281 .07998657 .17137146 .07998657 .12937927 .07998657 .025512696 .19799805-.022460938 .33399964-.022460938 .49798585-.022460938 .59999087 .07637024 .59999087 .17337036 .59999087 .25567628 .5269928 .3260193 .41299439 .35205079 .5329895 .3909912 .5649872 .46684266 .5649872 .5228424 .5649872 .60491946 .46299745 .6660156 .33699037 .6660156 .21398926 .6660156 .114990238 .61395266 .114990238 .5238342 .114990238 .47683717 .15299988 .46484376 .17199707 .46484376 .20098877 .46484376 .22898865 .48583985 .22898865 .5218353 .22898865 .5448303 .21699524 .5728302 .18099976 .57884219 .22399903 .625 .31298829 .628006 .33399964 .628006 .40699769 .628006 .45899964 .5908661 .45899964 .5228424 .45899964 .46484376 .42099 .37402345 .31599427 .368042 .28799439 .3670349 .28399659 .3660431 .2579956 .365036 .24699402 .3640442 .23599243 .36305238 .23599243 .34805299 .23599243 .3310547 .24598694 .3310547 .2639923 .3310547H.32998658Z"/>
<path id="font_2_5" d="M.5289917 .1640625V.20005799H.41799928V.64582827C.41799928 .66682437 .41799928 .6738281 .3959961 .6738281 .38398744 .6738281 .37998963 .6738281 .36999513 .65982058L.038986207 .20005799V.1640625H.33299256V.08201599C.33299256 .04800415 .33299256 .035995485 .2519989 .035995485H.22499085V0C.2749939 .0019989014 .33898927 .0039978029 .375 .0039978029 .4119873 .0039978029 .47599793 .0019989014 .526001 0V.035995485H.49899293C.41799928 .035995485 .41799928 .04800415 .41799928 .08201599V.1640625H.5289917M.33999635 .5658722V.20005799H.07598877L.33999635 .5658722Z"/>
<path id="font_2_1" d="M.46299745 .2263794H.7689972C.7819977 .2263794 .80599978 .2263794 .80599978 .25038148 .80599978 .27539063 .7829895 .27539063 .7689972 .27539063H.46299745V.5821533C.46299745 .59513857 .46299745 .6191406 .43899537 .6191406 .4139862 .6191406 .4139862 .5961304 .4139862 .5821533V.27539063H.10699463C.09399414 .27539063 .069992069 .27539063 .069992069 .25138856 .069992069 .2263794 .09298706 .2263794 .10699463 .2263794H.4139862V-.08114624C.4139862-.09416199 .4139862-.11816406 .43798829-.11816406 .46299745-.11816406 .46299745-.09516907 .46299745-.08114624V.2263794Z"/>
<path id="font_2_3" d="M.5049896 .18203736H.47099305C.46798707 .16001892 .45799256 .100997928 .44499208 .09098816 .43699647 .084991458 .3600006 .084991458 .34599305 .084991458H.1619873C.2669983 .17803955 .3019867 .20603943 .3619995 .25306703 .43598939 .312088 .5049896 .374115 .5049896 .46914674 .5049896 .5900879 .39898683 .6640625 .2709961 .6640625 .14698792 .6640625 .06298828 .57710269 .06298828 .4851532 .06298828 .43414308 .10598755 .42915345 .115997318 .42915345 .13999939 .42915345 .16899109 .44615174 .16899109 .48214723 .16899109 .5001526 .1619873 .53515627 .10998535 .53515627 .14099121 .6060791 .20899964 .62805178 .2559967 .62805178 .35598756 .62805178 .4079895 .5501404 .4079895 .46914674 .4079895 .38212586 .34599305 .3130951 .31399537 .27708436L.07299805 .038986207C.06298828 .02999878 .06298828 .027999878 .06298828 0H.47499085L.5049896 .18203736Z"/>
<path id="font_2_6" d="M.1499939 .3274536C.1499939 .40945436 .15699768 .48303224 .19499207 .543869 .22898865 .5978699 .2829895 .63505557 .34700013 .63505557 .3769989 .63505557 .4169922 .62701418 .43699647 .5998688 .4119873 .5978699 .3909912 .5808716 .3909912 .5518799 .3909912 .5268707 .4079895 .5048828 .43798829 .5048828 .46798707 .5048828 .48599244 .5248718 .48599244 .5538788 .48599244 .6119385 .44400025 .6640625 .34498597 .6640625 .20098877 .6640625 .053985597 .5318756 .053985597 .3174591 .053985597 .05845642 .17599488-.01953125 .28599549-.01953125 .4079895-.01953125 .5139923 .07345581 .5139923 .20445252 .5139923 .33145143 .41299439 .42546083 .29599 .42546083 .21598816 .42546083 .17199707 .37245179 .1499939 .3274536M.28599549 .012466431C.23599243 .012466431 .19699097 .04145813 .17599488 .08546448 .16099549 .11546326 .15299988 .16545105 .15299988 .22544861 .15299988 .32244874 .21099854 .39746095 .29100038 .39746095 .33699037 .39746095 .36799623 .37945558 .3929901 .342453 .4169922 .30445863 .41799928 .26245118 .41799928 .20445252 .41799928 .14746094 .41799928 .10545349 .3909912 .066467288 .36698915 .031463624 .33499146 .012466431 .28599549 .012466431Z"/>
<path id="font_6_3" d="M.19400025 .71099856C.19400025 .7259979 .19400025 .75 .16999817 .75 .14498902 .75 .14498902 .72698977 .14498902 .71099856V-.2110138C.14498902-.22601319 .14498902-.25 .16899109-.25 .19400025-.25 .19400025-.227005 .19400025-.2110138V.71099856Z"/>
<path id="font_6_1" d="M.74398806 .2263794C.7599945 .2263794 .7839966 .2263794 .7839966 .25038148 .7839966 .27539063 .7609863 .27539063 .74398806 .27539063H.147995C.13198853 .27539063 .10798645 .27539063 .10798645 .25138856 .10798645 .2263794 .1309967 .2263794 .147995 .2263794H.74398806Z"/>
<path id="font_2_2" d="M.33499146 .63612368C.33499146 .6630554 .33299256 .6640625 .30499269 .6640625 .24099732 .6014404 .1499939 .6004486 .10899353 .6004486V.5644531C.1329956 .5644531 .19898987 .5644531 .2539978 .592453V.08203125C.2539978 .04899597 .2539978 .035995485 .1539917 .035995485H.115997318V0C.13398743 .0009918213 .25698854 .0039978029 .2939911 .0039978029 .32499696 .0039978029 .45098878 .0009918213 .47299195 0V.035995485H.43499757C.33499146 .035995485 .33499146 .04899597 .33499146 .08203125V.63612368Z"/>
<path id="font_2_4" d="M.272995 .33428956C.35099793 .33428956 .40699769 .2803192 .40699769 .1733551 .40699769 .04940796 .33499146 .012466431 .2769928 .012466431 .23699951 .012466431 .14898682 .0234375 .10699463 .082351688 .1539917 .084350589 .16499329 .11735535 .16499329 .13835144 .16499329 .17034912 .14099121 .19335938 .10998535 .19335938 .08198547 .19335938 .053985597 .17634583 .053985597 .13534546 .053985597 .041412355 .1579895-.01953125 .2789917-.01953125 .41799928-.01953125 .5139923 .07336426 .5139923 .1733551 .5139923 .2513275 .44999696 .32929994 .33999635 .35229493 .44499208 .39024354 .48298646 .4650879 .48298646 .5260773 .48298646 .60505679 .3919983 .6640625 .2809906 .6640625 .16999817 .6640625 .084991458 .61006167 .084991458 .5300751 .084991458 .49606324 .10699463 .47706605 .13699341 .47706605 .16799927 .47706605 .18798828 .5000763 .18798828 .5280762 .18798828 .5570679 .16799927 .57806399 .13699341 .5800781 .17199707 .62405398 .24099732 .63505557 .27799989 .63505557 .32299806 .63505557 .38598634 .6130676 .38598634 .5260773 .38598634 .48406983 .37199403 .43814088 .34599305 .4072113 .31298829 .36927796 .2849884 .3672943 .23498535 .36428834 .20999146 .3623047 .20799256 .3623047 .20298767 .3612976 .20098877 .3612976 .19299317 .3592987 .19299317 .34829713 .19299317 .33428956 .20199585 .33428956 .21899414 .33428956H.272995Z"/>
<path id="font_6_2" d="M.22698975 .25035096C.22698975 .28634645 .19699097 .3083496 .16999817 .3083496 .13699341 .3083496 .11199951 .2813568 .11199951 .25135804 .11199951 .21534729 .14199829 .19335938 .16899109 .19335938 .20199585 .19335938 .22698975 .22035218 .22698975 .25035096Z"/>
<path id="font_7_27" d="M.7969971 0V.035995485H.7769928C.70999148 .035995485 .7029877 .04597473 .69200137 .07392883L.44898988 .6898804C.44299317 .70588687 .43998719 .7128906 .42099 .7128906 .4019928 .7128906 .39898683 .70588687 .3929901 .6898804L.1619873 .104888919C.1519928 .07992554 .1349945 .035995485 .04499817 .035995485V0C.07899475 .0029907227 .11399841 .0039978029 .147995 .0039978029 .18798828 .0039978029 .2619934 0 .2679901 0V.035995485C.22399903 .035995485 .19599915 .05595398 .19599915 .08392334 .19599915 .09190369 .19699097 .09390259 .20098877 .103881839L.24899292 .22668457H.5329895L.59098818 .08091736C.59298709 .075927738 .59599307 .06893921 .59599307 .063949588 .59599307 .035995485 .5419922 .035995485 .5149994 .035995485V0L.6639862 .0039978029C.71099856 .0039978029 .7859955 .0009918213 .7969971 0M.5189972 .2626953H.2630005L.3909912 .5878296 .5189972 .2626953Z"/>
<path id="font_7_96" d="M.40699769 .37739564C.40699769 .4113922 .375 .44140626 .32798768 .44140626 .27799989 .44140626 .22299195 .4104004 .19299317 .33439637H.19198609V.44140626L.04899597 .43052674V.39453126C.115997318 .39453126 .12399292 .3875122 .12399292 .33843995V.079055789C.12399292 .035995485 .11399841 .035995485 .04899597 .035995485V0C.053985597 0 .12199402 .0039978029 .16299439 .0039978029L.29299928 0V.035995485H.272995C.19898987 .036071779 .19898987 .047073366 .19898987 .081085208V.22807312C.19898987 .31207276 .23799134 .41308595 .33299256 .41308595 .32398988 .40608216 .31599427 .39308167 .31599427 .3770752 .31599427 .3440857 .34199525 .3310852 .36099244 .3310852 .3849945 .3310852 .40699769 .34707643 .40699769 .3770752V.37739564Z"/>
<path id="font_7_50" d="M.46798707 .12036133C.46798707 .12435913 .46598817 .13438416 .45098878 .13438416 .43798829 .13438416 .43598939 .12837219 .43299867 .11836243 .4019928 .037246705 .32598878 .022232056 .2899933 .022232056 .24299622 .022232056 .19799805 .043258668 .16799927 .08131409 .1309967 .12837219 .12998963 .18945313 .12998963 .22851563H.43998719C.46099855 .22851563 .46798707 .22851563 .46798707 .25050355 .46798707 .33839417 .4189911 .44628907 .269989 .44628907 .13899231 .44628907 .038986207 .34239198 .038986207 .21949768 .038986207 .092315677 .1499939-.009765625 .2829895-.009765625 .41799928-.009765625 .46798707 .09832764 .46798707 .12036133M.397995 .25450135H.1309967C.14199829 .39530946 .23199463 .41827394 .269989 .41827394 .3929901 .41827394 .39698792 .27947999 .397995 .25450135Z"/>
<path id="font_7_28" d="M.5439911 .09013367V.14515686H.5099945V.09114075C.5099945 .08113098 .5099945 .033111574 .47299195 .033111574 .43598939 .033111574 .43598939 .0801239 .43598939 .09313965V.268219C.43598939 .3212433 .43598939 .35925294 .3899994 .39627076 .34899903 .4302826 .30099488 .44628907 .24198914 .44628907 .14698792 .44628907 .07998657 .41027833 .07998657 .34925843 .07998657 .31723023 .101989749 .30023194 .12799073 .30023194 .15499878 .30023194 .1749878 .3202362 .1749878 .34724427 .1749878 .3642578 .16699219 .38526917 .13999939 .39326478 .17599488 .41827394 .23399353 .41827394 .23999024 .41827394 .29599 .41827394 .35699464 .38127137 .35699464 .29722596V.2662201C.3019867 .26420594 .23599243 .2612152 .16299439 .23420716 .07299805 .20118714 .04499817 .14616394 .04499817 .101135257 .04499817 .0152282719 .14898682-.009765625 .21998596-.009765625 .2999878-.009765625 .34700013 .035232545 .36799623 .07423401 .37199403 .033111574 .39898683-.0048828127 .44499208-.0048828127 .44499208-.0048828127 .5439911-.0048828127 .5439911 .09010315V.09013367M.35699464 .14111328C.35699464 .04522705 .272995 .018234253 .22799683 .018234253 .1769867 .018234253 .1289978 .052230836 .1289978 .10122681 .1289978 .15621948 .1769867 .23323059 .35699464 .24023438V.14111328Z"/>
</defs>
<path transform="matrix(1.00002,0,0,-1.00006,15.547012,98.579959)" stroke-width=".79701" stroke-linecap="round" stroke-linejoin="round" fill="none" stroke="#000000" d="M0 0V96.37778H144.5667V0ZM144.5667 96.37778"/>
<path transform="matrix(1.00002,0,0,-1.00006,15.547012,98.579959)" d="M0 0H96.37984L0 24.09494Z" fill="#ddebf4"/>
<path transform="matrix(1.00002,0,0,-1.00006,15.547012,98.579959)" d="M0 96.37984V24.09494L48.18991 96.37984Z" fill="#ffecdb"/>
<path transform="matrix(1.00002,0,0,-1.00006,15.547012,98.579959)" d="M144.56977 96.37984H48.18991L144.56977 72.28487Z" fill="#ddebf4"/>
<path transform="matrix(1.00002,0,0,-1.00006,15.547012,98.579959)" d="M144.56977 0H96.37984L144.56977 72.28487Z" fill="#ffecdb"/>
<path transform="matrix(1.00002,0,0,-1.00006,15.547012,98.579959)" d="M96.37778 0 0 24.09442 48.18887 96.37778 144.5667 72.28333Z" fill="#e5e6e5"/>
<path transform="matrix(1.00002,0,0,-1.00006,15.547012,98.579959)" stroke-width="1.19553" stroke-linecap="round" stroke-linejoin="round" fill="none" stroke="#000000" d="M96.37778 0 0 24.09442 48.18887 96.37778 144.5667 72.28333Z"/>
<path transform="matrix(1.00002,0,0,-1.00006,15.547012,98.579959)" stroke-width="1.19553" stroke-linecap="round" stroke-linejoin="round" fill="none" stroke="#1f77b4" d="M0 24.09442 95.44994 .23193"/>
<path transform="matrix(.9701594,.24252455,.24251487,-.97019818,110.99887,98.348018)" stroke-width=".9564" stroke-linecap="round" stroke-linejoin="round" fill="none" stroke="#1f77b4" d="M-1.91284 2.55046C-1.75343 1.59402 0 .15938 .4782 0 0-.15938-1.75343-1.59402-1.91284-2.55046"/>
<use data-text="u" xlink:href="#font_1_1" transform="matrix(6.97394,0,0,-6.9742186,47.75266,79.382808)"/>
<use data-text="=" xlink:href="#font_2_7" transform="matrix(6.97394,0,0,-6.9742186,55.028806,79.382808)"/>
<use data-text="(" xlink:href="#font_3_1" transform="matrix(6.97394,0,0,-6.9742186,63.412977,73.79347)"/>
<use data-text="4" xlink:href="#font_4_4" transform="matrix(4.9813997,0,0,-4.9815986,69.8721,76.0966)" fill="#0000ff"/>
<use data-text="&#x2212;" xlink:href="#font_5_1" transform="matrix(4.9813997,0,0,-4.9815986,67.17305,81.78395)" fill="#ff0000"/>
<use data-text="1" xlink:href="#font_4_1" transform="matrix(4.9813997,0,0,-4.9815986,72.57016,81.78395)" fill="#ff0000"/>
<use data-text=")" xlink:href="#font_3_2" transform="matrix(6.97394,0,0,-6.9742186,75.96022,73.793468)"/>
<path transform="matrix(1.00002,0,0,-1.00006,15.547012,98.579959)" stroke-width="1.19553" stroke-linecap="round" stroke-linejoin="round" fill="none" stroke="#ff7f0e" d="M0 24.09442 47.65839 95.58203"/>
<path transform="matrix(.55468109,-.8320699,-.8320367,-.55470326,63.206357,2.9921952)" stroke-width=".9564" stroke-linecap="round" stroke-linejoin="round" fill="none" stroke="#ff7f0e" d="M-1.91284 2.55046C-1.75343 1.59402 0 .15938 .4782 0 0-.15938-1.75343-1.59402-1.91284-2.55046"/>
<use data-text="v" xlink:href="#font_1_2" transform="matrix(6.97394,0,0,-6.9742186,43.560575,48.75597)" fill="#ff7f0e"/>
<use data-text="=" xlink:href="#font_2_7" transform="matrix(6.97394,0,0,-6.9742186,50.71272,48.75597)" fill="#ff7f0e"/>
<use data-text="(" xlink:href="#font_3_1" transform="matrix(6.97394,0,0,-6.9742186,59.09689,43.166639)" fill="#ff7f0e"/>
<use data-text="2" xlink:href="#font_4_2" transform="matrix(4.9813997,0,0,-4.9815986,62.856969,45.46977)" fill="#ff8000"/>
<use data-text="3" xlink:href="#font_4_3" transform="matrix(4.9813997,0,0,-4.9815986,62.856969,51.157117)" fill="#009900"/>
<use data-text=")" xlink:href="#font_3_2" transform="matrix(6.97394,0,0,-6.9742186,66.24803,43.16663)" fill="#ff7f0e"/>
<use data-text="4" xlink:href="#font_2_5" transform="matrix(6.97394,0,0,-6.9742186,71.67814,111.255718)" fill="#0000ff"/>
<use data-text="+" xlink:href="#font_2_1" transform="matrix(6.97394,0,0,-6.9742186,77.45953,111.255718)" fill="#0000ff"/>
<use data-text="2" xlink:href="#font_2_3" transform="matrix(6.97394,0,0,-6.9742186,85.39342,111.255718)" fill="#ff8000"/>
<use data-text="=" xlink:href="#font_2_7" transform="matrix(6.97394,0,0,-6.9742186,91.62812,111.255718)" fill="#ff8000"/>
<use data-text="6" xlink:href="#font_2_6" transform="matrix(6.97394,0,0,-6.9742186,100.010799,111.255718)" fill="#ff8000"/>
<use data-text="|" xlink:href="#font_6_3" transform="matrix(0,-6.9742186,-6.97394,-0,6.4468386,72.02237)"/>
<use data-text="&#x2212;" xlink:href="#font_6_1" transform="matrix(0,-6.9742186,-6.97394,-0,6.4468386,69.65622)" fill="#ff0000"/>
<use data-text="1" xlink:href="#font_2_2" transform="matrix(0,-6.9742186,-6.97394,-0,6.4468386,63.429849)" fill="#ff0000"/>
<use data-text="|" xlink:href="#font_6_3" transform="matrix(0,-6.9742186,-6.97394,-0,6.4468386,59.45761)" fill="#ff0000"/>
<use data-text="+" xlink:href="#font_2_1" transform="matrix(0,-6.9742186,-6.97394,-0,6.4468386,55.27736)" fill="#ff0000"/>
<use data-text="3" xlink:href="#font_2_4" transform="matrix(0,-6.9742186,-6.97394,-0,6.4468386,47.346887)" fill="#009900"/>
<use data-text="=" xlink:href="#font_2_7" transform="matrix(0,-6.9742186,-6.97394,-0,6.4468386,41.11194)" fill="#009900"/>
<use data-text="4" xlink:href="#font_2_5" transform="matrix(0,-6.9742186,-6.97394,-0,6.4468386,32.728929)" fill="#009900"/>
<use data-text="1" xlink:href="#font_4_1" transform="matrix(4.9813997,0,0,-4.9815986,22.730156,89.212398)"/>
<path transform="matrix(1.00002,0,0,-1.00006,-79.01388,9.303602)" stroke-width=".3387" stroke-linecap="butt" stroke-linejoin="round" fill="none" stroke="#000000" d="M101.742-80.838H105.132"/>
<use data-text="2" xlink:href="#font_4_2" transform="matrix(4.9813997,0,0,-4.9815986,22.730156,94.2907)"/>
<use data-text="&#x00b7;" xlink:href="#font_6_2" transform="matrix(6.97394,0,0,-6.9742186,27.769257,91.88956)"/>
<use data-text="4" xlink:href="#font_2_5" transform="matrix(6.97394,0,0,-6.9742186,30.589318,91.88956)" fill="#0000ff"/>
<use data-text="&#x00b7;" xlink:href="#font_6_2" transform="matrix(6.97394,0,0,-6.9742186,35.014406,91.88956)" fill="#0000ff"/>
<use data-text="|" xlink:href="#font_6_3" transform="matrix(6.97394,0,0,-6.9742186,37.831888,91.88956)" fill="#0000ff"/>
<use data-text="&#x2212;" xlink:href="#font_6_1" transform="matrix(6.97394,0,0,-6.9742186,40.20051,91.88956)" fill="#ff0000"/>
<use data-text="1" xlink:href="#font_2_2" transform="matrix(6.97394,0,0,-6.9742186,46.42663,91.88956)" fill="#ff0000"/>
<use data-text="|" xlink:href="#font_6_3" transform="matrix(6.97394,0,0,-6.9742186,50.397714,91.88956)" fill="#ff0000"/>
<use data-text="=" xlink:href="#font_2_7" transform="matrix(6.97394,0,0,-6.9742186,55.031808,91.88956)" fill="#ff0000"/>
<use data-text="2" xlink:href="#font_2_3" transform="matrix(6.97394,0,0,-6.9742186,63.414484,91.88956)" fill="#ff0000"/>
<use data-text="1" xlink:href="#font_4_1" transform="matrix(4.9813997,0,0,-4.9815986,23.390168,14.513908)"/>
<path transform="matrix(1.00002,0,0,-1.00006,-78.35387,-65.39488)" stroke-width=".3387" stroke-linecap="butt" stroke-linejoin="round" fill="none" stroke="#000000" d="M101.742-80.838H105.132"/>
<use data-text="2" xlink:href="#font_4_2" transform="matrix(4.9813997,0,0,-4.9815986,23.390168,19.592217)"/>
<use data-text="&#x00b7;" xlink:href="#font_6_2" transform="matrix(6.97394,0,0,-6.9742186,28.429268,17.19107)"/>
<use data-text="2" xlink:href="#font_2_3" transform="matrix(6.97394,0,0,-6.9742186,31.249329,17.19107)" fill="#ff8000"/>
<use data-text="&#x00b7;" xlink:href="#font_6_2" transform="matrix(6.97394,0,0,-6.9742186,35.674417,17.19107)" fill="#ff8000"/>
<use data-text="3" xlink:href="#font_2_4" transform="matrix(6.97394,0,0,-6.9742186,38.493478,17.19107)" fill="#009900"/>
<use data-text="=" xlink:href="#font_2_7" transform="matrix(6.97394,0,0,-6.9742186,44.72818,17.19107)" fill="#009900"/>
<use data-text="3" xlink:href="#font_2_4" transform="matrix(6.97394,0,0,-6.9742186,53.110857,17.19107)" fill="#009900"/>
<use data-text="1" xlink:href="#font_4_1" transform="matrix(4.9813997,0,0,-4.9815986,114.29299,14.513908)"/>
<path transform="matrix(1.00002,0,0,-1.00006,12.548958,-65.39488)" stroke-width=".3387" stroke-linecap="butt" stroke-linejoin="round" fill="none" stroke="#000000" d="M101.742-80.838H105.132"/>
<use data-text="2" xlink:href="#font_4_2" transform="matrix(4.9813997,0,0,-4.9815986,114.29299,19.592217)"/>
<use data-text="&#x00b7;" xlink:href="#font_6_2" transform="matrix(6.97394,0,0,-6.9742186,119.33209,17.19107)"/>
<use data-text="4" xlink:href="#font_2_5" transform="matrix(6.97394,0,0,-6.9742186,122.15215,17.19107)" fill="#0000ff"/>
<use data-text="&#x00b7;" xlink:href="#font_6_2" transform="matrix(6.97394,0,0,-6.9742186,126.57724,17.19107)" fill="#0000ff"/>
<use data-text="|" xlink:href="#font_6_3" transform="matrix(6.97394,0,0,-6.9742186,129.39472,17.19107)" fill="#0000ff"/>
<use data-text="&#x2212;" xlink:href="#font_6_1" transform="matrix(6.97394,0,0,-6.9742186,131.76334,17.19107)" fill="#ff0000"/>
<use data-text="1" xlink:href="#font_2_2" transform="matrix(6.97394,0,0,-6.9742186,137.98947,17.19107)" fill="#ff0000"/>
<use data-text="|" xlink:href="#font_6_3" transform="matrix(6.97394,0,0,-6.9742186,141.96054,17.19107)" fill="#ff0000"/>
<use data-text="=" xlink:href="#font_2_7" transform="matrix(6.97394,0,0,-6.9742186,146.59464,17.19107)" fill="#ff0000"/>
<use data-text="2" xlink:href="#font_2_3" transform="matrix(6.97394,0,0,-6.9742186,154.97733,17.19107)" fill="#ff0000"/>
<use data-text="1" xlink:href="#font_4_1" transform="matrix(4.9813997,0,0,-4.9815986,119.772098,84.393108)"/>
<path transform="matrix(1.00002,0,0,-1.00006,18.02806,4.484313)" stroke-width=".3387" stroke-linecap="butt" stroke-linejoin="round" fill="none" stroke="#000000" d="M101.742-80.838H105.132"/>
<use data-text="2" xlink:href="#font_4_2" transform="matrix(4.9813997,0,0,-4.9815986,119.772098,89.47141)"/>
<use data-text="&#x00b7;" xlink:href="#font_6_2" transform="matrix(6.97394,0,0,-6.9742186,124.811199,87.07027)"/>
<use data-text="2" xlink:href="#font_2_3" transform="matrix(6.97394,0,0,-6.9742186,127.631259,87.07027)" fill="#ff8000"/>
<use data-text="&#x00b7;" xlink:href="#font_6_2" transform="matrix(6.97394,0,0,-6.9742186,132.05634,87.07027)" fill="#ff8000"/>
<use data-text="3" xlink:href="#font_2_4" transform="matrix(6.97394,0,0,-6.9742186,134.8754,87.07027)" fill="#009900"/>
<use data-text="=" xlink:href="#font_2_7" transform="matrix(6.97394,0,0,-6.9742186,141.1101,87.07027)" fill="#009900"/>
<use data-text="3" xlink:href="#font_2_4" transform="matrix(6.97394,0,0,-6.9742186,149.49279,87.07027)" fill="#009900"/>
<use data-text="A" xlink:href="#font_7_27" transform="matrix(6.97394,0,0,-6.9742186,70.2861,52.838216)"/>
<use data-text="r" xlink:href="#font_7_96" transform="matrix(6.97394,0,0,-6.9742186,76.16513,52.838216)"/>
<use data-text="e" xlink:href="#font_7_50" transform="matrix(6.97394,0,0,-6.9742186,79.27551,52.838216)"/>
<use data-text="a" xlink:href="#font_7_28" transform="matrix(6.97394,0,0,-6.9742186,82.81828,52.838216)"/>
<use data-text="=" xlink:href="#font_2_7" transform="matrix(6.97394,0,0,-6.9742186,89.05348,52.838216)"/>
<use data-text="1" xlink:href="#font_2_2" transform="matrix(6.97394,0,0,-6.9742186,97.43616,52.838216)"/>
<use data-text="4" xlink:href="#font_2_5" transform="matrix(6.97394,0,0,-6.9742186,101.40433,52.838216)"/>
</svg>
